<?xml version="1.0" encoding="utf-8"?>
<!-- Generator: Adobe Illustrator 16.0.0, SVG Export Plug-In . SVG Version: 6.00 Build 0)  -->
<!DOCTYPE svg PUBLIC "-//W3C//DTD SVG 1.1//EN" "http://www.w3.org/Graphics/SVG/1.1/DTD/svg11.dtd">
<svg version="1.1" id="objects" xmlns="http://www.w3.org/2000/svg" xmlns:xlink="http://www.w3.org/1999/xlink" x="0px" y="0px"
	 width="1032px" height="191px" viewBox="0 0 1032 191" enable-background="new 0 0 1032 191" xml:space="preserve">
<g>
	<path fill="#E1E1E1" d="M399.59,77.09c0.067-5.737-0.303-11.545-1.192-17.215c-2.029-12.93-10.253-19.226-23.22-18.12
		c-2.238,0.191-3.526-0.245-4.65-2.368c-4.317-8.154-11.178-13.377-19.544-17.12c-9.396-4.204-19.21-3.463-29.005-3.435
		c-10.3,0.031-20.334,1.32-28.667,6.542c-6.107-3.541-11.574-7.369-17.555-10.051c-16.263-7.293-32.679-4.955-48.896,0.456
		c-15.869,5.295-29.293,14.569-40.27,27.002c-12.628,14.304-23.449,29.972-31.731,47.244c-7.831,16.331-17.696,31.231-31.317,43.25
		c-3.643,3.214-5.853,7.577-10.673,10.007c-12.902,6.506-26.374,11.36-40.585,12.637c-14,1.258-28.196,0.624-42.298,0.363
		c-7.237-0.134-13.951-2.588-19.798-7.124c-0.655-0.508-2.369-0.637-2.815-0.181c-0.583,0.595-0.825,2.172-0.437,2.926
		c0.643,1.243,1.714,2.598,2.943,3.148c4.996,2.237,9.983,5.39,15.228,5.994c10.942,1.262,22.046,1.091,33.082,1.563
		c13.106,0.563,25.654-2.484,37.98-6.306c14.568-4.518,27.247-12.747,40.018-20.931c27.284-17.485,50.715-39.157,71.333-63.96
		c11.561-13.907,25.471-25.051,40.899-33.984c13.818-8.001,28.681-13.463,44.596-4.288c0.691,0.399,3.396-0.921,3.37-1.322
		c-0.281-4.272,3.103-4.494,5.713-5.355c10.103-3.333,20.587-3.265,31.026-2.945c14.637,0.448,26.387,6.19,33.516,19.587
		c1.576,2.962,3.363,4.244,7.043,3.458c8.654-1.848,16.953,2.465,18.665,10.255c1.486,6.763,2.392,13.899,1.939,20.764
		c-0.353,5.346-3.386,10.392-8.548,13.393c-2.345,1.363-2.147,3.566-0.091,5.738c1.967,2.078,4.22,4.367,5.031,6.973
		c2.827,9.085,1.33,17.565-5.545,24.505c-3.099,3.129-6.543,5.972-10.098,8.582c-7.556,5.55-16.197,5.61-24.021,0.326
		c-2.641-1.784-4.929-4.108-7.629-5.782c-6.238-3.869-8.682-9.29-7.837-16.523c0.953-8.15,2.31-15.817,9.011-21.824
		c5.595-5.015,14.102-4.141,18.522,1.352c4.344,5.397,5.236,11.367,3.774,17.683c-1.758,7.593-9.613,10.228-15.482,5.638
		c-2.647-2.069-3.432-4.63-1.806-7.419c1.425-2.444,3.667-1.464,5.795-0.568c2.431,1.023,3.466-0.727,2.931-2.53
		c-0.389-1.312-2.064-2.761-3.451-3.163c-4.646-1.347-7.778-0.228-9.792,2.921c-2.353,3.681-2.185,9.261,0.414,12.461
		c4.229,5.207,9.94,7.295,16.132,5.445c6.127-1.831,9.96-6.646,10.917-13.188c2.028-13.865-4.873-24.955-18.553-29.526
		c-20.571-6.875-41.276-8.463-62.136-1.07c-1.118,0.396-2.559,0.13-3.797-0.105c-5.202-0.99-8.396-3.687-8.196-9.498
		c0.029-0.846-1.297-2.305-2.163-2.444c-0.747-0.12-1.979,1.075-2.556,1.972c-0.985,1.532-1.427,3.419-2.442,4.923
		c-7.303,10.821-17.988,16.959-30.216,20.077c-5.177,1.319-10.979,0.564-16.453,0.158c-2.128-0.158-4.343-1.684-6.155-3.063
		c-3.965-3.019-4.234-6.469-1.346-10.562c1.552-2.199,3.038-4.465,4.302-6.834c0.329-0.617-0.064-1.909-0.562-2.554
		c-0.244-0.316-1.727-0.141-2.236,0.295c-1.854,1.588-3.725,3.226-5.246,5.121c-6.457,8.045-12.403,16.532-19.246,24.228
		c-17.277,19.428-38.462,33.862-61.18,46.126c-11.271,6.084-23.032,11.075-35.692,13.584c-6.137,1.215-12.324,2.193-18.428,3.552
		c-1.257,0.279-2.245,1.771-3.357,2.703c1.144,0.896,2.17,2.218,3.463,2.576c1.456,0.403,3.171,0.063,4.743-0.167
		c18.516-2.707,36.218-8.007,52.61-17.156c26.014-14.52,50.454-31.032,68.556-55.371c1.865-2.507,3.771-4.983,5.657-7.474
		c-0.33,0.521-0.66,1.041-0.99,1.562c2.867,2.935,5.733,5.869,8.836,9.045c-4.333,5.494-9.717,12.338-15.119,19.166
		c-15.777,19.943-35.417,34.581-59.484,43.035c-5.204,1.828-10.616,3.061-15.852,4.808c-0.967,0.322-1.549,1.801-2.309,2.745
		c1.123,0.379,2.329,1.241,3.356,1.065c26.614-4.564,49.068-17.269,67.542-36.529c9.654-10.065,17.689-21.681,26.513-32.549
		c0.671-0.826,1.867-1.888,2.718-1.805c7.887,0.763,15.652,0.554,23.319-2.54c-3.351,4.642-6.491,8.855-9.486,13.169
		c-6.152,8.858-11.498,18.399-18.5,26.516c-10.942,12.684-23.726,23.227-41.09,26.242c-2.406,0.418-4.802,1.093-7.073,1.979
		c-0.74,0.288-1.068,1.632-1.584,2.492c0.907,0.433,1.951,1.404,2.7,1.214c8.527-2.171,17.395-3.034,25.319-7.479
		c18.149-10.18,31.13-25.229,41.533-42.88c3.169-5.378,6.814-10.473,10.13-15.767c6.189-9.881,17.013-15.384,23.499-24.976
		c0.078-0.114,0.424-0.047,0.435-0.048c1.959,1.819,3.808,3.537,5.821,5.407c-10.723,5.046-17.909,13.276-22.47,23.952
		c-3.035,7.105-5.647,14.449-9.346,21.193c-2.775,5.059-6.46,9.887-10.661,13.839c-8.087,7.609-17.568,13.352-27.662,18.069
		c-1.35,0.631-2.133,2.477-3.179,3.76c1.666,0.089,3.584,0.756,4.951,0.16c4.6-2.006,9.22-4.12,13.44-6.809
		c12.085-7.697,23.921-15.749,28.958-30.249c0.038-0.11,0.396-0.108,0.825-0.213c1.23,8.031,6.222,13.947,11.321,19.777
		c8.985,10.272,19.532,18.044,32.864,22.064c9.698,2.925,19.437,5.231,29.522,5.882c4.768,0.308,9.575,0.222,14.35-0.004
		c0.963-0.046,1.859-1.523,2.787-2.341c-0.911-0.651-1.739-1.598-2.753-1.885c-1.389-0.393-2.919-0.361-4.391-0.381
		c-11.973-0.162-23.56-2.15-35.155-5.394c-17.233-4.818-29.525-15.575-39.468-29.671c-1.647-2.335-3.015-5.252-3.373-8.045
		c-2.017-15.771,6.002-31.343,20.464-37.922c8.413-3.827,17.585-6.052,26.53-8.597c2.619-0.746,5.63-0.115,8.23-0.115
		c-4.13,2.695-8.637,5.051-12.411,8.266c-3.801,3.238-7.066,7.175-10.228,11.079c-9.364,11.561-10.186,29.216-2.132,41.678
		c0.4,0.619,0.756,1.296,1.273,1.804c9.243,9.096,18.917,18.085,31.512,21.735c10.158,2.945,20.996,3.591,31.567,4.993
		c1.222,0.162,2.668-1.36,4.01-2.102c-1.193-0.952-2.273-2.49-3.602-2.748c-4.329-0.842-8.769-1.091-13.129-1.796
		c-10.069-1.628-20.225-3.018-28.628-9.67c-4.333-3.431-8.902-6.567-13.192-10.05c-12.44-10.098-11.907-26.688-4.775-38.475
		c6.436-10.637,16.142-18.064,28.082-22.243c1.688-0.591,3.337-2.286,4.874-2.135c4.672,0.458,9.28,1.569,13.914,2.427
		c0.098,0.334,0.197,0.668,0.295,1.002c-9.886,5.809-14.125,14.896-15.308,25.656c-0.859,7.818-1.29,15.642,5.722,21.354
		c3.902,3.18,7.783,6.425,11.938,9.251c9.821,6.677,21.026,6.445,30.551-0.566c3.554-2.615,6.97-5.47,10.16-8.518
		c10.603-10.13,12.338-27.239,4.004-37.977c-0.352-0.453-0.552-1.023-0.731-1.364c1.917-2.908,3.948-5.434,5.343-8.271
		C398.279,82.786,399.558,79.872,399.59,77.09z M256.661,27.266c-13.457,4.415-23.888,13.86-34.949,22.207
		c-10.314,7.782-17.698,18.326-26.401,27.637c-16.19,17.32-32.815,34.235-52.965,47.144c-1.2,0.77-2.386,1.562-3.41,2.233
		c6.018-9.469,12.937-18.409,17.741-28.368c7.368-15.275,16.537-29.326,26.556-42.801c14.279-19.205,32.664-32.525,56.714-37.421
		c11.842-2.411,23.137-1.994,34.293,2.542c1.429,0.581,2.813,1.271,3.77,1.708C270.967,23.797,263.633,24.979,256.661,27.266z"/>
	<path fill="#E1E1E1" d="M262.954,161.397c-4.336-1.718-7.886-3.846-8.292-9.13c-0.078-1.008-1.089-1.944-1.67-2.913
		c-0.671,1.019-1.394,2.008-1.986,3.07c-0.219,0.393-0.131,0.956-0.149,1.127c-0.087,5.255,4.572,10.484,10.67,11.837
		c1.413,0.313,3.081-0.525,4.631-0.834C265.102,163.473,264.238,161.905,262.954,161.397z"/>
	<path fill="#E1E1E1" d="M125.511,118.881c1.657-1.183,3.174-2.56,5.217-4.326c-1.526-1.309-3.004-2.705-3.085-2.628
		c-1.502,1.425-2.945,2.954-4.088,4.67C123.396,116.837,125.425,118.942,125.511,118.881z"/>
	<path fill="#E1E1E1" d="M348.811,38.454c1.973,1.437,3.875,2.995,5.976,4.209c0.428,0.247,1.604-0.801,2.436-1.253
		c0.076-0.444,0.152-0.889,0.228-1.334c-1.969-1.123-3.863-2.443-5.956-3.244C350.895,36.603,349.721,37.872,348.811,38.454z"/>
	<path fill="#E1E1E1" d="M400.167,86.564c-0.206,0.479,1.163,1.638,1.811,2.485c1.342-1.133,2.684-2.266,4.699-3.968
		c-1.725-1.274-3.353-2.677-3.487-2.546C401.987,83.706,400.822,85.048,400.167,86.564z"/>
	<path fill="#E1E1E1" d="M409.188,103.746c-0.446-0.126-2.145,1.831-2.03,2.669c0.154,1.139,1.362,2.752,2.374,2.968
		c0.854,0.183,2.07-1.335,3.922-2.677C411.521,105.27,410.468,104.105,409.188,103.746z"/>
	<path fill="#E1E1E1" d="M136.068,110.027c0.79,0.06,1.68-1.213,3.044-2.318c-1.43-1.041-2.402-2.281-3.175-2.168
		c-0.847,0.125-2.091,1.505-2.083,2.327C133.862,108.648,135.225,109.963,136.068,110.027z"/>
	<path fill="#E1E1E1" d="M354.872,51.723c0.79,0.615,1.641,1.783,2.356,1.706c0.924-0.1,2.205-1.051,2.47-1.904
		c0.253-0.813-0.601-1.971-0.968-2.978c-0.572,0.291-1.143,0.583-1.715,0.874C356.301,50.188,355.586,50.956,354.872,51.723z"/>
</g>
<g>
	<path fill="#E1E1E1" d="M703.59,81.09c0.067-5.737-0.303-11.545-1.192-17.215c-2.029-12.93-10.253-19.226-23.22-18.12
		c-2.238,0.191-3.526-0.245-4.65-2.368c-4.316-8.154-11.178-13.377-19.544-17.12c-9.396-4.204-19.21-3.463-29.005-3.435
		c-10.301,0.031-20.335,1.32-28.668,6.542c-6.107-3.541-11.574-7.369-17.555-10.051c-16.264-7.293-32.68-4.955-48.896,0.456
		c-15.869,5.295-29.293,14.569-40.27,27.002c-12.629,14.304-23.449,29.972-31.732,47.244c-7.83,16.331-17.695,31.231-31.316,43.25
		c-3.643,3.214-5.854,7.577-10.674,10.007c-12.902,6.506-26.373,11.36-40.585,12.637c-14,1.258-28.196,0.624-42.298,0.363
		c-7.237-0.134-13.951-2.588-19.798-7.124c-0.655-0.508-2.369-0.637-2.815-0.181c-0.583,0.595-0.825,2.172-0.437,2.926
		c0.643,1.243,1.714,2.598,2.943,3.148c4.996,2.237,9.983,5.39,15.228,5.994c10.942,1.262,22.046,1.091,33.082,1.563
		c13.106,0.563,25.654-2.484,37.98-6.306c14.569-4.518,27.247-12.747,40.018-20.931c27.283-17.485,50.715-39.157,71.332-63.96
		c11.561-13.907,25.471-25.051,40.898-33.984c13.818-8.001,28.682-13.463,44.596-4.288c0.691,0.399,3.396-0.921,3.37-1.322
		c-0.281-4.272,3.103-4.494,5.714-5.355c10.103-3.333,20.586-3.265,31.025-2.945c14.638,0.448,26.387,6.19,33.516,19.587
		c1.576,2.962,3.363,4.244,7.043,3.458c8.654-1.848,16.953,2.465,18.666,10.255c1.486,6.763,2.392,13.899,1.938,20.764
		c-0.353,5.346-3.386,10.392-8.548,13.393c-2.346,1.363-2.146,3.566-0.091,5.738c1.968,2.078,4.22,4.367,5.03,6.973
		c2.827,9.085,1.33,17.565-5.545,24.505c-3.1,3.129-6.543,5.972-10.098,8.582c-7.557,5.55-16.197,5.61-24.021,0.326
		c-2.641-1.784-4.929-4.108-7.629-5.782c-6.238-3.869-8.683-9.29-7.837-16.523c0.953-8.15,2.31-15.817,9.011-21.824
		c5.595-5.015,14.102-4.141,18.522,1.352c4.344,5.397,5.236,11.367,3.773,17.683c-1.758,7.593-9.613,10.228-15.482,5.638
		c-2.646-2.069-3.432-4.63-1.806-7.419c1.425-2.444,3.667-1.464,5.796-0.568c2.43,1.023,3.465-0.727,2.931-2.53
		c-0.39-1.312-2.063-2.761-3.451-3.163c-4.646-1.347-7.778-0.228-9.792,2.921c-2.352,3.681-2.185,9.261,0.414,12.461
		c4.229,5.207,9.94,7.295,16.133,5.445c6.127-1.831,9.96-6.646,10.916-13.188c2.028-13.865-4.872-24.955-18.553-29.526
		c-20.57-6.875-41.276-8.463-62.136-1.07c-1.118,0.396-2.56,0.13-3.797-0.105c-5.202-0.99-8.396-3.687-8.196-9.498
		c0.029-0.846-1.297-2.305-2.162-2.444c-0.747-0.12-1.979,1.075-2.556,1.972c-0.985,1.532-1.427,3.419-2.442,4.923
		c-7.303,10.821-17.988,16.959-30.216,20.077c-5.177,1.319-10.979,0.564-16.452,0.158c-2.129-0.158-4.344-1.684-6.155-3.063
		c-3.966-3.019-4.233-6.469-1.346-10.562c1.552-2.199,3.038-4.465,4.302-6.834c0.33-0.617-0.063-1.909-0.561-2.554
		c-0.244-0.316-1.728-0.141-2.236,0.295c-1.854,1.588-3.725,3.226-5.246,5.121c-6.457,8.045-12.403,16.532-19.246,24.228
		c-17.277,19.428-38.462,33.862-61.18,46.126c-11.271,6.084-23.031,11.075-35.691,13.584c-6.137,1.215-12.324,2.193-18.428,3.552
		c-1.257,0.279-2.245,1.771-3.357,2.703c1.144,0.896,2.17,2.218,3.463,2.576c1.456,0.403,3.171,0.063,4.743-0.167
		c18.516-2.707,36.218-8.007,52.611-17.156c26.014-14.52,50.453-31.032,68.555-55.371c1.865-2.507,3.771-4.983,5.658-7.474
		c-0.33,0.521-0.66,1.041-0.99,1.562c2.866,2.935,5.732,5.869,8.836,9.045c-4.333,5.494-9.717,12.338-15.119,19.166
		c-15.777,19.943-35.418,34.581-59.484,43.035c-5.204,1.828-10.616,3.061-15.852,4.808c-0.968,0.322-1.55,1.801-2.31,2.745
		c1.123,0.379,2.329,1.241,3.356,1.065c26.613-4.564,49.067-17.269,67.542-36.529c9.653-10.065,17.688-21.681,26.513-32.549
		c0.672-0.826,1.867-1.888,2.719-1.805c7.887,0.763,15.652,0.554,23.318-2.54c-3.351,4.642-6.49,8.855-9.486,13.169
		c-6.151,8.858-11.497,18.399-18.5,26.516c-10.942,12.684-23.726,23.227-41.09,26.242c-2.406,0.418-4.802,1.093-7.072,1.979
		c-0.74,0.288-1.068,1.632-1.585,2.492c0.907,0.433,1.951,1.404,2.7,1.214c8.527-2.171,17.395-3.034,25.318-7.479
		c18.15-10.18,31.131-25.229,41.533-42.88c3.17-5.378,6.814-10.473,10.131-15.767c6.188-9.881,17.013-15.384,23.498-24.976
		c0.078-0.114,0.424-0.047,0.435-0.048c1.959,1.819,3.808,3.537,5.821,5.407c-10.723,5.046-17.909,13.276-22.471,23.952
		c-3.035,7.105-5.646,14.449-9.346,21.193c-2.775,5.059-6.461,9.887-10.661,13.839c-8.087,7.609-17.567,13.352-27.662,18.069
		c-1.351,0.631-2.133,2.477-3.179,3.76c1.666,0.089,3.584,0.756,4.951,0.16c4.6-2.006,9.22-4.12,13.439-6.809
		c12.086-7.697,23.922-15.749,28.959-30.249c0.037-0.11,0.395-0.108,0.824-0.213c1.23,8.031,6.223,13.947,11.321,19.777
		c8.985,10.272,19.532,18.044,32.864,22.064c9.697,2.925,19.437,5.231,29.521,5.882c4.768,0.308,9.576,0.222,14.351-0.004
		c0.964-0.046,1.859-1.523,2.786-2.341c-0.91-0.651-1.738-1.598-2.753-1.885c-1.39-0.393-2.919-0.361-4.391-0.381
		c-11.973-0.162-23.56-2.15-35.155-5.394c-17.233-4.818-29.525-15.575-39.469-29.671c-1.646-2.335-3.015-5.252-3.372-8.045
		c-2.017-15.771,6.002-31.343,20.464-37.922c8.413-3.827,17.586-6.052,26.531-8.597c2.619-0.746,5.629-0.115,8.229-0.115
		c-4.13,2.695-8.638,5.051-12.411,8.266c-3.801,3.238-7.066,7.175-10.229,11.079c-9.363,11.561-10.186,29.216-2.131,41.678
		c0.399,0.619,0.756,1.296,1.272,1.804c9.243,9.096,18.917,18.085,31.513,21.735c10.157,2.945,20.995,3.591,31.566,4.993
		c1.223,0.162,2.668-1.36,4.01-2.102c-1.193-0.952-2.273-2.49-3.602-2.748c-4.328-0.842-8.769-1.091-13.129-1.796
		c-10.069-1.628-20.225-3.018-28.629-9.67c-4.333-3.431-8.901-6.567-13.191-10.05c-12.44-10.098-11.907-26.688-4.775-38.475
		c6.436-10.637,16.143-18.064,28.082-22.243c1.688-0.591,3.336-2.286,4.873-2.135c4.672,0.458,9.28,1.569,13.914,2.427
		c0.098,0.334,0.196,0.668,0.295,1.002c-9.887,5.809-14.125,14.896-15.309,25.656c-0.859,7.818-1.289,15.642,5.722,21.354
		c3.902,3.18,7.782,6.425,11.938,9.251c9.82,6.677,21.026,6.445,30.551-0.566c3.555-2.615,6.971-5.47,10.16-8.518
		c10.604-10.13,12.339-27.239,4.004-37.977c-0.352-0.453-0.551-1.023-0.73-1.364c1.917-2.908,3.948-5.434,5.343-8.271
		C702.279,86.786,703.558,83.872,703.59,81.09z M560.661,31.266c-13.457,4.415-23.888,13.86-34.949,22.207
		c-10.313,7.782-17.698,18.326-26.401,27.637c-16.189,17.32-32.814,34.235-52.965,47.144c-1.2,0.77-2.386,1.562-3.41,2.233
		c6.018-9.469,12.938-18.409,17.74-28.368c7.368-15.275,16.537-29.326,26.557-42.801c14.279-19.205,32.664-32.525,56.715-37.421
		c11.842-2.411,23.137-1.994,34.293,2.542c1.428,0.581,2.813,1.271,3.77,1.708C574.967,27.797,567.633,28.979,560.661,31.266z"/>
	<path fill="#E1E1E1" d="M566.954,165.397c-4.336-1.718-7.886-3.846-8.292-9.13c-0.077-1.008-1.089-1.944-1.67-2.913
		c-0.67,1.019-1.393,2.008-1.985,3.07c-0.22,0.393-0.131,0.956-0.149,1.127c-0.086,5.255,4.572,10.484,10.67,11.837
		c1.413,0.313,3.081-0.525,4.631-0.834C569.102,167.473,568.238,165.905,566.954,165.397z"/>
	<path fill="#E1E1E1" d="M429.512,122.881c1.656-1.183,3.174-2.56,5.217-4.326c-1.525-1.309-3.004-2.705-3.085-2.628
		c-1.503,1.425-2.944,2.954-4.088,4.67C427.396,120.837,429.426,122.942,429.512,122.881z"/>
	<path fill="#E1E1E1" d="M652.811,42.454c1.973,1.437,3.875,2.995,5.977,4.209c0.428,0.247,1.604-0.801,2.436-1.253
		c0.076-0.444,0.151-0.889,0.228-1.334c-1.97-1.123-3.863-2.443-5.956-3.244C654.895,40.603,653.721,41.872,652.811,42.454z"/>
	<path fill="#E1E1E1" d="M704.167,90.564c-0.206,0.479,1.163,1.638,1.811,2.485c1.342-1.133,2.684-2.266,4.699-3.968
		c-1.725-1.274-3.353-2.677-3.487-2.546C705.987,87.706,704.822,89.048,704.167,90.564z"/>
	<path fill="#E1E1E1" d="M713.188,107.746c-0.446-0.126-2.145,1.831-2.03,2.669c0.154,1.139,1.362,2.752,2.374,2.968
		c0.854,0.183,2.07-1.335,3.922-2.677C715.521,109.27,714.468,108.105,713.188,107.746z"/>
	<path fill="#E1E1E1" d="M440.068,114.027c0.79,0.06,1.68-1.213,3.045-2.318c-1.431-1.041-2.402-2.281-3.176-2.168
		c-0.846,0.125-2.091,1.505-2.083,2.327C437.862,112.648,439.225,113.963,440.068,114.027z"/>
	<path fill="#E1E1E1" d="M658.872,55.723c0.79,0.615,1.641,1.783,2.356,1.706c0.924-0.1,2.205-1.051,2.47-1.904
		c0.253-0.813-0.601-1.971-0.968-2.978c-0.572,0.291-1.144,0.583-1.715,0.874C660.301,54.188,659.586,54.956,658.872,55.723z"/>
</g>
<g>
	<path fill="#E1E1E1" d="M1010.59,87.09c0.067-5.737-0.303-11.545-1.192-17.215c-2.029-12.93-10.253-19.226-23.22-18.12
		c-2.238,0.191-3.526-0.245-4.65-2.368c-4.316-8.154-11.178-13.377-19.544-17.12c-9.396-4.204-19.21-3.463-29.005-3.435
		c-10.301,0.031-20.335,1.32-28.668,6.542c-6.107-3.541-11.574-7.369-17.555-10.051c-16.264-7.293-32.68-4.955-48.896,0.456
		c-15.869,5.295-29.293,14.569-40.27,27.002c-12.629,14.304-23.449,29.972-31.732,47.244c-7.83,16.331-17.695,31.231-31.316,43.25
		c-3.643,3.214-5.854,7.577-10.674,10.007c-12.902,6.506-26.373,11.36-40.585,12.637c-14.001,1.258-28.196,0.624-42.298,0.363
		c-7.237-0.134-13.951-2.588-19.798-7.124c-0.655-0.508-2.369-0.637-2.815-0.181c-0.584,0.595-0.825,2.172-0.437,2.926
		c0.643,1.243,1.714,2.598,2.943,3.148c4.996,2.237,9.983,5.39,15.228,5.994c10.941,1.262,22.047,1.091,33.082,1.563
		c13.105,0.563,25.654-2.484,37.98-6.306c14.568-4.518,27.246-12.747,40.018-20.931c27.283-17.485,50.715-39.157,71.332-63.96
		c11.561-13.907,25.471-25.051,40.898-33.984c13.818-8.001,28.682-13.463,44.596-4.288c0.691,0.399,3.396-0.921,3.37-1.322
		c-0.281-4.272,3.103-4.494,5.714-5.355c10.103-3.333,20.586-3.265,31.025-2.945c14.638,0.448,26.387,6.19,33.516,19.587
		c1.576,2.962,3.363,4.244,7.043,3.458c8.654-1.848,16.953,2.465,18.666,10.255c1.486,6.763,2.392,13.899,1.938,20.764
		c-0.353,5.346-3.386,10.392-8.548,13.393c-2.346,1.363-2.146,3.566-0.091,5.738c1.968,2.078,4.22,4.367,5.03,6.973
		c2.827,9.085,1.33,17.565-5.545,24.505c-3.1,3.129-6.543,5.972-10.098,8.582c-7.557,5.55-16.197,5.61-24.021,0.326
		c-2.641-1.784-4.929-4.108-7.629-5.782c-6.238-3.869-8.683-9.29-7.837-16.523c0.953-8.15,2.31-15.817,9.011-21.824
		c5.595-5.015,14.102-4.141,18.522,1.352c4.344,5.397,5.236,11.367,3.773,17.683c-1.758,7.593-9.613,10.228-15.482,5.638
		c-2.646-2.069-3.432-4.63-1.806-7.419c1.425-2.444,3.667-1.464,5.796-0.568c2.43,1.023,3.465-0.727,2.931-2.53
		c-0.39-1.312-2.063-2.761-3.451-3.163c-4.646-1.347-7.778-0.228-9.792,2.921c-2.352,3.681-2.185,9.261,0.414,12.461
		c4.229,5.207,9.94,7.295,16.133,5.445c6.127-1.831,9.96-6.646,10.916-13.188c2.028-13.865-4.872-24.955-18.553-29.526
		c-20.57-6.874-41.276-8.463-62.136-1.07c-1.118,0.396-2.56,0.13-3.797-0.105c-5.202-0.99-8.396-3.687-8.196-9.498
		c0.029-0.846-1.297-2.305-2.162-2.444c-0.747-0.12-1.979,1.075-2.556,1.972c-0.985,1.532-1.427,3.418-2.442,4.923
		c-7.303,10.821-17.988,16.959-30.216,20.077c-5.177,1.319-10.979,0.564-16.452,0.158c-2.129-0.158-4.344-1.684-6.155-3.063
		c-3.966-3.019-4.233-6.469-1.346-10.562c1.552-2.199,3.038-4.465,4.302-6.834c0.33-0.617-0.063-1.909-0.561-2.555
		c-0.244-0.316-1.728-0.141-2.236,0.295c-1.854,1.588-3.725,3.227-5.246,5.121c-6.457,8.045-12.403,16.532-19.246,24.228
		c-17.277,19.428-38.462,33.862-61.18,46.126c-11.271,6.084-23.031,11.075-35.691,13.584c-6.137,1.215-12.324,2.193-18.428,3.552
		c-1.258,0.279-2.246,1.771-3.357,2.703c1.144,0.896,2.17,2.218,3.463,2.576c1.456,0.403,3.172,0.063,4.742-0.167
		c18.517-2.707,36.219-8.007,52.611-17.156c26.014-14.52,50.453-31.032,68.555-55.371c1.865-2.507,3.771-4.983,5.658-7.474
		c-0.33,0.521-0.66,1.041-0.99,1.562c2.866,2.935,5.732,5.869,8.836,9.045c-4.333,5.494-9.717,12.338-15.119,19.166
		c-15.777,19.943-35.418,34.581-59.484,43.035c-5.204,1.828-10.616,3.061-15.852,4.808c-0.968,0.322-1.55,1.801-2.31,2.745
		c1.123,0.379,2.329,1.241,3.356,1.065c26.613-4.564,49.067-17.269,67.542-36.529c9.653-10.065,17.688-21.681,26.513-32.549
		c0.672-0.826,1.867-1.888,2.719-1.805c7.887,0.763,15.652,0.554,23.318-2.54c-3.351,4.642-6.49,8.855-9.486,13.169
		c-6.151,8.858-11.497,18.399-18.5,26.516c-10.942,12.684-23.726,23.227-41.09,26.242c-2.406,0.418-4.802,1.093-7.072,1.979
		c-0.74,0.288-1.068,1.632-1.585,2.492c0.907,0.433,1.951,1.404,2.7,1.214c8.527-2.171,17.395-3.034,25.318-7.479
		c18.15-10.18,31.131-25.229,41.533-42.88c3.17-5.378,6.814-10.473,10.131-15.767c6.188-9.881,17.013-15.384,23.498-24.976
		c0.078-0.114,0.424-0.047,0.435-0.048c1.959,1.819,3.808,3.537,5.821,5.407c-10.723,5.046-17.909,13.276-22.471,23.952
		c-3.035,7.105-5.646,14.449-9.346,21.193c-2.775,5.059-6.461,9.887-10.661,13.839c-8.087,7.609-17.567,13.352-27.662,18.069
		c-1.351,0.631-2.133,2.477-3.179,3.76c1.666,0.089,3.584,0.756,4.951,0.16c4.6-2.006,9.22-4.12,13.439-6.809
		c12.086-7.697,23.922-15.749,28.959-30.249c0.037-0.11,0.395-0.108,0.824-0.213c1.23,8.031,6.223,13.947,11.321,19.777
		c8.985,10.272,19.532,18.044,32.864,22.064c9.697,2.925,19.437,5.231,29.521,5.882c4.768,0.308,9.576,0.222,14.351-0.004
		c0.964-0.046,1.859-1.523,2.786-2.341c-0.91-0.651-1.738-1.598-2.753-1.885c-1.39-0.393-2.919-0.361-4.391-0.381
		c-11.973-0.162-23.56-2.15-35.155-5.394c-17.233-4.818-29.525-15.575-39.469-29.671c-1.646-2.335-3.015-5.252-3.372-8.045
		c-2.017-15.771,6.002-31.343,20.464-37.922c8.413-3.827,17.586-6.052,26.531-8.597c2.619-0.746,5.629-0.115,8.229-0.115
		c-4.13,2.695-8.638,5.051-12.411,8.266c-3.801,3.238-7.066,7.175-10.229,11.079c-9.363,11.561-10.186,29.216-2.131,41.678
		c0.399,0.619,0.756,1.296,1.272,1.804c9.243,9.096,18.917,18.085,31.513,21.735c10.157,2.945,20.995,3.591,31.566,4.993
		c1.223,0.162,2.668-1.36,4.01-2.102c-1.193-0.952-2.273-2.49-3.602-2.748c-4.328-0.842-8.769-1.091-13.129-1.796
		c-10.069-1.628-20.225-3.018-28.629-9.67c-4.333-3.431-8.901-6.567-13.191-10.05c-12.44-10.098-11.907-26.688-4.775-38.475
		c6.436-10.637,16.143-18.064,28.082-22.243c1.688-0.591,3.336-2.286,4.873-2.135c4.672,0.458,9.28,1.569,13.914,2.427
		c0.098,0.334,0.196,0.668,0.295,1.002c-9.887,5.809-14.125,14.896-15.309,25.656c-0.859,7.818-1.289,15.642,5.722,21.354
		c3.902,3.18,7.782,6.425,11.938,9.251c9.82,6.677,21.026,6.445,30.551-0.566c3.555-2.615,6.971-5.47,10.16-8.518
		c10.604-10.13,12.339-27.239,4.004-37.977c-0.352-0.453-0.551-1.023-0.73-1.364c1.917-2.908,3.948-5.434,5.343-8.271
		C1009.279,92.786,1010.558,89.872,1010.59,87.09z M867.661,37.266c-13.457,4.415-23.888,13.86-34.949,22.207
		c-10.313,7.782-17.698,18.326-26.401,27.637c-16.189,17.32-32.814,34.235-52.965,47.144c-1.2,0.77-2.386,1.562-3.41,2.233
		c6.018-9.469,12.938-18.409,17.74-28.368c7.368-15.275,16.537-29.326,26.557-42.801c14.279-19.205,32.664-32.525,56.715-37.421
		c11.842-2.411,23.137-1.994,34.293,2.542c1.428,0.581,2.813,1.271,3.77,1.708C881.967,33.797,874.633,34.979,867.661,37.266z"/>
	<path fill="#E1E1E1" d="M873.954,171.397c-4.336-1.718-7.886-3.846-8.292-9.13c-0.077-1.008-1.089-1.944-1.67-2.913
		c-0.67,1.019-1.393,2.008-1.985,3.07c-0.22,0.393-0.131,0.956-0.149,1.127c-0.086,5.255,4.572,10.484,10.67,11.837
		c1.413,0.313,3.081-0.525,4.631-0.834C876.102,173.473,875.238,171.905,873.954,171.397z"/>
	<path fill="#E1E1E1" d="M736.512,128.881c1.656-1.183,3.174-2.56,5.217-4.326c-1.525-1.309-3.004-2.705-3.085-2.628
		c-1.503,1.425-2.944,2.954-4.088,4.67C734.396,126.837,736.426,128.942,736.512,128.881z"/>
	<path fill="#E1E1E1" d="M959.811,48.454c1.973,1.437,3.875,2.995,5.977,4.209c0.428,0.247,1.604-0.801,2.436-1.253
		c0.076-0.444,0.151-0.889,0.228-1.334c-1.97-1.123-3.863-2.443-5.956-3.244C961.895,46.603,960.721,47.872,959.811,48.454z"/>
	<path fill="#E1E1E1" d="M1011.167,96.564c-0.206,0.479,1.163,1.638,1.811,2.485c1.342-1.133,2.684-2.266,4.699-3.968
		c-1.725-1.274-3.353-2.677-3.487-2.546C1012.987,93.706,1011.822,95.048,1011.167,96.564z"/>
	<path fill="#E1E1E1" d="M1020.188,113.746c-0.446-0.126-2.145,1.831-2.03,2.669c0.154,1.139,1.362,2.752,2.374,2.968
		c0.854,0.183,2.07-1.335,3.922-2.677C1022.521,115.27,1021.468,114.105,1020.188,113.746z"/>
	<path fill="#E1E1E1" d="M747.068,120.027c0.79,0.06,1.68-1.213,3.045-2.318c-1.431-1.041-2.402-2.281-3.176-2.168
		c-0.846,0.125-2.091,1.505-2.083,2.327C744.862,118.648,746.225,119.963,747.068,120.027z"/>
	<path fill="#E1E1E1" d="M965.872,61.723c0.79,0.615,1.641,1.783,2.356,1.706c0.924-0.1,2.205-1.051,2.47-1.904
		c0.253-0.813-0.601-1.971-0.968-2.978c-0.572,0.291-1.144,0.583-1.715,0.874C967.301,60.188,966.586,60.956,965.872,61.723z"/>
</g>
</svg>
