<?xml version="1.0" encoding="utf-8"?>
<!-- Generator: Adobe Illustrator 16.0.0, SVG Export Plug-In . SVG Version: 6.00 Build 0)  -->
<!DOCTYPE svg PUBLIC "-//W3C//DTD SVG 1.1//EN" "http://www.w3.org/Graphics/SVG/1.1/DTD/svg11.dtd">
<svg version="1.1" id="圖層_1" xmlns="http://www.w3.org/2000/svg" xmlns:xlink="http://www.w3.org/1999/xlink" x="0px" y="0px"
	 width="219px" height="368px" viewBox="0 0 219 368" enable-background="new 0 0 219 368" xml:space="preserve">
<g>
	<path fill="#544236" d="M109.813,5.001C50.477,5.001,2.172,53.306,2.172,112.646c0,56.114,89.347,152.725,99.552,163.555
		l8.089,8.62l8.117-8.62c10.202-10.83,99.549-107.441,99.549-163.555C217.479,53.306,169.177,5.001,109.813,5.001L109.813,5.001z
		 M109.813,157.218c-24.555,0-44.543-19.99-44.543-44.548c0-24.583,19.988-44.546,44.543-44.546
		c24.581,0,44.546,19.963,44.546,44.546C154.359,137.229,134.395,157.218,109.813,157.218L109.813,157.218z M109.813,157.218"/>
</g>
<ellipse opacity="0.8" fill="#544236" cx="109.826" cy="338.503" rx="67" ry="23.5"/>
</svg>
