<?xml version="1.0" encoding="utf-8"?>
<!-- Generator: Adobe Illustrator 16.0.0, SVG Export Plug-In . SVG Version: 6.00 Build 0)  -->
<!DOCTYPE svg PUBLIC "-//W3C//DTD SVG 1.1//EN" "http://www.w3.org/Graphics/SVG/1.1/DTD/svg11.dtd">
<svg version="1.1" id="圖層_1" xmlns="http://www.w3.org/2000/svg" xmlns:xlink="http://www.w3.org/1999/xlink" x="0px" y="0px"
	 width="60px" height="179.75px" viewBox="0 0 60 179.75" enable-background="new 0 0 60 179.75" xml:space="preserve">
<g>
	<path fill="#D0B38A" d="M31.784,58.198c3.489-0.057,6.746-0.279,9.666-0.64l0.477-12.77c-2.936,0.42-6.333,0.701-10.142,0.768
		V58.198L31.784,58.198z"/>
	<path fill="#D0B38A" d="M31.784,36.436c3.943-0.068,7.453-0.357,10.483-0.791l0.692-18.524c-3.417,0.285-7.229,0.456-11.176,0.497
		V36.436z"/>
	<path fill="#D0B38A" d="M59.027,14.941c0-1.945-3.011-3.304-9.472-4.279c-0.344-0.052-0.696-0.103-1.055-0.151
		c-0.13-0.851-0.531-1.376-0.837-1.78c-0.266-0.347-0.384-0.503-0.384-0.959c0-0.453,0.118-0.611,0.384-0.957
		c0.37-0.487,0.879-1.152,0.879-2.353c0-0.779-0.847-1.41-1.896-1.41c-1.048,0-1.897,0.633-1.897,1.41
		c0,0.455-0.121,0.611-0.385,0.956c-0.371,0.488-0.879,1.153-0.879,2.354c0,1.132,0.45,1.787,0.813,2.265
		c-3.752-0.345-7.986-0.548-12.421-0.593c-0.129-0.84-0.529-1.365-0.832-1.765c-0.265-0.345-0.387-0.502-0.387-0.958
		c0-0.454,0.121-0.61,0.387-0.957c0.371-0.486,0.879-1.15,0.879-2.354c0-0.78-0.851-1.411-1.895-1.411
		c-1.048,0-1.897,0.631-1.897,1.411c0,0.455-0.12,0.612-0.386,0.959c-0.37,0.485-0.879,1.152-0.879,2.352
		c0,1.203,0.509,1.868,0.879,2.353C27.855,9.218,27.941,9.33,28,9.444c-4.6,0.049-8.985,0.27-12.832,0.64
		c-0.177-0.607-0.491-1.023-0.746-1.354c-0.263-0.347-0.384-0.503-0.384-0.958c0-0.453,0.122-0.611,0.384-0.957
		c0.372-0.487,0.88-1.152,0.88-2.353c0-0.779-0.849-1.41-1.897-1.41c-1.046,0-1.895,0.632-1.895,1.41
		c0,0.454-0.121,0.611-0.383,0.956c-0.373,0.487-0.883,1.153-0.883,2.354c0,1.202,0.511,1.868,0.883,2.354
		c0.116,0.155,0.205,0.272,0.269,0.395c-0.333,0.046-0.661,0.096-0.983,0.143c-6.461,0.975-9.469,2.335-9.469,4.279
		c0,0.035,0.001,0.069,0.004,0.102c-0.004,0.06-0.007,0.12,0,0.181l3.334,36.36c0.063,2.21,3.844,4.098,9.88,5.288l-0.471-12.881
		c-5.511-1.256-8.522-3.052-8.522-4.561L4.526,30.3c0.192,1.526,3.302,3.303,8.831,4.552L12.69,16.666
		c-0.096-0.012-0.197-0.023-0.295-0.037c-4.499-0.597-6.6-1.292-7.378-1.688c0.65-0.328,2.215-0.866,5.323-1.379
		c-0.057,0.244-0.094,0.518-0.094,0.832c0,0.779,0.851,1.412,1.9,1.412c1.047,0,1.895-0.633,1.895-1.412
		c0-0.456,0.121-0.612,0.385-0.959c0.105-0.137,0.217-0.286,0.329-0.458c3.632-0.381,7.845-0.621,12.265-0.693
		c-0.093,0.3-0.153,0.647-0.153,1.059c0,0.781,0.849,1.413,1.896,1.413c1.049,0,1.896-0.631,1.896-1.413
		c0-0.456,0.121-0.611,0.386-0.957c0.03-0.038,0.064-0.082,0.094-0.125c4.522,0.029,8.885,0.231,12.701,0.582
		c-0.201,0.394-0.354,0.89-0.354,1.55c0,0.779,0.849,1.412,1.894,1.412c1.05,0,1.899-0.633,1.899-1.412
		c0-0.456,0.119-0.612,0.384-0.959c0.039-0.048,0.077-0.1,0.116-0.152c4.36,0.59,6.409,1.271,7.179,1.658
		c-0.783,0.396-2.878,1.091-7.381,1.688c-0.265,0.036-0.538,0.069-0.807,0.102l-0.682,18.237c5.862-1.253,9.16-3.095,9.357-4.667
		l-0.642,9.131c0,1.554-3.207,3.417-9.059,4.679l-0.477,12.866c6.351-1.184,10.355-3.117,10.423-5.391l3.333-36.362
		c0.005-0.061,0.003-0.122,0-0.18C59.024,15.01,59.027,14.976,59.027,14.941L59.027,14.941z"/>
	<path fill="#D0B38A" d="M17.977,57.49c3.003,0.394,6.381,0.64,10.012,0.706V45.551c-3.965-0.079-7.476-0.385-10.48-0.845
		L17.977,57.49z"/>
	<path fill="#D0B38A" d="M17.175,35.568c3.101,0.469,6.72,0.788,10.813,0.866v-18.82c-4.076-0.046-8.005-0.231-11.494-0.54
		L17.175,35.568z"/>
</g>
<g>
	<path fill="#D0B38A" d="M27.121,77.662h9.18c-2.055-7.098-0.942-13.321-0.015-16.586h-9.152
		C28.062,64.34,29.177,70.563,27.121,77.662L27.121,77.662z"/>
	<path fill="#D0B38A" d="M25.167,67.082l-3.49-2.378c-3.175-2.168-7.323-2.292-10.623-0.312L9.395,65.39
		c-0.57,0.344-0.233,1.223,0.42,1.091c4.577-0.916,9.288,0.509,12.589,3.812l2.667,2.666C25.325,70.829,25.318,68.841,25.167,67.082
		L25.167,67.082z"/>
	<path fill="#D0B38A" d="M36.319,81.099h-9.218c0.929,3.374,2.103,9.941,0.017,17.19h9.185
		C34.214,91.04,35.388,84.473,36.319,81.099L36.319,81.099z"/>
	<path fill="#D0B38A" d="M36.282,101.726h-9.145c0.928,3.252,2.037,9.442-0.017,16.524h9.18
		C34.246,111.168,35.356,104.978,36.282,101.726L36.282,101.726z"/>
	<path fill="#D0B38A" d="M43.08,82.803h8.844c-1.814-5.922-0.885-11.13-0.012-14.051h-8.824
		C43.961,71.673,44.888,76.879,43.08,82.803L43.08,82.803z"/>
	<path fill="#D0B38A" d="M51.949,86.238h-8.896c0.881,3.023,1.868,8.513,0.023,14.577h8.849
		C50.08,94.751,51.069,89.263,51.949,86.238L51.949,86.238z"/>
	<path fill="#D0B38A" d="M51.909,104.252h-8.817c0.873,2.91,1.795,8.086-0.013,13.998h8.844
		C50.113,112.338,51.036,107.162,51.909,104.252L51.909,104.252z"/>
	<path fill="#D0B38A" d="M16.117,81.099H7.25c0.931,3.374,2.103,9.941,0.018,17.19h8.833C14.013,91.04,15.188,84.473,16.117,81.099
		L16.117,81.099z"/>
	<path fill="#D0B38A" d="M16.081,101.726H7.288c0.926,3.252,2.035,9.442-0.018,16.524h8.829
		C14.046,111.168,15.153,104.978,16.081,101.726L16.081,101.726z"/>
</g>
<g>
	<path fill="#D3B68C" d="M34.643,147.943c-0.479,0.825-0.954,1.678-1.4,2.543c-0.458,0.904-0.915,1.796-1.355,2.657
		c0.658,0.346,1.183,0.808,1.562,1.382c0.307-0.445,0.659-0.897,0.926-1.388c0.313-0.519,0.603-1.06,0.898-1.596
		c0.396-0.766,0.748-1.545,1.083-2.3c-0.43-0.418-0.77-0.936-1.021-1.516C35.106,147.814,34.877,147.888,34.643,147.943
		L34.643,147.943z M34.643,147.943"/>
	<path fill="#D3B68C" d="M10.572,157.945c0.876,0,1.757,0.156,2.616,0.463c1.596,0.576,2.901,1.607,3.682,2.862
		c0.017-0.011,0.033-0.017,0.05-0.021l0.173-0.084c0.251-0.141,0.43-0.269,0.591-0.413l0.217-0.218
		c0.146-0.163,0.273-0.342,0.379-0.536l0.078-0.134c0.022-0.05,0.039-0.102,0.062-0.152c-1.272-0.796-2.293-2.096-2.856-3.676
		c-0.485-1.349-0.574-2.745-0.301-4.015c-0.463-0.195-0.943-0.313-1.412-0.313c-0.43,0-0.837,0.088-1.21,0.267
		c-0.675,0.312-1.194,0.898-1.512,1.685l-0.089,0.229l-0.223,0.091c-0.787,0.316-1.373,0.837-1.69,1.51
		c-0.379,0.805-0.323,1.724,0.05,2.611C9.624,158.008,10.086,157.945,10.572,157.945L10.572,157.945z M10.572,157.945"/>
	<path fill="#D3B68C" d="M11.671,165.438c1.495-0.703,3.186-0.898,4.619-0.575c0.005-0.022,0.017-0.039,0.022-0.056l0.062-0.173
		c0.05-0.179,0.078-0.29,0.095-0.396c0.017-0.106,0.028-0.218,0.034-0.318v-0.318c-0.006-0.106-0.017-0.212-0.034-0.318
		c-0.017-0.106-0.044-0.217-0.072-0.323l-0.045-0.151c-0.017-0.05-0.039-0.095-0.056-0.145c-0.072-0.179-0.156-0.357-0.251-0.53
		c-0.101-0.179-0.212-0.357-0.334-0.53c-0.681-0.932-1.702-1.684-2.907-2.121c-0.736-0.261-1.489-0.4-2.231-0.4
		c-0.273,0-0.536,0.026-0.792,0.061c-0.207,0.032-0.407,0.073-0.603,0.123c-0.189,0.05-0.374,0.111-0.552,0.178
		c-0.915,0.374-1.596,1.01-1.891,1.829c-0.251,0.692-0.212,1.479,0.123,2.26l0.095,0.223l-0.095,0.223
		c-0.334,0.781-0.374,1.562-0.123,2.259c0.29,0.82,0.976,1.456,1.886,1.824C9.322,166.977,10.376,166.051,11.671,165.438
		L11.671,165.438z M11.671,165.438"/>
	<path fill="#D3B68C" d="M18.421,167.803c-0.005-0.017-0.011-0.033-0.017-0.05l0.446-0.385l-0.524,0.223
		c-0.151-0.262-0.273-0.446-0.424-0.603l-0.212-0.212c-0.162-0.15-0.34-0.279-0.535-0.385l-0.14-0.078
		c-0.044-0.022-0.095-0.039-0.14-0.056c-0.184-0.084-0.368-0.151-0.552-0.207c-0.195-0.062-0.396-0.106-0.603-0.14
		c-0.273-0.044-0.546-0.072-0.831-0.072c-0.909,0-1.852,0.217-2.733,0.636c-0.976,0.463-1.791,1.122-2.376,1.902
		c-0.128,0.162-0.234,0.34-0.335,0.513c-0.039,0.062-0.089,0.123-0.123,0.184c-0.062,0.117-0.089,0.234-0.14,0.352
		c-0.385,0.915-0.424,1.83-0.056,2.605c0.318,0.675,0.898,1.194,1.69,1.512l0.223,0.089l0.089,0.223
		c0.318,0.787,0.842,1.373,1.512,1.69c0.374,0.173,0.781,0.262,1.21,0.262c0.474,0,0.948-0.112,1.412-0.313
		c-0.273-1.266-0.184-2.667,0.301-4.011C16.134,169.889,17.171,168.584,18.421,167.803L18.421,167.803z M18.421,167.803"/>
	<path fill="#D3B68C" d="M22.594,173.002c-0.725-1.534-0.915-3.185-0.58-4.625c-0.022-0.005-0.039-0.017-0.056-0.022l-0.173-0.061
		c-0.178-0.05-0.285-0.078-0.396-0.095c-0.106-0.017-0.212-0.028-0.318-0.028l-0.095-0.574l-0.039,0.569l-0.179,0.005
		c-0.106,0-0.212,0.017-0.318,0.034c-0.112,0.011-0.218,0.039-0.324,0.067l-0.162,0.044c-0.05,0.022-0.095,0.045-0.14,0.062
		c-0.178,0.073-0.357,0.151-0.524,0.246c-0.178,0.1-0.357,0.212-0.524,0.334c-0.937,0.687-1.696,1.707-2.125,2.912
		c-0.368,1.021-0.479,2.07-0.34,3.035c0.028,0.201,0.078,0.396,0.128,0.591c0.017,0.067,0.022,0.145,0.045,0.218
		c0.039,0.123,0.095,0.223,0.145,0.34c0.374,0.92,0.999,1.595,1.807,1.885c0.698,0.251,1.484,0.212,2.265-0.123l0.223-0.095
		l0.223,0.095c0.775,0.334,1.562,0.374,2.259,0.123c0.809-0.29,1.434-0.965,1.813-1.885
		C24.139,175.356,23.207,174.302,22.594,173.002L22.594,173.002z M22.594,173.002"/>
	<path fill="#D3B68C" d="M31.251,169.577c-0.876,0-1.751-0.162-2.616-0.468c-1.596-0.575-2.896-1.601-3.676-2.856
		c-0.017,0.006-0.039,0.011-0.056,0.017l-0.156,0.078c-0.268,0.151-0.446,0.273-0.603,0.418l-0.218,0.218
		c-0.15,0.162-0.279,0.34-0.385,0.541l-0.078,0.14c-0.022,0.044-0.039,0.1-0.062,0.145c-0.078,0.173-0.139,0.357-0.195,0.541
		c-0.056,0.201-0.1,0.402-0.134,0.608c-0.178,1.144,0.006,2.404,0.552,3.559c0.463,0.987,1.133,1.813,1.902,2.388
		c0.162,0.128,0.335,0.234,0.508,0.335c0.173,0.1,0.352,0.184,0.524,0.262c0.469,0.195,0.943,0.312,1.417,0.312
		c0.424,0,0.831-0.089,1.205-0.268c0.675-0.318,1.2-0.898,1.512-1.685l0.089-0.229l0.229-0.089c0.787-0.318,1.372-0.836,1.685-1.512
		c0.368-0.775,0.335-1.69-0.05-2.61C32.2,169.516,31.742,169.577,31.251,169.577L31.251,169.577z M31.251,169.577"/>
	<path fill="#D3B68C" d="M35.095,161.275c-0.296-0.813-0.977-1.451-1.886-1.823c-0.708,1.086-1.757,2.02-3.051,2.626
		c-1.032,0.485-2.148,0.748-3.219,0.748c-0.485,0-0.959-0.061-1.406-0.162c-0.006,0.017-0.017,0.028-0.022,0.044l-0.062,0.179
		c-0.05,0.179-0.072,0.285-0.095,0.396c-0.011,0.106-0.028,0.212-0.028,0.318l-0.005,0.156v0.151
		c0.005,0.111,0.022,0.217,0.039,0.323c0.017,0.112,0.039,0.218,0.073,0.329l0.039,0.151c0.022,0.05,0.044,0.101,0.067,0.15
		c0.067,0.173,0.151,0.352,0.24,0.519c0.106,0.184,0.218,0.363,0.346,0.536c0.681,0.932,1.701,1.685,2.895,2.114
		c0.742,0.262,1.49,0.401,2.231,0.401c0.279,0,0.541-0.022,0.798-0.061c0.207-0.028,0.407-0.067,0.603-0.117
		c0.189-0.056,0.379-0.112,0.558-0.19c0.909-0.368,1.59-1.004,1.886-1.818c0.251-0.703,0.207-1.484-0.123-2.265l-0.095-0.223
		l0.095-0.223C35.302,162.754,35.346,161.973,35.095,161.275L35.095,161.275z M35.095,161.275"/>
	<path fill="#D3B68C" d="M23.402,159.719c0.011,0.018,0.011,0.035,0.022,0.05l0.078,0.163c0.145,0.267,0.273,0.445,0.418,0.597
		l0.217,0.223c0.162,0.144,0.34,0.272,0.536,0.378l0.14,0.078c0.044,0.023,0.095,0.041,0.145,0.061
		c0.178,0.08,0.357,0.146,0.541,0.197c0.201,0.062,0.402,0.111,0.603,0.139c0.273,0.045,0.552,0.078,0.837,0.078
		c0.904,0,1.846-0.222,2.728-0.635c0.977-0.463,1.796-1.121,2.382-1.902c0.123-0.167,0.229-0.34,0.329-0.515
		c0.039-0.06,0.089-0.121,0.123-0.188c0.062-0.117,0.095-0.229,0.145-0.347c0.379-0.902,0.413-1.801,0.062-2.57
		c-0.005-0.011-0.005-0.029-0.011-0.041c-0.262-0.557-0.72-1.004-1.322-1.326c-0.117-0.062-0.234-0.128-0.362-0.179l-0.229-0.096
		l-0.089-0.223c-0.313-0.787-0.837-1.365-1.512-1.69c-0.368-0.173-0.781-0.261-1.205-0.261c-0.474,0-0.954,0.117-1.417,0.313
		c0.273,1.265,0.184,2.667-0.296,4.015C25.69,157.632,24.658,158.932,23.402,159.719L23.402,159.719z M23.402,159.719"/>
	<path fill="#D3B68C" d="M23.196,163.758c0,1.261-1.021,2.288-2.282,2.288s-2.287-1.027-2.287-2.288s1.026-2.281,2.287-2.281
		S23.196,162.498,23.196,163.758L23.196,163.758z M23.196,163.758"/>
	<path fill="#D3B68C" d="M17.517,157.316c0.363,0.49,0.781,0.914,1.233,1.244c0.179,0.128,0.357,0.246,0.536,0.34
		c0.173,0.093,0.352,0.178,0.53,0.24c0.017,0.005,0.034,0.017,0.05,0.022l0.173,0.061c0.184,0.056,0.29,0.077,0.402,0.095
		c0.106,0.017,0.212,0.026,0.313,0.032l0.095,0.552v0.006l0.005,0.012v-0.018l0.028-0.552h0.173
		c0.123-0.005,0.223-0.015,0.329-0.032c0.111-0.024,0.217-0.045,0.323-0.074l0.167-0.043c0.05-0.018,0.095-0.045,0.14-0.062
		c0.178-0.074,0.351-0.152,0.524-0.247c0.178-0.099,0.351-0.21,0.524-0.333c0.469-0.342,0.893-0.764,1.25-1.261
		c0.362-0.492,0.658-1.049,0.875-1.651c0.368-1.015,0.474-2.065,0.34-3.029c-0.033-0.208-0.078-0.397-0.128-0.593
		c-0.022-0.071-0.028-0.15-0.05-0.217c-0.039-0.123-0.095-0.222-0.14-0.339c-0.379-0.928-0.999-1.601-1.813-1.891
		c-0.558-0.202-1.171-0.208-1.791-0.035c-0.156,0.045-0.313,0.096-0.469,0.158l-0.223,0.101l-0.223-0.101
		c-0.162-0.067-0.318-0.107-0.48-0.152c-0.284-0.078-0.569-0.134-0.848-0.134c-0.324,0-0.636,0.056-0.938,0.163
		c-0.809,0.295-1.434,0.963-1.807,1.891c-0.05,0.117-0.106,0.216-0.145,0.339c-0.022,0.074-0.028,0.146-0.045,0.217
		c-0.05,0.195-0.1,0.392-0.128,0.593c-0.14,0.964-0.028,2.014,0.34,3.035C16.859,156.26,17.16,156.819,17.517,157.316
		L17.517,157.316z M17.517,157.316"/>
	<path fill="#D3B68C" d="M21.495,160.507c0-0.018-0.011-0.033-0.011-0.056c-0.033-0.29-0.268-0.524-0.569-0.524
		s-0.541,0.234-0.569,0.524c-0.006,0.022-0.011,0.038-0.011,0.056c0,0.324,0.256,0.579,0.58,0.579
		C21.232,161.085,21.495,160.831,21.495,160.507L21.495,160.507z M21.495,160.507"/>
	<path fill="#D3B68C" d="M18.203,161.873c0.229,0.223,0.597,0.223,0.82,0c0.229-0.229,0.229-0.598,0-0.819
		c-0.017-0.024-0.045-0.029-0.067-0.045c-0.223-0.174-0.547-0.163-0.753,0.045c-0.206,0.205-0.212,0.523-0.044,0.752
		C18.175,161.828,18.187,161.851,18.203,161.873L18.203,161.873z M18.203,161.873"/>
	<path fill="#D3B68C" d="M17.606,163.189c-0.29,0.028-0.524,0.268-0.524,0.569s0.234,0.542,0.524,0.569
		c0.022,0.005,0.039,0.011,0.056,0.011c0.324,0,0.58-0.257,0.58-0.581c0-0.318-0.256-0.58-0.58-0.58
		C17.646,163.178,17.629,163.189,17.606,163.189L17.606,163.189z M17.606,163.189"/>
	<path fill="#D3B68C" d="M18.962,166.514c0.017-0.017,0.045-0.028,0.062-0.044c0.229-0.229,0.229-0.597,0-0.82
		c-0.223-0.229-0.591-0.229-0.82,0c-0.017,0.017-0.028,0.045-0.044,0.067c-0.167,0.223-0.162,0.547,0.044,0.753
		C18.41,166.676,18.733,166.682,18.962,166.514L18.962,166.514z M18.962,166.514"/>
	<path fill="#D3B68C" d="M20.334,167.011c0,0.022,0.011,0.039,0.011,0.056c0.028,0.296,0.268,0.524,0.569,0.524
		s0.541-0.229,0.569-0.524c0-0.017,0.011-0.033,0.011-0.056c0-0.318-0.262-0.58-0.58-0.58
		C20.591,166.431,20.334,166.687,20.334,167.011L20.334,167.011z M20.334,167.011"/>
	<path fill="#D3B68C" d="M22.867,166.514c0.229,0.167,0.546,0.162,0.753-0.044c0.207-0.207,0.218-0.53,0.044-0.759
		c-0.017-0.017-0.022-0.044-0.044-0.062c-0.223-0.229-0.591-0.229-0.82,0c-0.223,0.223-0.223,0.591,0,0.82
		C22.822,166.492,22.845,166.498,22.867,166.514L22.867,166.514z M22.867,166.514"/>
	<path fill="#D3B68C" d="M24.223,164.328c0.29-0.028,0.519-0.268,0.519-0.569s-0.229-0.541-0.524-0.569
		c-0.017,0-0.033-0.011-0.056-0.011c-0.318,0-0.58,0.262-0.58,0.58c0,0.324,0.262,0.581,0.58,0.581
		C24.184,164.339,24.2,164.333,24.223,164.328L24.223,164.328z M24.223,164.328"/>
	<path fill="#D3B68C" d="M23.62,161.873c0.022-0.022,0.028-0.045,0.044-0.067c0.173-0.229,0.162-0.547-0.044-0.752
		c-0.207-0.213-0.524-0.219-0.753-0.045c-0.022,0.016-0.045,0.021-0.067,0.045c-0.223,0.222-0.223,0.59,0,0.819
		C23.029,162.096,23.397,162.096,23.62,161.873L23.62,161.873z M23.62,161.873"/>
	<path fill="#D3B68C" d="M30.292,129.083c0.876,0,1.757,0.161,2.616,0.468c1.596,0.575,2.901,1.607,3.682,2.856
		c0.017-0.006,0.033-0.012,0.05-0.018l0.162-0.077c0.268-0.151,0.446-0.28,0.603-0.418l0.217-0.223
		c0.151-0.163,0.273-0.342,0.385-0.531l0.072-0.145c0.028-0.044,0.039-0.094,0.062-0.146c-1.272-0.796-2.293-2.091-2.856-3.676
		c-0.502-1.384-0.558-2.778-0.295-4.01c-0.463-0.196-0.943-0.313-1.417-0.313c-0.43,0-0.837,0.088-1.21,0.262
		c-0.675,0.318-1.194,0.904-1.512,1.691l-0.089,0.229l-0.229,0.09c-0.787,0.311-1.367,0.837-1.685,1.505
		c-0.368,0.782-0.334,1.697,0.05,2.611C29.344,129.144,29.807,129.083,30.292,129.083L30.292,129.083z M30.292,129.083"/>
	<path fill="#D3B68C" d="M26.454,137.388c0.29,0.815,0.976,1.451,1.885,1.819c0.703-1.088,1.757-2.02,3.052-2.627
		c1.495-0.703,3.185-0.893,4.619-0.574c0.011-0.018,0.022-0.041,0.028-0.056l0.585,0.044l-0.53-0.217
		c0.05-0.179,0.078-0.292,0.095-0.403c0.017-0.1,0.028-0.206,0.034-0.311v-0.313c-0.006-0.111-0.017-0.218-0.034-0.324
		c-0.017-0.111-0.044-0.217-0.072-0.328l-0.045-0.151c-0.017-0.044-0.039-0.089-0.062-0.138c-0.067-0.179-0.15-0.357-0.245-0.53
		c-0.101-0.184-0.212-0.357-0.335-0.531c-0.686-0.931-1.707-1.689-2.906-2.119c-0.736-0.261-1.489-0.401-2.231-0.401
		c-0.273,0-0.541,0.027-0.798,0.061c-0.206,0.033-0.407,0.073-0.597,0.124c-0.195,0.049-0.385,0.111-0.558,0.184
		c-0.909,0.373-1.595,1.01-1.885,1.824c-0.251,0.696-0.212,1.478,0.123,2.259l0.095,0.222l-0.095,0.225
		C26.242,135.904,26.203,136.685,26.454,137.388L26.454,137.388z M26.454,137.388"/>
	<path fill="#D3B68C" d="M38.146,138.944c-0.011-0.015-0.017-0.038-0.022-0.049l-0.078-0.162c-0.151-0.269-0.279-0.447-0.418-0.603
		l-0.218-0.211c-0.162-0.157-0.34-0.286-0.536-0.391l-0.15-0.079c-0.045-0.027-0.095-0.033-0.145-0.05
		c-0.179-0.083-0.363-0.133-0.547-0.19c-0.195-0.06-0.396-0.111-0.603-0.144c-0.268-0.044-0.541-0.09-0.826-0.09
		c-0.903,0-1.846,0.225-2.728,0.638c-0.982,0.462-1.796,1.126-2.382,1.902c-0.123,0.167-0.229,0.34-0.329,0.513
		c-0.039,0.062-0.089,0.123-0.123,0.19c-0.062,0.111-0.095,0.229-0.145,0.346c-0.385,0.916-0.418,1.834-0.05,2.61
		c0.318,0.67,0.898,1.195,1.685,1.507l0.229,0.094l0.089,0.225c0.318,0.785,0.836,1.373,1.512,1.689
		c0.374,0.172,0.781,0.262,1.21,0.262c0.469,0,0.954-0.116,1.417-0.313c-0.262-1.232-0.207-2.627,0.295-4.016
		C35.859,141.031,36.892,139.726,38.146,138.944L38.146,138.944z M38.146,138.944"/>
	<path fill="#D3B68C" d="M42.308,144.145c-0.72-1.534-0.915-3.186-0.58-4.624c-0.017-0.006-0.034-0.012-0.05-0.018l-0.167-0.062
		c-0.184-0.05-0.295-0.079-0.401-0.094c-0.106-0.018-0.212-0.029-0.318-0.034h-0.313c-0.112,0.005-0.218,0.017-0.324,0.034
		c-0.106,0.015-0.212,0.044-0.324,0.071l-0.15,0.046c-0.05,0.015-0.095,0.038-0.14,0.056c-0.184,0.071-0.357,0.155-0.53,0.25
		c-0.179,0.102-0.357,0.213-0.524,0.335c-0.937,0.68-1.696,1.701-2.125,2.906c-0.346,0.959-0.452,1.931-0.368,2.813
		c0.011,0.072,0.022,0.144,0.028,0.222c0.028,0.202,0.073,0.402,0.123,0.591c0.05,0.196,0.117,0.38,0.195,0.559
		c0.134,0.334,0.301,0.641,0.507,0.908c0.346,0.447,0.775,0.787,1.3,0.977c0.697,0.251,1.484,0.211,2.265-0.123l0.223-0.094
		l0.223,0.094c0.446,0.189,0.887,0.284,1.322,0.284c0.324,0,0.642-0.056,0.938-0.161c0.809-0.291,1.434-0.965,1.807-1.885
		C43.859,146.498,42.922,145.45,42.308,144.145L42.308,144.145z M42.308,144.145"/>
	<path fill="#D3B68C" d="M50.977,140.714c-0.875,0-1.757-0.157-2.622-0.464c-1.596-0.574-2.896-1.607-3.676-2.856
		c-0.017,0.006-0.039,0.012-0.056,0.018l-0.173,0.084c-0.251,0.138-0.429,0.267-0.591,0.413l-0.217,0.223
		c-0.145,0.155-0.273,0.334-0.379,0.53l-0.078,0.146c-0.022,0.044-0.039,0.094-0.062,0.138c-0.072,0.179-0.139,0.357-0.195,0.547
		c-0.056,0.195-0.1,0.401-0.134,0.608c-0.179,1.138,0.006,2.399,0.552,3.559c0.463,0.988,1.138,1.808,1.902,2.387
		c0.162,0.123,0.335,0.234,0.508,0.334c0.173,0.102,0.351,0.184,0.524,0.263c0.463,0.196,0.942,0.307,1.417,0.307
		c0.429,0,0.831-0.083,1.21-0.262c0.669-0.317,1.194-0.904,1.506-1.689l0.089-0.225l0.229-0.088
		c0.787-0.318,1.367-0.842,1.685-1.513c0.379-0.808,0.324-1.729-0.05-2.61C51.926,140.659,51.462,140.714,50.977,140.714
		L50.977,140.714z M50.977,140.714"/>
	<path fill="#D3B68C" d="M54.592,134.9l0.095-0.217c0.334-0.787,0.379-1.568,0.128-2.265c-0.296-0.82-0.982-1.457-1.891-1.829
		c-0.687,1.059-1.718,2.007-3.046,2.633c-1.032,0.484-2.148,0.747-3.219,0.747c-0.485,0-0.959-0.062-1.406-0.161
		c-0.005,0.015-0.017,0.033-0.022,0.044l-0.062,0.173c-0.05,0.184-0.072,0.29-0.095,0.401c-0.017,0.112-0.028,0.219-0.034,0.324
		v0.308c0.006,0.105,0.022,0.211,0.034,0.316c0.022,0.107,0.044,0.219,0.072,0.324l0.045,0.156c0.017,0.05,0.044,0.102,0.067,0.152
		c0.067,0.179,0.15,0.351,0.24,0.518c0.101,0.184,0.218,0.363,0.346,0.542c0.681,0.925,1.702,1.68,2.896,2.108
		c0.742,0.268,1.489,0.403,2.237,0.403c0.273,0,0.536-0.023,0.792-0.062c0.206-0.028,0.407-0.067,0.597-0.117
		c0.195-0.05,0.379-0.111,0.552-0.185c0.915-0.368,1.601-1.01,1.897-1.825c0.251-0.697,0.206-1.479-0.128-2.259L54.592,134.9z
		 M54.592,134.9"/>
	<path fill="#D3B68C" d="M43.123,130.855c0.006,0.018,0.011,0.035,0.022,0.05l-0.458,0.38l0.541-0.206
		c0.14,0.25,0.268,0.428,0.413,0.591l0.217,0.223c0.156,0.139,0.335,0.267,0.536,0.378l0.14,0.079
		c0.05,0.023,0.095,0.038,0.145,0.056c0.178,0.083,0.357,0.151,0.541,0.201c0.201,0.062,0.401,0.106,0.603,0.139
		c1.166,0.196,2.404-0.01,3.57-0.557c0.999-0.474,1.807-1.149,2.376-1.902c0.123-0.167,0.24-0.335,0.34-0.508
		c0.1-0.178,0.184-0.357,0.256-0.541c0.374-0.881,0.43-1.807,0.05-2.611c-0.313-0.668-0.898-1.194-1.685-1.505l-0.229-0.095
		l-0.089-0.223c-0.312-0.787-0.836-1.373-1.512-1.691c-0.374-0.173-0.781-0.262-1.21-0.262c-0.469,0-0.948,0.112-1.411,0.313
		c0.273,1.265,0.184,2.667-0.301,4.01C45.404,128.769,44.378,130.075,43.123,130.855L43.123,130.855z M43.123,130.855"/>
	<path fill="#D3B68C" d="M42.916,134.9c0,1.262-1.021,2.282-2.281,2.282c-1.267,0-2.288-1.021-2.288-2.282
		c0-1.261,1.021-2.28,2.288-2.28C41.896,132.62,42.916,133.639,42.916,134.9L42.916,134.9z M42.916,134.9"/>
	<path fill="#D3B68C" d="M37.243,128.453c0.357,0.495,0.775,0.92,1.233,1.25c0.173,0.128,0.352,0.246,0.53,0.34
		c0.173,0.094,0.351,0.173,0.53,0.24c0.017,0.005,0.034,0.018,0.05,0.023l0.178,0.062c0.173,0.05,0.285,0.077,0.391,0.094
		c0.106,0.018,0.212,0.027,0.324,0.033h0.212c0.207-0.006,0.313-0.021,0.418-0.033c0.111-0.017,0.217-0.043,0.323-0.072l0.151-0.044
		c0.05-0.017,0.101-0.044,0.15-0.067c0.179-0.067,0.352-0.15,0.524-0.24c0.179-0.1,0.352-0.211,0.524-0.334
		c0.469-0.347,0.893-0.77,1.25-1.261c0.357-0.491,0.659-1.05,0.876-1.645c0.363-1.021,0.474-2.071,0.335-3.041
		c-0.028-0.201-0.073-0.391-0.123-0.587c-0.022-0.071-0.028-0.15-0.05-0.223c-0.039-0.117-0.095-0.223-0.139-0.334
		c-0.379-0.927-0.999-1.601-1.813-1.891c-0.558-0.202-1.166-0.207-1.791-0.034c-0.156,0.044-0.312,0.096-0.468,0.161l-0.223,0.096
		l-0.229-0.1c-0.156-0.067-0.313-0.107-0.474-0.151c-0.285-0.079-0.569-0.135-0.848-0.135c-0.324,0-0.642,0.056-0.938,0.163
		c-0.837,0.301-1.45,0.992-1.807,1.885c-0.078,0.184-0.145,0.363-0.195,0.559c-0.05,0.194-0.095,0.39-0.123,0.591
		c-0.128,0.943-0.033,1.991,0.34,3.041C36.579,127.397,36.88,127.961,37.243,128.453L37.243,128.453z M37.243,128.453"/>
	<path fill="#D3B68C" d="M41.215,131.648c0-0.018-0.011-0.033-0.017-0.056c-0.028-0.29-0.268-0.518-0.569-0.518
		c-0.295,0-0.536,0.229-0.569,0.523c0,0.018-0.011,0.033-0.011,0.056c0,0.319,0.262,0.581,0.58,0.581
		C40.953,132.234,41.215,131.973,41.215,131.648L41.215,131.648z M41.215,131.648"/>
	<path fill="#D3B68C" d="M37.923,133.015c0.229,0.223,0.597,0.223,0.82,0c0.229-0.229,0.229-0.597,0-0.819
		c-0.017-0.023-0.045-0.029-0.067-0.044c-0.223-0.174-0.547-0.163-0.753,0.044c-0.207,0.205-0.217,0.524-0.044,0.752
		C37.896,132.971,37.907,132.992,37.923,133.015L37.923,133.015z M37.923,133.015"/>
	<path fill="#D3B68C" d="M37.327,134.332c-0.296,0.033-0.524,0.267-0.524,0.568c0,0.302,0.229,0.542,0.524,0.57
		c0.017,0,0.033,0.011,0.056,0.011c0.318,0,0.58-0.257,0.58-0.582c0-0.316-0.262-0.58-0.58-0.58
		C37.36,134.32,37.343,134.332,37.327,134.332L37.327,134.332z M37.327,134.332"/>
	<path fill="#D3B68C" d="M38.677,137.651c0.022-0.012,0.05-0.023,0.067-0.038c0.229-0.229,0.229-0.597,0-0.82
		c-0.223-0.23-0.591-0.23-0.82,0c-0.017,0.016-0.028,0.044-0.044,0.06c-0.167,0.23-0.162,0.553,0.044,0.76
		C38.13,137.817,38.454,137.824,38.677,137.651L38.677,137.651z M38.677,137.651"/>
	<path fill="#D3B68C" d="M40.054,138.154c0,0.021,0.011,0.033,0.011,0.056c0.028,0.29,0.268,0.524,0.569,0.524
		s0.541-0.234,0.569-0.524c0-0.023,0.011-0.041,0.011-0.056c0-0.324-0.257-0.582-0.58-0.582
		C40.311,137.572,40.054,137.83,40.054,138.154L40.054,138.154z M40.054,138.154"/>
	<path fill="#D3B68C" d="M42.587,137.651c0.229,0.173,0.547,0.167,0.753-0.038c0.206-0.208,0.217-0.53,0.044-0.76
		c-0.017-0.016-0.022-0.044-0.044-0.06c-0.223-0.23-0.597-0.23-0.82,0c-0.229,0.223-0.229,0.591,0,0.82
		C42.537,137.628,42.565,137.639,42.587,137.651L42.587,137.651z M42.587,137.651"/>
	<path fill="#D3B68C" d="M43.943,135.47c0.29-0.028,0.519-0.268,0.519-0.57c0-0.301-0.229-0.541-0.524-0.568
		c-0.017,0-0.033-0.011-0.056-0.011c-0.318,0-0.58,0.263-0.58,0.58c0,0.324,0.262,0.582,0.58,0.582
		C43.904,135.481,43.92,135.47,43.943,135.47L43.943,135.47z M43.943,135.47"/>
	<path fill="#D3B68C" d="M43.34,133.015c0.022-0.023,0.028-0.044,0.044-0.067c0.173-0.229,0.162-0.547-0.044-0.752
		c-0.207-0.207-0.524-0.219-0.753-0.044c-0.022,0.015-0.05,0.021-0.067,0.044c-0.229,0.223-0.229,0.591,0,0.819
		C42.749,133.238,43.117,133.238,43.34,133.015L43.34,133.015z M43.34,133.015"/>
</g>
<g>
</g>
<g>
</g>
<g>
</g>
<g>
</g>
<g>
</g>
<g>
</g>
</svg>
