<?xml version="1.0" encoding="utf-8"?>
<!-- Generator: Adobe Illustrator 16.0.0, SVG Export Plug-In . SVG Version: 6.00 Build 0)  -->
<!DOCTYPE svg PUBLIC "-//W3C//DTD SVG 1.1//EN" "http://www.w3.org/Graphics/SVG/1.1/DTD/svg11.dtd">
<svg version="1.1" id="圖層_1" xmlns="http://www.w3.org/2000/svg" xmlns:xlink="http://www.w3.org/1999/xlink" x="0px" y="0px"
	 width="307.143px" height="110px" viewBox="0 0 307.143 110" enable-background="new 0 0 307.143 110" xml:space="preserve">
<path fill="#BEBEBE" d="M303.643,87.743c-108.087-20.805-176.738,6.015-296.782,0C77.214,110.298,234.971,82.918,303.643,87.743
	L303.643,87.743z M303.643,87.743"/>
<circle fill="#893448" cx="39.72" cy="45.907" r="27.408"/>
<rect x="22.854" y="29.952" fill="none" width="33.733" height="32.617"/>
<g>
	<path fill="#D3B68C" d="M40.764,62.54c2.023-0.033,3.912-0.162,5.604-0.371l0.277-7.405c-1.702,0.244-3.672,0.406-5.881,0.445
		V62.54L40.764,62.54z M40.764,62.54"/>
	<path fill="#D3B68C" d="M40.764,49.92c2.286-0.039,4.321-0.207,6.079-0.458l0.401-10.742c-1.981,0.165-4.191,0.264-6.48,0.288
		V49.92z M40.764,49.92"/>
	<path fill="#D3B68C" d="M56.562,37.456c0-1.128-1.746-1.916-5.493-2.481c-0.2-0.03-0.404-0.06-0.612-0.088
		c-0.075-0.493-0.307-0.798-0.485-1.032c-0.154-0.201-0.223-0.292-0.223-0.556c0-0.263,0.069-0.354,0.223-0.555
		c0.215-0.282,0.51-0.668,0.51-1.364c0-0.452-0.492-0.818-1.1-0.818c-0.607,0-1.1,0.367-1.1,0.818c0,0.263-0.07,0.354-0.223,0.554
		c-0.215,0.283-0.51,0.669-0.51,1.365c0,0.656,0.261,1.036,0.472,1.313c-2.176-0.2-4.631-0.318-7.203-0.344
		c-0.076-0.487-0.307-0.791-0.483-1.023c-0.153-0.2-0.224-0.291-0.224-0.555c0-0.263,0.07-0.354,0.224-0.555
		c0.215-0.282,0.51-0.667,0.51-1.365c0-0.452-0.493-0.818-1.099-0.818c-0.607,0-1.1,0.366-1.1,0.818c0,0.264-0.07,0.355-0.224,0.556
		c-0.215,0.282-0.51,0.668-0.51,1.364c0,0.697,0.295,1.083,0.51,1.364c0.064,0.083,0.113,0.148,0.148,0.214
		c-2.667,0.029-5.21,0.157-7.441,0.371c-0.102-0.352-0.285-0.593-0.432-0.785c-0.153-0.201-0.223-0.292-0.223-0.556
		c0-0.263,0.07-0.354,0.223-0.555c0.215-0.282,0.51-0.668,0.51-1.364c0-0.452-0.492-0.818-1.1-0.818
		c-0.607,0-1.099,0.367-1.099,0.818c0,0.263-0.07,0.354-0.223,0.554c-0.215,0.283-0.511,0.669-0.511,1.365
		c0,0.697,0.296,1.083,0.511,1.365c0.068,0.09,0.12,0.158,0.157,0.229c-0.194,0.027-0.384,0.055-0.571,0.083
		c-3.747,0.565-5.491,1.354-5.491,2.481c0,0.02,0.001,0.04,0.002,0.059c-0.002,0.035-0.004,0.07,0,0.105l1.934,21.085
		c0.037,1.281,2.229,2.376,5.729,3.066l-0.273-7.469c-3.196-0.729-4.942-1.77-4.942-2.645l-0.373-5.295
		c0.112,0.885,1.915,1.915,5.121,2.64l-0.386-10.546c-0.056-0.007-0.115-0.013-0.171-0.021c-2.609-0.346-3.827-0.749-4.279-0.979
		c0.377-0.19,1.285-0.502,3.087-0.8c-0.033,0.142-0.054,0.301-0.054,0.483c0,0.452,0.493,0.819,1.101,0.819s1.099-0.367,1.099-0.819
		c0-0.264,0.07-0.355,0.223-0.556c0.061-0.079,0.126-0.166,0.191-0.266c2.106-0.221,4.549-0.36,7.112-0.402
		c-0.054,0.174-0.089,0.375-0.089,0.614c0,0.453,0.493,0.819,1.1,0.819c0.608,0,1.1-0.366,1.1-0.819c0-0.264,0.07-0.354,0.223-0.555
		c0.018-0.022,0.037-0.047,0.055-0.072c2.622,0.017,5.152,0.134,7.365,0.337c-0.116,0.229-0.205,0.516-0.205,0.899
		c0,0.452,0.492,0.819,1.099,0.819c0.608,0,1.1-0.367,1.1-0.819c0-0.264,0.07-0.355,0.223-0.556
		c0.022-0.028,0.045-0.058,0.067-0.088c2.529,0.342,3.717,0.737,4.163,0.961c-0.454,0.23-1.669,0.633-4.28,0.979
		c-0.153,0.021-0.311,0.04-0.468,0.059l-0.395,10.576c3.399-0.727,5.311-1.795,5.426-2.707l-0.372,5.295
		c0,0.902-1.86,1.981-5.253,2.713l-0.277,7.461c3.683-0.687,6.005-1.808,6.044-3.126l1.933-21.086c0.003-0.035,0.002-0.07,0-0.104
		C56.56,37.496,56.562,37.476,56.562,37.456L56.562,37.456z M56.562,37.456"/>
	<path fill="#D3B68C" d="M32.757,62.129c1.741,0.228,3.7,0.371,5.806,0.409v-7.332c-2.299-0.046-4.335-0.224-6.077-0.49
		L32.757,62.129z M32.757,62.129"/>
	<path fill="#D3B68C" d="M32.292,49.417c1.798,0.273,3.898,0.457,6.271,0.502V39.006c-2.364-0.027-4.642-0.134-6.665-0.313
		L32.292,49.417z M32.292,49.417"/>
</g>
<g>
	<path fill="#8E354A" d="M98.81,41.316c0.69,0.369,1.381,0.783,2.026,1.244c0.829,0.737,1.29,1.243,1.29,1.474
		c0,0.276-0.23,0.599-0.691,1.059c-0.46,0.691-0.875,1.243-1.197,1.704c-0.506,0.736-0.921,1.381-1.243,1.934l-0.415-0.092
		c-1.335-3.224-3.085-6.125-5.296-8.704l0.46-0.46C95.77,39.981,97.474,40.58,98.81,41.316z M103.875,46.474
		c-0.507,3.454-1.059,6.678-1.704,9.625c-1.013,5.111-1.704,7.644-2.026,7.644c-0.645,0-0.967-0.138-1.013-0.368
		c-0.276-0.184-0.553-0.46-0.829-0.921c-0.46-0.507-1.059-1.244-1.796-2.165c-0.783-0.875-1.335-1.381-1.612-1.474l0.23-0.691
		c0.645-0.046,1.105-0.092,1.381-0.184c0.184,0,1.013-1.105,2.44-3.315c1.105-1.796,2.625-4.651,4.559-8.52L103.875,46.474z
		 M101.941,33.166c0.691,0.276,1.381,0.553,2.026,0.921c0.875,0.553,1.335,0.967,1.335,1.151c0,0.23-0.23,0.553-0.645,0.967
		c-0.46,0.645-0.829,1.197-1.151,1.612c-0.46,0.645-0.829,1.243-1.105,1.75l-0.415-0.046c-1.381-2.763-3.177-5.25-5.434-7.46
		l0.23-0.276C98.855,32.152,100.559,32.613,101.941,33.166z M106.361,52.737c-0.229-1.013-0.552-1.888-0.967-2.717l0.23-0.276
		c0.185,0.23,0.69,0.46,1.428,0.645l0.092-0.138c2.671-0.184,5.618-0.599,8.842-1.244c4.928-0.736,7.69-1.197,8.289-1.381
		c0.368,0,0.829,0.276,1.474,0.783c1.014,0.737,1.75,1.244,2.257,1.612c0.553,0.276,0.829,0.507,0.829,0.783
		c0,0.46-0.185,0.967-0.553,1.474c-0.415,1.289-0.875,2.763-1.382,4.421c-0.092,0.368-0.185,0.645-0.23,0.921
		c2.257-0.184,3.546-0.276,3.822-0.322c0.322,0.138,0.507,0.737,0.553,1.842c0.092,0.737,0.185,1.382,0.368,1.888
		c0,0.276-0.046,0.415-0.138,0.507c-0.414-0.046-0.875-0.138-1.382-0.23c-1.565,0.046-3.178,0.092-4.835,0.138
		c-3.27,0.092-5.986,0.23-8.151,0.322c-2.532,0.184-5.296,0.369-8.243,0.645c-2.44,0.276-3.776,0.415-4.052,0.415
		c-0.23,0-0.369-0.322-0.46-0.967c-0.184-0.783-0.369-1.382-0.507-1.796c-0.184-0.415-0.276-0.737-0.276-1.013
		c0.185-0.046,1.06-0.092,2.533-0.092c0.507,0,1.013,0,1.565-0.046C107.099,56.882,106.73,54.81,106.361,52.737z M122.94,32.198
		c0.322,0.276,0.645,0.553,1.013,0.829c1.289,1.059,1.935,1.658,1.935,1.75c0,0.368-0.139,0.875-0.322,1.566
		c-0.461,1.75-0.783,3.27-0.968,4.559c-0.092,0.921-0.23,2.026-0.322,3.27c0,1.612-0.184,2.395-0.46,2.395
		c-0.369,0-1.014-0.046-1.889-0.23v0.138c-1.197,0.092-3.315,0.323-6.309,0.737c-1.935,0.322-3.822,0.691-5.618,1.151
		c-0.185,0-0.369-0.092-0.553-0.322c-0.276-0.369-0.461-0.783-0.645-1.335c-0.23-0.645-0.461-1.197-0.737-1.75
		c0-0.184,0.046-0.276,0.23-0.369c0.276,0.092,0.599,0.138,1.06,0.138h0.275c-0.184-2.671-0.414-5.295-0.645-7.875
		c-0.229-0.967-0.553-1.842-0.967-2.625l0.23-0.23c0.184,0.184,0.46,0.322,0.875,0.46c0.599-0.138,1.381-0.276,2.303-0.46
		c1.013-0.138,2.256-0.369,3.775-0.691c3.776-0.737,5.803-1.197,6.033-1.381c0.046-0.092,0.138-0.138,0.276-0.23
		c0.138-0.092,0.276-0.23,0.414-0.322C121.973,31.37,122.295,31.646,122.94,32.198z M110.046,53.152v0.552
		c0.185,1.658,0.322,3.316,0.368,5.066c0.829-0.046,1.565-0.092,2.211-0.138c-0.047-2.21-0.139-4.191-0.322-5.94
		C111.474,52.875,110.736,53.06,110.046,53.152z M112.532,37.817c0.093,1.658,0.139,3.361,0.185,5.111
		c0.736-1.197,1.197-2.026,1.289-2.487c0.461-1.381,0.737-2.533,0.737-3.454c0-0.138-0.046-0.276-0.046-0.46
		c-0.875,0.184-1.566,0.276-2.119,0.368C112.532,37.172,112.532,37.494,112.532,37.817z M116.171,36.85
		c0.368,0.23,0.829,0.46,1.474,0.691c0.368,0.092,0.599,0.23,0.599,0.368s-0.093,0.276-0.23,0.415
		c-0.092,0.138-0.276,0.415-0.461,0.783c-0.046,0.092-0.046,0.138-0.046,0.138c0.368,0.092,0.737,0.138,1.06,0.23
		c0.322,0.092,0.645,0.184,1.013,0.276c0.415,0.184,0.645,0.276,0.645,0.322c0,0.184-0.138,0.368-0.414,0.645
		c-0.322,0.46-0.599,0.829-0.783,1.105c-0.276,0.46-0.553,0.829-0.736,1.151l-0.276-0.046c-0.414-0.829-0.875-1.565-1.428-2.256
		c-0.23,0.276-0.46,0.599-0.69,0.875c-1.151,1.29-1.935,1.934-2.303,2.026c-0.276,0.138-0.507,0.184-0.737,0.184h-0.092v0.691
		c0.829-0.092,1.658-0.23,2.487-0.415c1.888-0.276,3.684-0.599,5.342-0.875c0-0.645,0.046-1.335,0.092-2.165
		c0.092-2.487,0.138-3.822,0.138-4.006c-0.275-0.645-0.645-1.013-1.013-1.151c-0.368,0-1.888,0.23-4.467,0.599
		C115.572,36.573,115.849,36.711,116.171,36.85z M115.756,52c-0.092,1.888-0.138,4.052-0.23,6.447c0.737,0,1.336-0.046,1.889-0.138
		h0.185c0-2.487,0.092-4.744,0.229-6.678C117.092,51.77,116.4,51.908,115.756,52z M123.032,56.467c0.461-2.579,0.69-4.237,0.69-5.02
		c-0.322-0.276-0.599-0.506-0.828-0.737c-0.553,0.092-1.06,0.184-1.566,0.276c-0.276,2.072-0.553,4.467-0.875,7.138
		c0.737,0,1.474-0.046,2.257-0.138C122.802,57.619,122.895,57.112,123.032,56.467z"/>
	<path fill="#8E354A" d="M155.399,49.283c0.415,0.369,0.829,0.737,1.243,1.06c0.369,0.276,0.553,0.506,0.646,0.783
		c0,0.184-0.276,0.506-0.737,0.967c-0.46,0.783-1.059,1.75-1.842,2.855c-1.243,1.796-2.533,3.177-3.914,4.19
		c-2.257,2.026-4.743,2.994-7.415,2.994c-0.092-0.046-0.138-0.092-0.229-0.138c1.565-0.737,3.224-2.026,4.974-3.776
		c2.164-2.671,3.361-4.605,3.592-5.71c-0.968,0.415-1.935,0.783-2.855,1.059c-1.289,0.599-2.118,0.875-2.579,0.875
		c-0.184,0-0.414-0.23-0.69-0.783c-0.322-0.276-0.599-0.645-0.829-1.013c-0.368-0.276-0.645-0.645-0.783-1.013l0.139-0.368
		c0.276,0,0.553,0,0.921-0.092c2.763-0.276,5.48-0.921,8.151-1.934c0.092-0.368,0.23-0.783,0.368-1.151l0.368-0.092
		C154.479,48.546,154.985,48.961,155.399,49.283z M158.899,46.106c0.921,0.276,2.257,0.553,3.914,0.875
		c0.23,0.138,0.369,0.415,0.369,0.783c-0.276,0.46-0.507,1.105-0.599,2.026c0.875,0.69,1.75,1.335,2.671,1.888
		c1.979-1.934,3.638-4.191,4.974-6.724h0.275c0.553,0.875,1.06,1.566,1.521,2.118c0.368,0.46,0.736,0.875,1.104,1.244
		c0.185,0.276,0.322,0.553,0.322,0.875c0,0.46-0.368,0.783-1.104,0.967c-0.645,0.415-1.612,0.829-2.81,1.244
		c-1.289,0.46-2.303,0.829-3.039,1.059c1.197,0.829,2.395,1.52,3.546,2.165c3.132,1.75,6.309,3.131,9.486,4.145
		c0,0.415-0.138,0.599-0.368,0.599c-1.565,0.368-3.315,0.737-5.25,1.151c-1.197,0.276-2.118,0.506-2.809,0.69
		c-0.553,0.185-1.014,0.276-1.382,0.276c-0.322,0-0.829-0.645-1.565-2.026c-0.829-1.151-1.98-2.717-3.454-4.651
		c-0.829-0.829-1.565-1.52-2.303-2.165c-0.046,0.737-0.092,1.52-0.138,2.303c-0.093,1.474-0.185,2.993-0.23,4.651
		c0,3.04-0.185,4.744-0.461,5.296c0,0.322-0.138,0.507-0.322,0.507c-0.645-0.322-2.164-1.29-4.559-2.947
		c-1.382-0.921-2.764-1.75-4.145-2.487c-0.23-0.092-0.323-0.322-0.323-0.691c0.553,0.138,1.29,0.276,2.119,0.415
		c1.657,0.138,2.854,0.184,3.5,0.184c0.368,0,0.599-1.934,0.599-5.895c-0.139-2.487-0.415-4.467-0.783-5.848
		c-0.23-0.921-0.414-1.566-0.553-1.842c-0.276,0.046-0.553,0.092-0.736,0.092c-2.119,0.368-3.776,0.69-5.02,1.059
		c-0.369-0.369-1.014-1.796-2.026-4.375c-0.921-2.625-1.428-4.145-1.521-4.605c0.23-0.184,0.829-0.645,1.843-1.381
		c0.921-0.829,1.428-1.336,1.565-1.52c1.565,0,3.685-0.368,6.447-1.105c6.493-1.382,9.9-2.303,10.177-2.671
		c0.093,0.138,0.783,0.645,2.072,1.474c1.566,0.875,2.487,1.381,2.672,1.474c-0.093,0.368-0.783,2.302-2.026,5.802
		c-1.244,3.131-1.98,4.835-2.211,5.158c-0.322,0-1.013,0-2.026-0.092h-2.993C162.813,45.691,161.34,45.83,158.899,46.106z
		 M158.439,36.988c-3.454,0.783-5.48,1.29-6.125,1.566c0,0.322,0.092,0.737,0.184,1.289c0.968-0.138,2.441-0.414,4.421-0.875
		c4.145-0.69,6.586-1.151,7.276-1.381c0.276,0,0.507,0.415,0.69,1.243c0.185,0.737,0.323,1.335,0.415,1.796l-0.276,0.322
		c-0.368-0.092-0.967-0.184-1.796-0.184c-1.796,0.138-4.053,0.46-6.724,0.921c-1.382,0.276-2.533,0.506-3.408,0.691
		c0.093,0.552,0.23,1.059,0.369,1.52c1.104,0,2.671-0.138,4.697-0.46c1.934-0.185,4.328-0.507,7.138-0.967
		c0.184-0.415,0.46-1.29,0.875-2.671c0.368-1.243,0.553-2.21,0.553-2.901c-0.139-0.322-0.276-0.552-0.461-0.69
		C163.965,36.205,161.34,36.481,158.439,36.988z M161.801,25.981c0.461,0.829,0.967,1.52,1.428,2.072
		c0.368,0.46,0.69,0.829,1.059,1.197c0.185,0.23,0.322,0.507,0.322,0.829c0,0.46-0.46,0.783-1.335,0.967
		c-0.829,0.414-1.98,0.829-3.546,1.243c-3.592,1.105-5.618,1.612-6.079,1.612c-0.368-0.046-0.553-0.184-0.553-0.46
		c3.408-2.072,6.218-4.559,8.428-7.46H161.801z"/>
	<path fill="#8E354A" d="M190.301,48.915c-0.369-0.046-0.599-0.23-0.646-0.553c3.639-1.934,7.093-4.651,10.315-8.243
		c2.579-2.763,4.375-5.158,5.296-7.184c1.197-1.842,1.843-3.177,1.935-4.052c0.046-0.737,0.092-1.29,0.092-1.658l0.461-0.185
		c0.368,0.645,1.289,1.658,2.855,3.04c0.275,0.369,0.552,0.599,0.828,0.783c0.23,0.276,0.369,0.553,0.369,0.829
		c0,0.184-0.139,0.415-0.369,0.599c-0.229,0.276-0.553,0.599-0.967,0.967c2.763,2.072,5.48,3.868,8.197,5.342
		c3.546,2.026,7.092,3.638,10.684,4.789c0,0.461-0.138,0.645-0.368,0.645c-1.658,0.368-3.454,0.737-5.388,1.151
		c-1.197,0.322-2.165,0.552-2.901,0.737c-0.553,0.184-1.014,0.23-1.428,0.23c-0.415,0-1.06-0.691-1.935-2.165
		c-1.059-1.197-2.486-2.901-4.328-5.02c-1.566-1.335-3.04-2.44-4.421-3.361c-0.046,0.046-0.046,0.046-0.046,0.046
		c-0.691,0.921-1.428,1.842-2.257,2.855c-1.612,1.934-3.132,3.5-4.605,4.79c0.737,0.23,1.428,0.415,2.165,0.506
		c0.921,0.184,1.381,0.553,1.381,1.059c-0.092,0.369-0.276,1.151-0.553,2.349c-0.229,1.612-0.46,3.04-0.69,4.237
		c-0.23,1.566-0.553,2.855-1.013,3.96c-1.014,2.395-2.349,3.96-4.053,4.651c-1.105,0.552-2.303,0.829-3.639,0.921l-0.46-0.322
		c3.776-2.257,5.71-6.171,5.71-11.743c0-1.474-0.184-2.901-0.506-4.283C196.518,47.211,193.294,48.639,190.301,48.915z
		 M213.142,43.021c1.014,0.276,1.889,0.46,2.625,0.506c0.599,0.092,0.921,0.276,0.921,0.599c-0.276,0.369-0.553,1.934-0.875,4.697
		c-0.184,3.915-0.276,8.612-0.276,14.138c0,0.553-0.184,0.921-0.553,1.059c-0.736,0-1.289-0.138-1.657-0.322
		c-0.599-0.368-1.197-0.645-1.796-0.921c-1.197-0.645-1.98-1.013-2.303-1.151V61.21c0.645,0,1.197-0.368,1.657-1.105
		c0.646-1.428,1.014-5.572,1.014-12.48c0-3.131-0.322-4.743-0.921-4.835l0.322-0.368C211.853,42.698,212.451,42.882,213.142,43.021z
		"/>
	<path fill="#8E354A" d="M242.977,54.487c-0.368,1.197-0.736,2.302-1.104,3.27c-0.415,1.013-0.875,1.934-1.428,2.671
		c-0.185,0.415-0.415,0.599-0.783,0.599c-0.276,0-0.553-0.184-0.783-0.553c-0.276-0.276-0.645-0.737-1.013-1.381
		c-0.461-0.599-0.875-0.921-1.197-1.013v-0.415c1.013-0.138,1.98-0.599,2.993-1.427c1.382-0.829,2.395-1.52,3.039-1.98
		C242.793,54.349,242.885,54.395,242.977,54.487z M248.549,31.139c0.507,0.553,0.921,1.013,1.29,1.382
		c0.276,0.322,0.46,0.599,0.46,0.783c0,0.368-0.184,0.691-0.46,0.967c-0.276,0.369-0.737,0.875-1.29,1.566
		c-0.967,1.29-2.256,2.993-3.914,5.112c0.553,0,1.888-0.184,3.914-0.599c0.599-0.921,1.243-1.888,1.98-2.809
		c0.553-0.691,0.921-1.474,1.013-2.303l0.322-0.092c0.185,0.276,0.415,0.599,0.691,0.875c0.184,0.23,0.599,0.599,1.151,1.151
		c0.645,0.46,0.967,0.783,0.967,0.967c0,0.276-0.092,0.552-0.23,0.737c-1.657,1.888-2.993,3.5-4.099,4.789l0.046-0.046
		c0.968,0.737,1.98,1.796,3.086,3.178c0.322,0.552,0.553,0.967,0.736,1.289c0.23,0.46,0.369,0.829,0.369,1.059
		c0,0.276-0.185,0.553-0.507,0.737c-0.414,0.507-0.737,0.921-0.967,1.198c-0.415,0.46-0.829,0.921-1.197,1.381l-0.461-0.138
		c-0.046-0.645-0.092-1.52-0.185-2.579c-1.75,0.552-3.27,1.059-4.65,1.565c-2.026,0.875-3.454,1.428-4.237,1.658
		c-0.599,0.369-1.059,0.553-1.381,0.553c-0.276,0-0.553-0.599-0.783-1.842c-0.414-1.151-0.737-1.842-1.013-2.072
		c0-0.185,0.046-0.276,0.229-0.369c0.968,0,1.566-0.046,1.843-0.23c0.368,0,1.888-1.658,4.467-4.973
		c-0.276,0.092-0.553,0.184-0.829,0.23c-1.75,0.507-3.132,0.829-4.237,1.013c-0.229,0-0.46-0.645-0.736-1.98
		c-0.138-0.645-0.322-1.29-0.599-1.888c0-0.046,0-0.092,0.092-0.184c0.599,0,1.151,0,1.612-0.046
		c0.967-1.013,1.979-2.671,2.993-4.927c1.565-3.04,2.349-5.342,2.349-6.908c0.092-0.092,0.23-0.184,0.414-0.184
		C247.352,29.804,247.95,30.449,248.549,31.139z M248.457,53.474c-0.276,1.105-0.599,2.118-0.921,2.993
		c-0.368,0.967-0.783,1.796-1.243,2.441c-0.139,0.414-0.369,0.599-0.691,0.599c-0.276,0-0.506-0.138-0.736-0.507
		c-0.276-0.276-0.553-0.737-0.921-1.289c-0.461-0.553-0.829-0.875-1.105-0.967v-0.322c0.829-0.184,1.704-0.645,2.532-1.428
		c1.197-0.829,2.072-1.474,2.625-1.98C248.135,53.198,248.272,53.336,248.457,53.474z M250.529,45.323
		c-0.185-0.875-0.322-1.382-0.322-1.52c-2.026,2.395-3.224,3.868-3.592,4.421c0.368,0,1.796-0.322,4.282-1.059
		C250.806,46.521,250.667,45.922,250.529,45.323z M254.167,52.277c-0.368,1.197-0.736,2.256-1.151,3.177
		c-0.46,1.013-1.013,1.888-1.565,2.625c-0.185,0.369-0.414,0.553-0.736,0.553c-0.276,0-0.507-0.138-0.737-0.507
		c-0.23-0.276-0.553-0.69-0.921-1.289c-0.461-0.553-0.783-0.875-1.06-0.921v-0.368c0.921-0.184,1.889-0.691,2.855-1.52
		c1.382-0.875,2.349-1.566,2.947-2.119C253.891,52.046,254.029,52.185,254.167,52.277z M259.739,48.224
		c-1.428,1.842-3.178,2.855-5.25,3.04c-0.414,0-0.599-0.138-0.599-0.46c1.52-1.29,2.81-3.085,3.822-5.388
		c0.461-1.105,0.921-2.395,1.336-3.822c0.184-0.875,0.368-1.612,0.507-2.256c-0.323,0.184-0.553,0.276-0.737,0.368
		c-0.69,0.507-1.197,0.783-1.52,0.829c-0.553,0-0.875-0.322-0.967-1.013c-0.23-0.921-0.461-1.612-0.737-2.072
		c-0.23-0.415-0.46-0.737-0.69-0.967l0.23-0.507c0.184,0.138,0.46,0.184,0.782,0.184c3.362-0.552,6.217-1.243,8.565-1.98
		c1.197-0.276,2.487-0.691,3.822-1.244c0.921-0.506,1.52-0.783,1.75-0.783c0.092,0.092,0.507,0.507,1.243,1.29
		c0.875,0.875,1.843,1.704,2.855,2.533c0.645,0.46,1.014,0.783,1.014,1.059c0,0.23-0.185,0.46-0.553,0.691
		c-0.276,0.645-1.014,2.395-2.165,5.204c-0.645,1.566-1.197,2.855-1.657,3.869c-0.415,0.736-0.737,1.289-1.014,1.658
		c0.368,0.322,1.014,0.829,1.98,1.474c1.611,0.921,2.533,1.427,2.717,1.565c-0.092,0.323-0.736,2.072-1.98,5.204
		c-1.197,2.763-1.888,4.329-2.118,4.651c-0.368,0-1.104-0.046-2.21-0.138h-3.315c-0.369,0.092-1.612,0.23-3.822,0.415
		c-1.197,0.184-2.119,0.369-2.81,0.507c-0.368-0.276-1.013-1.612-2.026-3.96c-0.921-2.395-1.428-3.822-1.52-4.237
		c0.23-0.184,0.875-0.691,1.98-1.474c0.967-0.921,1.52-1.428,1.657-1.566c1.06,0,2.533-0.23,4.375-0.783
		c1.75-0.368,3.086-0.645,4.099-0.875c-0.414-0.415-0.875-0.921-1.382-1.566c-1.381-1.197-2.486-2.164-3.361-2.993
		C261.259,46.244,260.477,47.396,259.739,48.224z M263.239,53.382c-2.118,0.322-3.361,0.553-3.73,0.645
		c0.047,0.46,0.185,1.197,0.461,2.21c0.185,0.69,0.368,1.335,0.553,1.934c0.645,0,1.52-0.046,2.671-0.185
		c1.105-0.046,2.44-0.138,4.053-0.322c0.184-0.276,0.414-0.875,0.782-1.888c0.322-0.829,0.507-1.474,0.507-1.98
		c-0.185-0.322-0.322-0.553-0.507-0.737C266.601,53.06,264.989,53.198,263.239,53.382z M263.607,37.679
		c-0.276,0.092-0.506,0.184-0.736,0.276c0.184,0.184,0.414,0.322,0.645,0.46c0.599,0.23,0.921,0.552,0.921,0.921
		c0,0.322-0.46,1.335-1.382,3.04c-0.229,0.552-0.414,1.013-0.599,1.427c0.646,0.138,1.336,0.276,2.026,0.46
		c0.968,0.23,1.796,0.322,2.533,0.322c0.276,0,0.645-0.599,1.059-1.796c0.369-1.197,0.691-2.164,0.875-2.901
		c0.185-0.783,0.323-1.52,0.461-2.21c-0.507-0.553-1.013-1.013-1.52-1.382C267.476,36.297,266.049,36.757,263.607,37.679z"/>
</g>
</svg>
