<?xml version="1.0" encoding="utf-8"?>
<!-- Generator: Adobe Illustrator 16.0.0, SVG Export Plug-In . SVG Version: 6.00 Build 0)  -->
<!DOCTYPE svg PUBLIC "-//W3C//DTD SVG 1.1//EN" "http://www.w3.org/Graphics/SVG/1.1/DTD/svg11.dtd">
<svg version="1.1" id="圖層_1" xmlns="http://www.w3.org/2000/svg" xmlns:xlink="http://www.w3.org/1999/xlink" x="0px" y="0px"
	 width="307.143px" height="110px" viewBox="0 0 307.143 110" enable-background="new 0 0 307.143 110" xml:space="preserve">
<path fill="#BEBEBE" d="M303.643,87.743c-108.087-20.806-176.738,6.015-296.782,0C77.214,110.298,234.971,82.918,303.643,87.743
	L303.643,87.743z"/>
<circle fill="#893448" cx="39.72" cy="45.907" r="27.408"/>
<rect x="22.854" y="29.952" fill="none" width="33.733" height="32.616"/>
<path fill="#8E354A" d="M190.301,48.915c-0.369-0.046-0.599-0.23-0.646-0.553c3.64-1.934,7.094-4.651,10.315-8.243
	c2.579-2.763,4.375-5.158,5.296-7.184c1.197-1.842,1.843-3.177,1.936-4.052c0.046-0.737,0.092-1.29,0.092-1.658l0.461-0.185
	c0.368,0.645,1.289,1.658,2.854,3.04c0.275,0.369,0.553,0.599,0.828,0.783c0.23,0.276,0.369,0.553,0.369,0.829
	c0,0.184-0.139,0.415-0.369,0.599c-0.229,0.276-0.553,0.599-0.967,0.967c2.763,2.072,5.48,3.868,8.197,5.342
	c3.546,2.026,7.092,3.638,10.684,4.789c0,0.461-0.138,0.645-0.368,0.645c-1.657,0.368-3.454,0.737-5.388,1.151
	c-1.197,0.322-2.165,0.552-2.901,0.737c-0.553,0.184-1.014,0.23-1.428,0.23c-0.415,0-1.06-0.691-1.935-2.165
	c-1.06-1.197-2.486-2.901-4.328-5.02c-1.566-1.335-3.04-2.44-4.421-3.361c-0.046,0.046-0.046,0.046-0.046,0.046
	c-0.691,0.921-1.429,1.842-2.258,2.855c-1.611,1.934-3.132,3.5-4.604,4.79c0.737,0.23,1.428,0.415,2.165,0.506
	c0.921,0.184,1.381,0.553,1.381,1.059c-0.092,0.369-0.276,1.151-0.553,2.349c-0.229,1.612-0.46,3.04-0.69,4.237
	c-0.229,1.566-0.553,2.854-1.013,3.96c-1.014,2.395-2.349,3.96-4.053,4.65c-1.105,0.553-2.304,0.83-3.64,0.922l-0.46-0.322
	c3.776-2.258,5.71-6.171,5.71-11.743c0-1.474-0.184-2.901-0.506-4.283C196.518,47.211,193.294,48.639,190.301,48.915z
	 M213.142,43.021c1.015,0.276,1.89,0.46,2.625,0.506c0.6,0.092,0.921,0.276,0.921,0.599c-0.275,0.369-0.553,1.934-0.875,4.697
	c-0.184,3.915-0.275,8.612-0.275,14.138c0,0.553-0.185,0.921-0.554,1.059c-0.735,0-1.289-0.138-1.656-0.321
	c-0.6-0.368-1.197-0.646-1.796-0.921c-1.197-0.646-1.98-1.014-2.304-1.151V61.21c0.646,0,1.197-0.368,1.657-1.104
	c0.646-1.429,1.014-5.572,1.014-12.48c0-3.131-0.321-4.743-0.921-4.835l0.322-0.368C211.853,42.698,212.451,42.882,213.142,43.021z"
	/>
<path fill="#8E354A" d="M242.977,54.487c-0.368,1.197-0.735,2.302-1.104,3.27c-0.415,1.013-0.875,1.935-1.429,2.671
	c-0.185,0.415-0.414,0.6-0.782,0.6c-0.276,0-0.554-0.185-0.783-0.553c-0.276-0.276-0.646-0.738-1.013-1.382
	c-0.462-0.599-0.875-0.921-1.197-1.013v-0.415c1.013-0.138,1.979-0.599,2.993-1.427c1.382-0.829,2.395-1.521,3.039-1.98
	C242.793,54.349,242.885,54.395,242.977,54.487z M248.549,31.139c0.507,0.553,0.921,1.013,1.29,1.382
	c0.276,0.322,0.46,0.599,0.46,0.783c0,0.368-0.184,0.691-0.46,0.967c-0.276,0.369-0.737,0.875-1.29,1.566
	c-0.967,1.29-2.256,2.993-3.914,5.112c0.553,0,1.888-0.184,3.914-0.599c0.599-0.921,1.243-1.888,1.979-2.809
	c0.554-0.691,0.922-1.474,1.014-2.303l0.322-0.092c0.185,0.276,0.414,0.599,0.69,0.875c0.185,0.23,0.599,0.599,1.151,1.151
	c0.645,0.46,0.967,0.783,0.967,0.967c0,0.276-0.092,0.552-0.23,0.737c-1.656,1.888-2.992,3.5-4.099,4.789l0.046-0.046
	c0.968,0.737,1.98,1.796,3.086,3.178c0.322,0.552,0.553,0.967,0.736,1.289c0.229,0.46,0.369,0.829,0.369,1.059
	c0,0.276-0.186,0.553-0.507,0.737c-0.414,0.507-0.737,0.921-0.968,1.198c-0.415,0.46-0.829,0.921-1.196,1.381l-0.461-0.138
	c-0.047-0.646-0.093-1.521-0.186-2.579c-1.75,0.552-3.27,1.059-4.649,1.565c-2.026,0.875-3.454,1.428-4.237,1.658
	c-0.6,0.369-1.06,0.553-1.381,0.553c-0.276,0-0.554-0.599-0.783-1.842c-0.414-1.151-0.737-1.842-1.013-2.072
	c0-0.185,0.046-0.276,0.229-0.369c0.968,0,1.566-0.046,1.843-0.23c0.368,0,1.889-1.658,4.468-4.973
	c-0.276,0.092-0.554,0.184-0.829,0.23c-1.75,0.507-3.133,0.829-4.237,1.013c-0.229,0-0.46-0.645-0.736-1.98
	c-0.138-0.645-0.321-1.29-0.599-1.888c0-0.046,0-0.092,0.092-0.184c0.599,0,1.151,0,1.612-0.046
	c0.967-1.013,1.979-2.671,2.993-4.927c1.564-3.04,2.349-5.342,2.349-6.908c0.092-0.092,0.23-0.184,0.414-0.184
	C247.352,29.804,247.95,30.449,248.549,31.139z M248.457,53.474c-0.276,1.105-0.6,2.118-0.921,2.993
	c-0.368,0.967-0.783,1.797-1.243,2.441c-0.14,0.414-0.369,0.599-0.691,0.599c-0.275,0-0.506-0.138-0.735-0.507
	c-0.276-0.275-0.554-0.736-0.922-1.289c-0.461-0.553-0.828-0.875-1.104-0.967v-0.322c0.829-0.184,1.704-0.645,2.532-1.428
	c1.196-0.829,2.071-1.474,2.625-1.98C248.135,53.198,248.272,53.336,248.457,53.474z M250.529,45.323
	c-0.185-0.875-0.321-1.382-0.321-1.521c-2.026,2.396-3.225,3.868-3.592,4.421c0.367,0,1.796-0.322,4.281-1.059
	C250.806,46.521,250.667,45.922,250.529,45.323z M254.167,52.277c-0.368,1.197-0.736,2.256-1.151,3.177
	c-0.46,1.013-1.013,1.888-1.564,2.625c-0.186,0.369-0.414,0.553-0.736,0.553c-0.276,0-0.507-0.138-0.737-0.507
	c-0.229-0.275-0.553-0.689-0.921-1.289c-0.461-0.553-0.783-0.875-1.06-0.921v-0.368c0.921-0.184,1.889-0.691,2.854-1.52
	c1.382-0.875,2.35-1.566,2.947-2.119C253.891,52.046,254.029,52.185,254.167,52.277z M259.74,48.224
	c-1.429,1.842-3.179,2.855-5.25,3.04c-0.414,0-0.6-0.138-0.6-0.46c1.521-1.29,2.811-3.085,3.822-5.388
	c0.461-1.105,0.921-2.395,1.336-3.822c0.184-0.875,0.368-1.612,0.507-2.256c-0.323,0.184-0.553,0.276-0.737,0.368
	c-0.689,0.507-1.196,0.783-1.52,0.829c-0.553,0-0.875-0.322-0.967-1.013c-0.23-0.921-0.461-1.612-0.737-2.072
	c-0.229-0.415-0.46-0.737-0.69-0.967l0.23-0.507c0.184,0.138,0.46,0.184,0.782,0.184c3.361-0.552,6.217-1.243,8.564-1.98
	c1.197-0.276,2.487-0.691,3.822-1.244c0.921-0.506,1.521-0.783,1.75-0.783c0.092,0.092,0.507,0.507,1.243,1.29
	c0.875,0.875,1.843,1.704,2.854,2.533c0.646,0.46,1.015,0.783,1.015,1.059c0,0.23-0.186,0.46-0.554,0.691
	c-0.275,0.645-1.014,2.395-2.164,5.204c-0.646,1.566-1.197,2.855-1.657,3.869c-0.415,0.736-0.737,1.289-1.015,1.658
	c0.368,0.322,1.015,0.829,1.98,1.474c1.611,0.921,2.533,1.427,2.717,1.565c-0.092,0.323-0.736,2.072-1.979,5.204
	c-1.197,2.763-1.889,4.329-2.118,4.651c-0.368,0-1.104-0.047-2.21-0.139h-3.315c-0.369,0.092-1.612,0.23-3.822,0.415
	c-1.196,0.185-2.118,0.369-2.81,0.507c-0.368-0.275-1.013-1.611-2.026-3.96c-0.921-2.395-1.428-3.822-1.52-4.237
	c0.229-0.184,0.875-0.691,1.979-1.474c0.968-0.921,1.521-1.428,1.657-1.566c1.061,0,2.533-0.23,4.375-0.783
	c1.75-0.368,3.086-0.646,4.1-0.875c-0.414-0.415-0.875-0.921-1.383-1.566c-1.381-1.197-2.485-2.164-3.36-2.993
	C261.259,46.244,260.477,47.396,259.74,48.224z M263.24,53.382c-2.118,0.322-3.361,0.553-3.73,0.645
	c0.047,0.46,0.185,1.197,0.461,2.209c0.186,0.69,0.368,1.336,0.553,1.935c0.646,0,1.521-0.046,2.671-0.185
	c1.105-0.047,2.44-0.139,4.054-0.322c0.184-0.275,0.414-0.875,0.782-1.889c0.321-0.828,0.507-1.474,0.507-1.979
	c-0.186-0.322-0.322-0.553-0.507-0.737C266.601,53.06,264.99,53.198,263.24,53.382z M263.607,37.679
	c-0.275,0.092-0.506,0.184-0.735,0.276c0.184,0.184,0.414,0.322,0.645,0.46c0.6,0.23,0.921,0.552,0.921,0.921
	c0,0.322-0.46,1.335-1.382,3.04c-0.229,0.552-0.414,1.013-0.599,1.427c0.646,0.138,1.336,0.276,2.025,0.46
	c0.969,0.23,1.796,0.322,2.533,0.322c0.276,0,0.646-0.599,1.06-1.796c0.368-1.197,0.69-2.164,0.875-2.901
	c0.185-0.783,0.322-1.52,0.461-2.21c-0.508-0.553-1.014-1.013-1.521-1.382C267.476,36.297,266.049,36.757,263.607,37.679z"/>
<g>
	<path fill="#D3B68C" d="M37.173,38.569h5.393c-1.207-4.17-0.554-7.826-0.009-9.744h-5.376
		C37.726,30.743,38.381,34.399,37.173,38.569L37.173,38.569z"/>
	<path fill="#D3B68C" d="M36.026,32.354l-2.05-1.397c-1.865-1.274-4.302-1.346-6.24-0.183L26.76,31.36
		c-0.335,0.202-0.137,0.718,0.247,0.641c2.688-0.538,5.456,0.299,7.396,2.239l1.566,1.566
		C36.118,34.555,36.115,33.387,36.026,32.354L36.026,32.354z"/>
	<path fill="#D3B68C" d="M42.576,40.588h-5.415c0.546,1.982,1.235,5.84,0.01,10.098h5.396C41.34,46.428,42.03,42.57,42.576,40.588
		L42.576,40.588z"/>
	<path fill="#D3B68C" d="M42.555,52.705h-5.372c0.545,1.91,1.196,5.547-0.01,9.707h5.393C41.359,58.252,42.011,54.615,42.555,52.705
		L42.555,52.705z"/>
	<path fill="#D3B68C" d="M46.548,41.589h5.195c-1.065-3.479-0.52-6.538-0.007-8.254h-5.184
		C47.066,35.051,47.611,38.109,46.548,41.589L46.548,41.589z"/>
	<path fill="#D3B68C" d="M51.758,43.607h-5.226c0.518,1.776,1.098,5.001,0.014,8.563h5.198
		C50.66,48.608,51.241,45.384,51.758,43.607L51.758,43.607z"/>
	<path fill="#D3B68C" d="M51.735,54.189h-5.18c0.513,1.709,1.055,4.75-0.008,8.223h5.195C50.68,58.939,51.222,55.898,51.735,54.189
		L51.735,54.189z"/>
	<path fill="#D3B68C" d="M30.709,40.588H25.5c0.547,1.982,1.235,5.84,0.011,10.098h5.188C29.473,46.428,30.163,42.57,30.709,40.588
		L30.709,40.588z"/>
	<path fill="#D3B68C" d="M30.688,52.705h-5.165c0.544,1.91,1.195,5.547-0.011,9.707h5.187
		C29.492,58.252,30.143,54.615,30.688,52.705L30.688,52.705z"/>
</g>
<g>
	<path fill="#8E354A" d="M102.082,36.978c-0.916-2.876-2.027-5.442-3.334-7.698l0.343-0.343c1.863,0.49,3.383,1.145,4.56,1.961
		c0.653,0.36,1.258,0.817,1.814,1.373c0.816,0.752,1.226,1.259,1.226,1.52c0,0.294-0.278,0.703-0.833,1.226
		c-0.262,0.36-0.523,0.736-0.784,1.128c1.569-0.522,3.17-1.03,4.805-1.52c0.326,0,0.556,0.131,0.687,0.392
		c0.032,0.229,0.163,0.883,0.392,1.961c0.196,0.621,0.424,1.079,0.687,1.373c1.503-3.17,2.615-6.57,3.334-10.198
		c0-0.425,0-0.833,0-1.226l0.54-0.147c0.196,0.36,0.751,0.948,1.667,1.765c0.784,0.621,1.569,1.209,2.354,1.765
		c0.522,0.392,0.784,0.768,0.784,1.127c0,0.131-0.392,0.67-1.177,1.618c-0.556,0.621-1.063,1.275-1.52,1.961
		c3.53-0.686,7.273-1.601,11.228-2.746c0.392,0,0.653,0.066,0.785,0.196c0.065,0.392,0.212,1.111,0.441,2.157
		c0.229,0.752,0.49,1.341,0.785,1.765l-0.245,0.392c-0.196,0-0.343,0-0.441,0c-4.25,0.262-9.414,1.112-15.493,2.55
		c-0.033-0.13-0.066-0.261-0.098-0.393c-0.556,0.622-1.079,1.21-1.569,1.765c-0.491,0.752-1.275,1.602-2.354,2.55
		c-0.752,0.621-1.324,0.998-1.716,1.127c-0.066,0-0.115-0.065-0.147-0.196c0.85,0.687,1.536,1.161,2.059,1.422
		c0.588,0.229,0.883,0.539,0.883,0.932c0,0.294-0.196,0.637-0.588,1.029c-0.294,0.49-0.687,1.602-1.177,3.334
		c-1.765,6.016-3.236,9.741-4.413,11.18c-0.066,0.392-0.393,0.588-0.981,0.588c-0.294-0.523-0.719-0.997-1.274-1.422
		c-0.556-0.49-1.112-0.996-1.667-1.52c-1.079-1.046-2.027-1.896-2.844-2.55c-0.425,0-0.654-0.261-0.687-0.784
		c-1.406,1.536-3.04,2.436-4.903,2.696c-0.327,0-0.491-0.13-0.491-0.392c1.929-1.798,3.53-4.332,4.805-7.601
		c0.653-1.601,1.209-3.366,1.667-5.295c0.424-1.961,0.735-3.53,0.932-4.707c-1.831,0.621-3.743,1.34-5.737,2.157
		c-0.523-1.569-0.98-3.007-1.373-4.315C95.856,38.384,98.879,37.73,102.082,36.978z M102.524,48.108
		c-1.046,2.876-2.108,5.034-3.187,6.472c-0.36,0.687-0.735,1.226-1.127,1.619c2.451,0.654,3.84,0.98,4.167,0.98
		c1.405,0,2.778-3.269,4.119-9.806c-0.066-0.13-0.262-0.261-0.588-0.393C105.187,46.98,104.06,47.356,102.524,48.108z
		 M103.259,40.263c0.196,0.164,0.424,0.311,0.687,0.441c0.588,0.262,0.883,0.572,0.883,0.932c0,0.262-0.278,1.112-0.834,2.55
		c0.425-0.13,0.915-0.261,1.471-0.393c1.079-0.359,1.65-0.539,1.716-0.539c0.359,0.262,0.801,0.507,1.324,0.735
		c0.065,0.131,0.114,0.196,0.147,0.196c-0.066-0.13-0.098-0.261-0.098-0.393c1.177-1.667,2.189-3.415,3.04-5.246l-0.196,0.196
		c-0.131,0-0.262,0-0.392,0C108.685,39.005,106.103,39.512,103.259,40.263z M117.919,45.803c-0.033,0.229-0.066,0.409-0.098,0.54
		c-0.098,1.438-0.164,3.285-0.196,5.541c-0.033,1.798-0.082,3.628-0.147,5.492c1.438-0.556,2.762-1.013,3.972-1.373
		c0,0.262-0.033,0.572-0.098,0.932c-0.033,0-0.196,0.213-0.49,0.638c-0.262,0.262-0.622,0.637-1.079,1.128
		c-0.622,0.686-1.292,1.291-2.01,1.813c-0.654,0.653-1.357,1.242-2.108,1.766c-0.883,0.62-1.455,1.013-1.716,1.177
		c-0.164,0.392-0.343,0.588-0.539,0.588c-0.327,0-0.605-0.409-0.833-1.226c-0.131-0.49-0.392-1.079-0.785-1.766
		c-0.36-0.882-0.719-1.453-1.079-1.716l0.245-0.441c0.294,0,0.604,0,0.932,0c0.065,0,0.474-0.13,1.226-0.392v-0.147
		c0.85-0.522,1.275-3.007,1.275-7.453c-0.229-3.791-0.784-6.684-1.667-8.678c0.065-0.13,0.163-0.261,0.294-0.392
		c0.522,0.262,1.258,0.539,2.206,0.833c0.915,0.262,1.65,0.458,2.207,0.588c0.457,0.131,0.702,0.311,0.735,0.539
		c2.418-1.667,4.478-3.628,6.178-5.883h0.294c0.621,0.948,1.177,1.733,1.667,2.354c0.457,0.425,0.865,0.833,1.226,1.226
		c0.261,0.229,0.392,0.54,0.392,0.932c0,0.425-0.507,0.769-1.52,1.03c-0.85,0.36-2.125,0.752-3.824,1.176
		C120.583,45.15,119.03,45.542,117.919,45.803z M123.656,51.491c0.687,0.49,1.454,1.145,2.305,1.961
		c3.366,2.321,6.308,3.694,8.825,4.119l-0.147,0.588c0,0.131-0.704,0.376-2.108,0.735c-2.484,0.687-4.446,1.275-5.884,1.766
		c-0.327,0.261-0.67,0.392-1.029,0.392c-0.196,0-0.409-0.375-0.638-1.127c-0.588-1.308-1.177-2.435-1.765-3.384
		c-1.145-1.928-2.304-3.742-3.481-5.442c-0.882-0.915-1.39-1.503-1.52-1.765c0-0.555,0.277-0.833,0.833-0.833
		c0.687,0.131,1.831,0.785,3.432,1.961c1.928-1.797,3.546-3.955,4.854-6.472h0.294c0.588,1.079,1.16,1.929,1.716,2.55
		c0.424,0.425,0.833,0.899,1.226,1.422c0.262,0.229,0.393,0.556,0.393,0.98c0,0.262-0.343,0.523-1.03,0.784
		c-0.621,0.229-1.537,0.475-2.746,0.736C125.649,50.886,124.472,51.229,123.656,51.491z"/>
	<path fill="#8E354A" d="M151.358,34.821l0.196,0.392c0,0.785-0.262,2.157-0.784,4.119c-0.556,1.667-1.03,2.91-1.422,3.726
		c-0.327,0.752-0.687,1.128-1.079,1.128c-0.36,0-1.111-0.588-2.255-1.765c-1.373-1.013-2.141-1.585-2.304-1.716v-0.196
		c0.196-0.163,0.801-0.506,1.814-1.03c0.719-0.359,1.422-0.816,2.108-1.373c0.915-0.751,1.748-1.405,2.5-1.961
		C150.622,35.622,151.031,35.181,151.358,34.821z M163.321,33.056c-1.373-2.255-3.138-4.347-5.295-6.276l0.539-0.392
		c2.32,0.262,4.249,0.507,5.786,0.735c0.816,0.262,1.601,0.539,2.353,0.833c0.981,0.262,1.472,0.458,1.472,0.588
		c0,0.262-0.278,0.703-0.834,1.324c-0.588,0.785-1.078,1.439-1.471,1.961c-0.164,0.294-0.327,0.572-0.49,0.833
		c4.249-0.948,7.747-1.879,10.492-2.795c0.359-0.522,0.687-1.095,0.98-1.716h0.393c0.424,0.752,1.095,1.782,2.01,3.089
		c0.556,0.817,1.063,1.471,1.521,1.961c0.947,0.949,1.422,1.667,1.422,2.157c0,0.262-0.164,0.458-0.49,0.588
		c-1.569,0.131-3.139,0.409-4.707,0.833c-1.7,0.49-3.351,1.014-4.952,1.569l-0.441-0.441c1.602-1.013,2.876-2.042,3.824-3.089
		l-0.392-0.588c-6.637,0.752-13.141,1.912-19.514,3.481c0.392,0.556,1.372,1.553,2.941,2.991c0.261,0,0.571,0,0.932,0
		c0.784-0.13,1.601-0.277,2.451-0.441c2.68-0.261,4.723-0.522,6.129-0.785c1.536-0.229,3.464-0.604,5.785-1.127
		c2.386-0.556,3.71-0.833,3.972-0.833c0.326,0.131,0.506,0.784,0.539,1.961c0.099,0.817,0.229,1.488,0.393,2.01
		c0,0.229-0.049,0.409-0.147,0.54c-0.392-0.13-0.851-0.261-1.373-0.393c-1.145,0.131-2.321,0.262-3.529,0.393
		c-1.309,0.131-2.501,0.262-3.58,0.392l-1.372,3.726c0.882-0.228,1.765-0.473,2.647-0.735c0.947-0.392,1.634-0.588,2.06-0.588
		c0.261,0.262,0.751,0.588,1.471,0.98c0.457,0.229,0.98,0.475,1.568,0.736c0.522,0.164,0.785,0.311,0.785,0.441
		c-0.164,0.393-0.344,1.177-0.54,2.354c-0.195,1.7-0.343,3.792-0.44,6.276c-0.066,1.439-0.132,2.942-0.196,4.512
		c0,1.307-0.033,2.483-0.099,3.529c0,0.785-0.098,1.227-0.294,1.324c-0.393,0-0.851-0.115-1.373-0.343
		c-0.392-0.263-1.014-0.589-1.863-0.981c-0.621-0.294-1.471-0.752-2.549-1.372c-0.263-0.132-0.508-0.263-0.735-0.393
		c-1.145,0.13-2.566,0.393-4.266,0.784c-1.079,0.229-1.962,0.408-2.648,0.54c-0.458,0.294-0.784,0.44-0.98,0.44
		c-0.229,0-0.507-0.522-0.833-1.568c-0.36-0.817-0.703-1.471-1.03-1.961l0.147-0.393c0.425,0,0.866,0,1.324,0
		c-0.164-2.124-0.344-3.955-0.54-5.492c-0.164-2.647-0.277-5.213-0.343-7.697c0.065-0.13,0.163-0.196,0.294-0.196
		c0.294,0.131,0.883,0.409,1.766,0.833c0.882,0,1.879-0.13,2.99-0.392v-3.53c-1.014,0.262-2.059,0.572-3.138,0.932
		c-1.733,0.556-2.696,0.833-2.893,0.833c-0.229,0-0.393-0.343-0.49-1.03c-0.066-0.359-0.164-0.669-0.295-0.932
		c-0.294,0.49-0.882,1.341-1.765,2.55c-0.392,0.36-0.752,0.752-1.078,1.177c0.294,0.392,0.506,0.654,0.637,0.784
		c0,1.046-0.082,3.514-0.245,7.404c0,1.864-0.114,3.825-0.343,5.884c-0.425,2.876-0.817,4.314-1.177,4.314
		c-0.262,0-0.867-0.785-1.814-2.354c-1.046-1.308-1.618-2.206-1.716-2.696c0.065-0.393,0.277-1.373,0.637-2.942
		c0.261-1.471,0.506-3.056,0.735-4.756c0.098-0.621,0.179-1.34,0.245-2.157c-0.098,0.131-0.196,0.196-0.294,0.196
		c-2.19,2.517-4.544,3.89-7.061,4.118c-0.327,0-0.49-0.065-0.49-0.196c2.189-1.928,4.184-4.462,5.982-7.6
		c1.536-2.354,2.647-4.315,3.334-5.884c0.621-1.307,0.98-2.37,1.079-3.187c-0.426,0.131-0.867,0.262-1.324,0.392
		c-0.458,0-0.687-0.13-0.687-0.392c-0.229-1.307-0.588-2.141-1.079-2.5l0.392-0.588c3.563-0.13,7.239-0.604,11.032-1.422
		C163.206,33.104,163.255,33.056,163.321,33.056z M163.909,59.336c0.424-0.163,0.882-0.245,1.372-0.245
		c3.139-0.49,4.936-0.801,5.394-0.932c0.359,0,0.653,0.458,0.883,1.373c0.065,0.393,0.13,0.72,0.196,0.98h0.049
		c0.229,0,0.375-0.539,0.441-1.618c-0.033-2.32-0.099-5.442-0.196-9.365c-0.229-0.261-0.409-0.458-0.539-0.588
		c-1.243,0-2.991,0.196-5.246,0.588c-0.817,0.262-1.537,0.441-2.158,0.539c-0.032,0.556-0.098,1.161-0.195,1.814
		c0,0.36,0,0.67,0,0.931c0.816,0,1.585-0.065,2.304-0.196c1.111-0.261,2.141-0.506,3.089-0.735c0.719-0.13,1.177-0.261,1.373-0.393
		l0.393,0.196c0,0.131,0,0.262,0,0.392c0,0.229,0.049,0.622,0.146,1.177c0.262,1.014,0.393,1.586,0.393,1.716
		c0,0.164-0.098,0.245-0.294,0.245c-1.275,0.131-2.746,0.262-4.413,0.392c-0.98,0.131-1.978,0.327-2.99,0.589
		c0,0.131,0,0.311,0,0.539C163.909,57.686,163.909,58.552,163.909,59.336z"/>
</g>
</svg>
