<?xml version="1.0" encoding="utf-8"?>
<!-- Generator: Adobe Illustrator 16.0.0, SVG Export Plug-In . SVG Version: 6.00 Build 0)  -->
<!DOCTYPE svg PUBLIC "-//W3C//DTD SVG 1.1//EN" "http://www.w3.org/Graphics/SVG/1.1/DTD/svg11.dtd">
<svg version="1.1" id="圖層_1" xmlns="http://www.w3.org/2000/svg" xmlns:xlink="http://www.w3.org/1999/xlink" x="0px" y="0px"
	 width="307.143px" height="110px" viewBox="0 0 307.143 110" enable-background="new 0 0 307.143 110" xml:space="preserve">
<path fill="#BEBEBE" d="M303.643,87.743c-108.087-20.805-176.738,6.015-296.782,0C77.214,110.298,234.971,82.918,303.643,87.743
	L303.643,87.743z M303.643,87.743"/>
<circle fill="#893448" cx="39.72" cy="45.907" r="27.408"/>
<rect x="22.854" y="29.952" fill="none" width="33.733" height="32.617"/>
<g>
	<path fill="#8E354A" d="M111.796,40.626c0.46,0.092,0.921,0.184,1.289,0.276c0.737,0.276,1.105,0.414,1.105,0.506
		c0,0.184-0.185,0.46-0.553,0.829c-0.276,0.368-0.507,0.69-0.69,0.967c0.69-0.046,1.335-0.138,1.979-0.23
		c3.224-0.323,6.033-0.691,8.382-1.105l3.546-0.691c0.553,0,0.829,0.415,0.921,1.151c0.461,1.428,0.783,2.395,0.967,2.947
		c0,0.23-0.138,0.322-0.322,0.322c-4.099,0-9.164,0.276-15.15,0.829c-3.776,0.369-8.105,0.921-13.079,1.658
		c-1.934,0.599-3.362,0.875-4.237,0.875c-0.415,0-0.69-0.276-0.829-0.921c-0.276-0.507-0.507-0.967-0.783-1.381
		c-0.276-0.461-0.552-0.829-0.875-1.198l0.185-0.368c0.368,0,0.783,0,1.197-0.092c1.243,0,4.513-0.276,9.763-0.921
		c1.934-0.184,3.776-0.368,5.434-0.553c-0.737-0.875-1.52-1.704-2.395-2.44c-1.796,0.322-3.224,0.645-4.329,0.921
		c-0.415-0.276-1.243-1.612-2.44-3.96c-1.06-2.395-1.658-3.776-1.842-4.19c0.23-0.185,0.875-0.599,1.888-1.29
		c0.921-0.783,1.474-1.244,1.612-1.428c1.474,0,3.454-0.276,6.033-0.875c6.079-1.105,9.256-1.796,9.532-2.118
		c0.139,0.138,0.829,0.599,2.118,1.381c1.612,0.829,2.533,1.29,2.764,1.382c-0.092,0.322-0.691,1.98-1.75,5.02
		c-1.06,2.671-1.704,4.19-1.889,4.467c-0.322,0-0.967,0-1.934-0.092h-2.901C114.145,40.396,113.224,40.488,111.796,40.626z
		 M113.27,55.639c0.138,0.184,0.23,0.322,0.23,0.506c-0.139,0.368-0.185,0.783-0.185,1.29c0,2.395,0.046,4.835,0.046,7.276
		c0,0.415-0.184,0.645-0.553,0.645c-0.276-0.092-0.967-0.414-2.072-0.967c-1.059-0.553-2.118-1.013-3.178-1.381
		c-1.611-0.553-2.763-1.105-3.453-1.658c-0.23-0.092-0.323-0.276-0.323-0.645c1.29,0.092,2.717,0.138,4.191,0.138
		c0.921,0,1.428-0.415,1.52-1.335c0-1.566-0.092-2.763-0.23-3.546c-0.322,0.046-0.645,0.092-0.967,0.092
		c-1.289,0.185-2.395,0.369-3.224,0.507c-0.184,0.645-0.553,1.565-1.151,2.671c-0.829,1.381-1.52,2.349-2.072,2.901
		c-0.46,0.645-0.967,0.967-1.52,0.967c-0.322,0-1.013-0.506-2.026-1.565c-1.197-0.967-1.888-1.474-2.026-1.566v-0.322
		c0.185,0,0.875-0.23,2.072-0.645c0.783-0.23,1.566-0.552,2.395-0.967c1.013-0.46,1.888-0.921,2.717-1.382
		c0.092-0.046,0.184-0.092,0.23-0.138c-0.369-0.368-0.829-1.151-1.474-2.302c-0.783-1.566-1.244-2.487-1.335-2.763
		c0.23-0.138,0.829-0.506,1.796-1.151c0.921-0.737,1.428-1.151,1.565-1.243c1.243,0,2.993-0.23,5.204-0.737
		c5.25-0.921,8.013-1.474,8.243-1.704c0.092,0.092,0.782,0.507,2.026,1.244c1.52,0.737,2.395,1.151,2.578,1.243
		c-0.092,0.23-0.599,1.381-1.611,3.454c-0.967,1.842-1.565,2.901-1.75,3.085c-0.322,0-0.967,0-1.888-0.092h-2.764
		C114.099,55.592,113.729,55.639,113.27,55.639z M109.309,32.843c-3.177,0.553-5.065,0.921-5.618,1.105
		c0.092,0.369,0.23,0.783,0.415,1.335c0.783-0.092,2.164-0.368,4.19-0.737c3.684-0.506,5.849-0.875,6.447-1.059
		c0.23,0,0.414,0.415,0.599,1.151c0.184,0.645,0.276,1.197,0.368,1.612l-0.23,0.276c-0.368-0.092-0.921-0.138-1.657-0.138
		c-1.566,0.092-3.5,0.322-5.895,0.691c-1.151,0.184-2.118,0.368-2.901,0.506c0.185,0.369,0.322,0.737,0.46,1.059
		c1.014,0,2.441-0.092,4.283-0.368c1.75-0.185,3.914-0.46,6.447-0.921c0.092-0.322,0.276-1.013,0.46-2.118
		c0.185-0.967,0.323-1.704,0.323-2.256c-0.139-0.322-0.323-0.553-0.507-0.691C114.375,32.291,111.979,32.475,109.309,32.843z
		 M110.046,50.757c-2.671,0.415-4.283,0.691-4.743,0.783c0.046,0.23,0.138,0.599,0.322,1.059c0.138,0.368,0.276,0.691,0.414,0.967
		c0.921,0,2.257-0.092,3.915-0.276c1.657-0.092,3.638-0.323,5.986-0.599c0.092-0.092,0.23-0.369,0.414-0.829
		c0.185-0.369,0.276-0.691,0.276-0.921c-0.184-0.276-0.322-0.461-0.506-0.599C114.328,50.343,112.303,50.48,110.046,50.757z
		 M122.295,57.849c1.336,0.461,2.579,0.783,3.73,0.967v0.691c-0.368,0.138-1.335,0.783-2.855,1.98
		c-0.782,0.921-1.427,1.382-1.934,1.474c-0.69,0-1.336-0.829-1.98-2.487c-1.059-1.75-1.888-3.131-2.44-4.236
		c0.046-0.276,0.23-0.461,0.553-0.461C118.979,56.513,120.638,57.204,122.295,57.849z"/>
	<path fill="#8E354A" d="M146.466,55.316c0,0.415-0.092,0.921-0.23,1.566c0.553-0.23,1.151-0.553,1.75-0.967
		c0.737-0.46,1.382-0.875,2.026-1.335c0.368-0.322,0.736-0.599,1.013-0.829l0.185,0.23c0,0.415-0.138,1.013-0.368,1.75
		c0.46-0.276,0.967-0.553,1.474-0.921c0.69-0.46,1.335-0.875,1.888-1.335c0.368-0.369,0.691-0.645,0.967-0.875l0.185,0.322
		c0,0.599-0.23,1.612-0.599,2.993c-0.414,1.335-0.736,2.257-1.013,2.763c-0.23,0.645-0.507,0.921-0.783,0.921
		s-0.921-0.46-1.842-1.427c-0.369-0.276-0.691-0.553-0.921-0.783c-0.461,1.013-0.829,1.75-1.105,2.119
		c-0.276,0.645-0.599,0.921-0.967,0.921c-0.276,0-0.829-0.415-1.704-1.335c-0.276-0.184-0.461-0.369-0.645-0.506
		c-0.461,1.335-0.829,2.256-1.105,2.809c-0.276,0.645-0.553,0.967-0.829,0.967s-0.875-0.46-1.796-1.381
		c-1.06-0.875-1.658-1.335-1.75-1.382v-0.276c0.138-0.046,0.599-0.276,1.428-0.736c0.553-0.276,1.105-0.599,1.657-1.06
		c0.691-0.552,1.336-1.059,1.889-1.52c0.368-0.368,0.69-0.691,0.967-0.967L146.466,55.316z M152.452,42.422
		c-0.046,0.737-0.092,1.428-0.092,2.164c0.092,0,0.23,0,0.322-0.046c1.243-0.184,2.303-0.415,3.224-0.69l1.382-0.461
		c0.46,0,0.69,0.323,0.782,0.967c0.369,1.197,0.645,1.98,0.783,2.441c0,0.184-0.092,0.23-0.276,0.23
		c-1.611,0-3.592,0.184-5.986,0.506c-0.139,0.046-0.23,0.046-0.322,0.046c0,0.783-0.047,1.52-0.047,2.256
		c2.396-0.46,4.928-1.013,7.507-1.658c0.23,0.553,0.553,1.243,0.967,2.072c-1.474,0.276-3.5,0.783-6.078,1.52
		c-1.105,0.369-2.072,0.645-2.901,0.875c-1.06,0.369-2.257,0.737-3.592,1.105c-0.922,0.368-1.797,0.645-2.579,0.921
		c-0.368,0.276-0.737,0.506-1.105,0.645c-0.276-0.046-0.414-0.276-0.461-0.645c-0.229-0.645-0.46-1.197-0.69-1.566
		c-0.322-0.599-0.599-0.967-0.875-1.151l0.322-0.552c2.118-0.23,4.375-0.553,6.678-1.013v-2.256
		c-0.645,0.138-1.289,0.276-1.935,0.414c-0.782,0.369-1.335,0.507-1.703,0.507c-0.322,0-0.553-0.23-0.646-0.737
		c-0.229-0.415-0.46-0.783-0.645-1.105c-0.23-0.368-0.46-0.69-0.736-0.967l0.184-0.322c0.276,0,0.599,0,0.968-0.092
		c0.46,0,1.75-0.184,3.775-0.553c0.23,0,0.461-0.046,0.691-0.138c0-0.69-0.046-1.381-0.046-2.072
		c-1.889,0.553-3.132,0.875-3.685,0.967c-0.414-0.276-1.013-1.52-1.842-3.638c-1.014-2.44-1.565-3.868-1.658-4.237
		c0.093-0.184,0.415-0.737,0.968-1.658c0.552-1.013,0.921-1.704,1.104-2.026c0.737,0,2.717-0.368,6.033-1.105
		c3.914-1.013,6.171-1.612,6.77-1.796c0.368,0.138,0.967,0.599,1.888,1.427c1.197,0.829,1.889,1.335,2.164,1.52
		c0,0.46-0.506,2.026-1.427,4.789c-1.197,3.546-1.935,5.388-2.165,5.526c-0.276,0-0.736-0.092-1.289-0.323
		c-0.69-0.138-1.289-0.23-1.75-0.23C153.788,42.284,153.097,42.33,152.452,42.422z M147.433,36.711
		c0.737-0.415,1.243-0.737,1.612-1.013c0,0.046,0.046,0.046,0.046,0.046c0-0.552-0.046-1.105-0.046-1.658
		c-1.843,0.369-2.947,0.599-3.224,0.737c0.046,0.46,0.184,1.29,0.46,2.487C146.65,37.218,147.064,36.988,147.433,36.711z
		 M149.137,36.757c-0.092,0.369-0.185,0.737-0.276,1.013c-0.185,0.553-0.368,1.059-0.599,1.428
		c-0.092,0.276-0.276,0.415-0.507,0.415c-0.184,0-0.368-0.092-0.506-0.369c-0.185-0.184-0.415-0.46-0.646-0.875
		c-0.092-0.092-0.138-0.138-0.138-0.138c0.23,1.29,0.414,2.257,0.599,2.809c0.461-0.092,1.197-0.23,2.21-0.414
		C149.229,39.291,149.183,38.001,149.137,36.757z M155.169,37.172c-0.46,0.276-1.289,0.691-2.532,1.335
		c-0.046,0.046-0.092,0.046-0.092,0.046c-0.047,0.552-0.047,1.013-0.047,1.474c1.658-0.323,2.625-0.553,2.901-0.737
		c0.23-0.737,0.415-1.52,0.599-2.441c0-0.092,0.046-0.184,0.046-0.276C155.768,36.757,155.445,36.988,155.169,37.172z
		 M152.637,33.488c-0.046,1.151-0.046,2.303-0.046,3.5c0.736-1.105,1.243-2.118,1.52-2.993h0.23c0.092,0.184,0.414,0.46,1.059,0.921
		c0.23,0.184,0.507,0.322,0.783,0.506c0-0.46,0.046-0.921,0.046-1.427c-0.138-0.369-0.368-0.645-0.736-0.921
		C155.077,33.12,154.11,33.258,152.637,33.488z M160.834,55.04l0.092,0.323c-0.23,0.368-0.599,0.783-1.06,1.335
		c-0.552,0.737-1.059,1.381-1.52,1.934c-0.276,0.553-0.645,0.783-1.013,0.783c-0.092,0-0.185-0.184-0.276-0.599
		c-0.139-0.322-0.276-0.783-0.368-1.381c-0.322-1.52-0.599-3.224-0.875-5.066c0-0.138,0.092-0.23,0.368-0.23
		C157.656,53.75,159.222,54.717,160.834,55.04z M177.597,35.744c0.368,1.382,0.828,2.671,1.381,3.822
		c-0.184,0.185-0.276,0.276-0.322,0.369c-0.645-0.138-1.335-0.276-1.98-0.369c-1.197,0.092-2.486,0.369-3.96,0.783
		c-0.829,0.23-1.611,0.506-2.44,0.783c-0.093,1.75-0.139,3.684-0.185,5.756c2.763-0.691,4.236-1.151,4.375-1.381
		c0.138,0.184,0.921,0.737,2.349,1.658c1.75,0.967,2.717,1.52,2.947,1.658c-0.092,0.369-0.783,2.303-2.072,5.803
		c-1.197,3.131-1.935,4.835-2.164,5.158c-0.415,0-1.244,0-2.441-0.092h-3.546c-0.322,0.092-1.381,0.23-3.178,0.46
		c-0.967,0.23-1.75,0.46-2.302,0.645c-0.415-0.322-1.197-1.842-2.396-4.513c-1.013-2.717-1.611-4.329-1.796-4.79
		c0.276-0.184,0.968-0.737,2.119-1.565c1.013-0.921,1.611-1.474,1.796-1.658c0.69,0,1.565-0.138,2.625-0.415
		c-0.139-7-0.783-12.848-1.889-17.592c0-0.322,0.185-0.506,0.645-0.506c1.06,0.415,2.718,0.783,4.928,1.151
		c0.368,0.092,0.553,0.368,0.553,0.921c-0.092,1.105-0.185,3.04-0.276,5.802c0.645-0.138,1.289-0.368,1.98-0.645
		c1.52-0.599,2.901-1.197,4.099-1.842C177.09,35.146,177.504,35.376,177.597,35.744z M168.432,50.849
		c-1.934,0.369-3.039,0.645-3.361,0.737c0.092,0.553,0.276,1.428,0.599,2.625c0.322,0.829,0.599,1.565,0.829,2.256
		c0.507,0,1.243-0.046,2.21-0.184c0.922-0.092,2.072-0.23,3.408-0.46c0.138-0.322,0.368-1.059,0.69-2.21
		c0.276-1.013,0.461-1.796,0.461-2.349c-0.185-0.369-0.368-0.599-0.553-0.783C171.426,50.48,169.998,50.619,168.432,50.849z"/>
	<path fill="#8E354A" d="M190.301,48.915c-0.369-0.046-0.599-0.23-0.646-0.553c3.639-1.934,7.093-4.651,10.315-8.243
		c2.579-2.763,4.375-5.158,5.296-7.184c1.197-1.842,1.843-3.177,1.935-4.052c0.046-0.737,0.092-1.29,0.092-1.658l0.461-0.185
		c0.368,0.645,1.289,1.658,2.855,3.04c0.275,0.369,0.552,0.599,0.828,0.783c0.23,0.276,0.369,0.553,0.369,0.829
		c0,0.184-0.139,0.415-0.369,0.599c-0.229,0.276-0.553,0.599-0.967,0.967c2.763,2.072,5.48,3.868,8.197,5.342
		c3.546,2.026,7.092,3.638,10.684,4.789c0,0.461-0.138,0.645-0.368,0.645c-1.658,0.368-3.454,0.737-5.388,1.151
		c-1.197,0.322-2.165,0.552-2.901,0.737c-0.553,0.184-1.014,0.23-1.428,0.23c-0.415,0-1.06-0.691-1.935-2.165
		c-1.059-1.197-2.486-2.901-4.328-5.02c-1.566-1.335-3.04-2.44-4.421-3.361c-0.046,0.046-0.046,0.046-0.046,0.046
		c-0.691,0.921-1.428,1.842-2.257,2.855c-1.612,1.934-3.132,3.5-4.605,4.79c0.737,0.23,1.428,0.415,2.165,0.506
		c0.921,0.184,1.381,0.553,1.381,1.059c-0.092,0.369-0.276,1.151-0.553,2.349c-0.229,1.612-0.46,3.04-0.69,4.237
		c-0.23,1.566-0.553,2.855-1.013,3.96c-1.014,2.395-2.349,3.96-4.053,4.651c-1.105,0.552-2.303,0.829-3.639,0.921l-0.46-0.322
		c3.776-2.257,5.71-6.171,5.71-11.743c0-1.474-0.184-2.901-0.506-4.283C196.518,47.211,193.294,48.639,190.301,48.915z
		 M213.142,43.021c1.014,0.276,1.889,0.46,2.625,0.506c0.599,0.092,0.921,0.276,0.921,0.599c-0.276,0.369-0.553,1.934-0.875,4.697
		c-0.184,3.915-0.276,8.612-0.276,14.138c0,0.553-0.184,0.921-0.553,1.059c-0.736,0-1.289-0.138-1.657-0.322
		c-0.599-0.368-1.197-0.645-1.796-0.921c-1.197-0.645-1.98-1.013-2.303-1.151V61.21c0.645,0,1.197-0.368,1.657-1.105
		c0.646-1.428,1.014-5.572,1.014-12.48c0-3.131-0.322-4.743-0.921-4.835l0.322-0.368C211.853,42.698,212.451,42.882,213.142,43.021z
		"/>
	<path fill="#8E354A" d="M242.977,54.487c-0.368,1.197-0.736,2.302-1.104,3.27c-0.415,1.013-0.875,1.934-1.428,2.671
		c-0.185,0.415-0.415,0.599-0.783,0.599c-0.276,0-0.553-0.184-0.783-0.553c-0.276-0.276-0.645-0.737-1.013-1.381
		c-0.461-0.599-0.875-0.921-1.197-1.013v-0.415c1.013-0.138,1.98-0.599,2.993-1.427c1.382-0.829,2.395-1.52,3.039-1.98
		C242.793,54.349,242.885,54.395,242.977,54.487z M248.549,31.139c0.507,0.553,0.921,1.013,1.29,1.382
		c0.276,0.322,0.46,0.599,0.46,0.783c0,0.368-0.184,0.691-0.46,0.967c-0.276,0.369-0.737,0.875-1.29,1.566
		c-0.967,1.29-2.256,2.993-3.914,5.112c0.553,0,1.888-0.184,3.914-0.599c0.599-0.921,1.243-1.888,1.98-2.809
		c0.553-0.691,0.921-1.474,1.013-2.303l0.322-0.092c0.185,0.276,0.415,0.599,0.691,0.875c0.184,0.23,0.599,0.599,1.151,1.151
		c0.645,0.46,0.967,0.783,0.967,0.967c0,0.276-0.092,0.552-0.23,0.737c-1.657,1.888-2.993,3.5-4.099,4.789l0.046-0.046
		c0.968,0.737,1.98,1.796,3.086,3.178c0.322,0.552,0.553,0.967,0.736,1.289c0.23,0.46,0.369,0.829,0.369,1.059
		c0,0.276-0.185,0.553-0.507,0.737c-0.414,0.507-0.737,0.921-0.967,1.198c-0.415,0.46-0.829,0.921-1.197,1.381l-0.461-0.138
		c-0.046-0.645-0.092-1.52-0.185-2.579c-1.75,0.552-3.27,1.059-4.65,1.565c-2.026,0.875-3.454,1.428-4.237,1.658
		c-0.599,0.369-1.059,0.553-1.381,0.553c-0.276,0-0.553-0.599-0.783-1.842c-0.414-1.151-0.737-1.842-1.013-2.072
		c0-0.185,0.046-0.276,0.229-0.369c0.968,0,1.566-0.046,1.843-0.23c0.368,0,1.888-1.658,4.467-4.973
		c-0.276,0.092-0.553,0.184-0.829,0.23c-1.75,0.507-3.132,0.829-4.237,1.013c-0.229,0-0.46-0.645-0.736-1.98
		c-0.138-0.645-0.322-1.29-0.599-1.888c0-0.046,0-0.092,0.092-0.184c0.599,0,1.151,0,1.612-0.046
		c0.967-1.013,1.979-2.671,2.993-4.927c1.565-3.04,2.349-5.342,2.349-6.908c0.092-0.092,0.23-0.184,0.414-0.184
		C247.352,29.804,247.95,30.449,248.549,31.139z M248.457,53.474c-0.276,1.105-0.599,2.118-0.921,2.993
		c-0.368,0.967-0.783,1.796-1.243,2.441c-0.139,0.414-0.369,0.599-0.691,0.599c-0.276,0-0.506-0.138-0.736-0.507
		c-0.276-0.276-0.553-0.737-0.921-1.289c-0.461-0.553-0.829-0.875-1.105-0.967v-0.322c0.829-0.184,1.704-0.645,2.532-1.428
		c1.197-0.829,2.072-1.474,2.625-1.98C248.135,53.198,248.272,53.336,248.457,53.474z M250.529,45.323
		c-0.185-0.875-0.322-1.382-0.322-1.52c-2.026,2.395-3.224,3.868-3.592,4.421c0.368,0,1.796-0.322,4.282-1.059
		C250.806,46.521,250.667,45.922,250.529,45.323z M254.167,52.277c-0.368,1.197-0.736,2.256-1.151,3.177
		c-0.46,1.013-1.013,1.888-1.565,2.625c-0.185,0.369-0.414,0.553-0.736,0.553c-0.276,0-0.507-0.138-0.737-0.507
		c-0.23-0.276-0.553-0.69-0.921-1.289c-0.461-0.553-0.783-0.875-1.06-0.921v-0.368c0.921-0.184,1.889-0.691,2.855-1.52
		c1.382-0.875,2.349-1.566,2.947-2.119C253.891,52.046,254.029,52.185,254.167,52.277z M259.739,48.224
		c-1.428,1.842-3.178,2.855-5.25,3.04c-0.414,0-0.599-0.138-0.599-0.46c1.52-1.29,2.81-3.085,3.822-5.388
		c0.461-1.105,0.921-2.395,1.336-3.822c0.184-0.875,0.368-1.612,0.507-2.256c-0.323,0.184-0.553,0.276-0.737,0.368
		c-0.69,0.507-1.197,0.783-1.52,0.829c-0.553,0-0.875-0.322-0.967-1.013c-0.23-0.921-0.461-1.612-0.737-2.072
		c-0.23-0.415-0.46-0.737-0.69-0.967l0.23-0.507c0.184,0.138,0.46,0.184,0.782,0.184c3.362-0.552,6.217-1.243,8.565-1.98
		c1.197-0.276,2.487-0.691,3.822-1.244c0.921-0.506,1.52-0.783,1.75-0.783c0.092,0.092,0.507,0.507,1.243,1.29
		c0.875,0.875,1.843,1.704,2.855,2.533c0.645,0.46,1.014,0.783,1.014,1.059c0,0.23-0.185,0.46-0.553,0.691
		c-0.276,0.645-1.014,2.395-2.165,5.204c-0.645,1.566-1.197,2.855-1.657,3.869c-0.415,0.736-0.737,1.289-1.014,1.658
		c0.368,0.322,1.014,0.829,1.98,1.474c1.611,0.921,2.533,1.427,2.717,1.565c-0.092,0.323-0.736,2.072-1.98,5.204
		c-1.197,2.763-1.888,4.329-2.118,4.651c-0.368,0-1.104-0.046-2.21-0.138h-3.315c-0.369,0.092-1.612,0.23-3.822,0.415
		c-1.197,0.184-2.119,0.369-2.81,0.507c-0.368-0.276-1.013-1.612-2.026-3.96c-0.921-2.395-1.428-3.822-1.52-4.237
		c0.23-0.184,0.875-0.691,1.98-1.474c0.967-0.921,1.52-1.428,1.657-1.566c1.06,0,2.533-0.23,4.375-0.783
		c1.75-0.368,3.086-0.645,4.099-0.875c-0.414-0.415-0.875-0.921-1.382-1.566c-1.381-1.197-2.486-2.164-3.361-2.993
		C261.259,46.244,260.477,47.396,259.739,48.224z M263.239,53.382c-2.118,0.322-3.361,0.553-3.73,0.645
		c0.047,0.46,0.185,1.197,0.461,2.21c0.185,0.69,0.368,1.335,0.553,1.934c0.645,0,1.52-0.046,2.671-0.185
		c1.105-0.046,2.44-0.138,4.053-0.322c0.184-0.276,0.414-0.875,0.782-1.888c0.322-0.829,0.507-1.474,0.507-1.98
		c-0.185-0.322-0.322-0.553-0.507-0.737C266.601,53.06,264.989,53.198,263.239,53.382z M263.607,37.679
		c-0.276,0.092-0.506,0.184-0.736,0.276c0.184,0.184,0.414,0.322,0.645,0.46c0.599,0.23,0.921,0.552,0.921,0.921
		c0,0.322-0.46,1.335-1.382,3.04c-0.229,0.552-0.414,1.013-0.599,1.427c0.646,0.138,1.336,0.276,2.026,0.46
		c0.968,0.23,1.796,0.322,2.533,0.322c0.276,0,0.645-0.599,1.059-1.796c0.369-1.197,0.691-2.164,0.875-2.901
		c0.185-0.783,0.323-1.52,0.461-2.21c-0.507-0.553-1.013-1.013-1.52-1.382C267.476,36.297,266.049,36.757,263.607,37.679z"/>
</g>
<g>
	<path fill="#D3B68C" d="M41.488,43.734c-0.336,0.578-0.668,1.175-0.98,1.781c-0.32,0.633-0.641,1.258-0.949,1.86
		c0.461,0.242,0.828,0.565,1.094,0.968c0.215-0.312,0.461-0.628,0.648-0.972c0.219-0.363,0.422-0.742,0.629-1.117
		c0.277-0.536,0.523-1.082,0.758-1.61c-0.301-0.293-0.539-0.656-0.715-1.062C41.813,43.644,41.652,43.695,41.488,43.734
		L41.488,43.734z M41.488,43.734"/>
	<path fill="#D3B68C" d="M24.633,50.737c0.613,0,1.23,0.109,1.832,0.324c1.117,0.403,2.031,1.125,2.578,2.004
		c0.012-0.008,0.023-0.012,0.035-0.015l0.121-0.059c0.176-0.099,0.301-0.188,0.414-0.289l0.152-0.152
		c0.102-0.114,0.191-0.239,0.266-0.375l0.055-0.094c0.016-0.035,0.027-0.071,0.043-0.106c-0.891-0.558-1.605-1.468-2-2.574
		c-0.34-0.944-0.402-1.922-0.211-2.812c-0.324-0.137-0.66-0.219-0.988-0.219c-0.301,0-0.586,0.062-0.848,0.187
		c-0.473,0.219-0.836,0.629-1.059,1.18l-0.063,0.16l-0.156,0.063c-0.551,0.222-0.961,0.586-1.184,1.058
		c-0.266,0.563-0.227,1.207,0.035,1.828C23.969,50.781,24.293,50.737,24.633,50.737L24.633,50.737z M24.633,50.737"/>
	<path fill="#D3B68C" d="M25.402,55.984c1.047-0.492,2.23-0.629,3.234-0.402c0.004-0.016,0.012-0.027,0.016-0.039l0.043-0.121
		c0.035-0.125,0.055-0.203,0.066-0.277s0.02-0.152,0.023-0.223v-0.223c-0.004-0.074-0.012-0.148-0.023-0.223
		s-0.031-0.152-0.051-0.227l-0.031-0.105c-0.012-0.035-0.027-0.066-0.039-0.102c-0.051-0.125-0.109-0.25-0.176-0.371
		c-0.07-0.125-0.148-0.25-0.234-0.371c-0.477-0.653-1.191-1.179-2.035-1.485c-0.516-0.183-1.043-0.28-1.563-0.28
		c-0.191,0-0.375,0.019-0.555,0.043c-0.145,0.022-0.285,0.051-0.422,0.086c-0.133,0.035-0.262,0.078-0.387,0.125
		c-0.641,0.262-1.117,0.707-1.324,1.28c-0.176,0.485-0.148,1.036,0.086,1.583l0.066,0.156l-0.066,0.156
		c-0.234,0.547-0.262,1.094-0.086,1.582c0.203,0.574,0.684,1.02,1.32,1.277C23.758,57.062,24.496,56.414,25.402,55.984
		L25.402,55.984z M25.402,55.984"/>
	<path fill="#D3B68C" d="M30.129,57.64c-0.004-0.012-0.008-0.023-0.012-0.035l0.313-0.27l-0.367,0.156
		c-0.105-0.184-0.191-0.313-0.297-0.422l-0.148-0.148c-0.113-0.105-0.238-0.195-0.375-0.27l-0.098-0.055
		c-0.031-0.016-0.066-0.027-0.098-0.039c-0.129-0.059-0.258-0.105-0.387-0.145c-0.137-0.043-0.277-0.074-0.422-0.098
		c-0.191-0.031-0.383-0.051-0.582-0.051c-0.637,0-1.297,0.152-1.914,0.445c-0.684,0.324-1.254,0.785-1.664,1.332
		c-0.09,0.113-0.164,0.238-0.234,0.359c-0.027,0.043-0.063,0.086-0.086,0.129c-0.043,0.082-0.063,0.164-0.098,0.246
		c-0.27,0.641-0.297,1.281-0.039,1.824c0.223,0.473,0.629,0.836,1.184,1.059l0.156,0.063l0.063,0.156
		c0.223,0.551,0.59,0.961,1.059,1.184c0.262,0.121,0.547,0.184,0.848,0.184c0.332,0,0.664-0.078,0.988-0.219
		c-0.191-0.887-0.129-1.867,0.211-2.809C28.527,59.101,29.254,58.187,30.129,57.64L30.129,57.64z M30.129,57.64"/>
	<path fill="#D3B68C" d="M33.051,61.281c-0.508-1.074-0.641-2.23-0.406-3.238c-0.016-0.004-0.027-0.012-0.039-0.016l-0.121-0.043
		c-0.125-0.035-0.199-0.055-0.277-0.066c-0.074-0.012-0.148-0.02-0.223-0.02l-0.066-0.402l-0.027,0.398l-0.125,0.004
		c-0.074,0-0.148,0.012-0.223,0.023c-0.078,0.008-0.152,0.027-0.227,0.047L31.203,58c-0.035,0.016-0.066,0.031-0.098,0.043
		c-0.125,0.051-0.25,0.105-0.367,0.172c-0.125,0.07-0.25,0.148-0.367,0.234c-0.656,0.48-1.188,1.195-1.488,2.039
		c-0.258,0.715-0.336,1.449-0.238,2.125c0.02,0.141,0.055,0.277,0.09,0.414c0.012,0.047,0.016,0.102,0.031,0.152
		c0.027,0.086,0.066,0.156,0.102,0.238c0.262,0.645,0.699,1.117,1.266,1.32c0.488,0.176,1.039,0.148,1.586-0.086l0.156-0.066
		l0.156,0.066c0.543,0.234,1.094,0.262,1.582,0.086c0.566-0.203,1.004-0.676,1.27-1.32C34.133,62.929,33.48,62.191,33.051,61.281
		L33.051,61.281z M33.051,61.281"/>
	<path fill="#D3B68C" d="M39.113,58.882c-0.613,0-1.227-0.113-1.832-0.328c-1.117-0.402-2.027-1.121-2.574-2
		c-0.012,0.004-0.027,0.008-0.039,0.012l-0.109,0.055c-0.188,0.105-0.313,0.191-0.422,0.293l-0.152,0.152
		c-0.105,0.113-0.195,0.238-0.27,0.379l-0.055,0.098c-0.016,0.031-0.027,0.07-0.043,0.102c-0.055,0.121-0.098,0.25-0.137,0.379
		c-0.039,0.141-0.07,0.281-0.094,0.426c-0.125,0.801,0.004,1.684,0.387,2.492c0.324,0.691,0.793,1.27,1.332,1.672
		c0.113,0.09,0.234,0.164,0.355,0.234s0.246,0.129,0.367,0.184c0.328,0.137,0.66,0.219,0.992,0.219c0.297,0,0.582-0.063,0.844-0.188
		c0.473-0.223,0.84-0.629,1.059-1.18l0.063-0.16l0.16-0.063c0.551-0.223,0.961-0.586,1.18-1.059
		c0.258-0.543,0.234-1.184-0.035-1.828C39.777,58.839,39.457,58.882,39.113,58.882L39.113,58.882z M39.113,58.882"/>
	<path fill="#D3B68C" d="M41.805,53.069c-0.207-0.569-0.684-1.016-1.32-1.276c-0.496,0.761-1.23,1.414-2.137,1.839
		c-0.723,0.34-1.504,0.523-2.254,0.523c-0.34,0-0.672-0.043-0.984-0.113c-0.004,0.012-0.012,0.02-0.016,0.031l-0.043,0.125
		c-0.035,0.125-0.051,0.199-0.066,0.277c-0.008,0.074-0.02,0.148-0.02,0.223l-0.004,0.109v0.105
		c0.004,0.078,0.016,0.152,0.027,0.227c0.012,0.078,0.027,0.152,0.051,0.23l0.027,0.105c0.016,0.035,0.031,0.07,0.047,0.105
		c0.047,0.121,0.105,0.246,0.168,0.363c0.074,0.129,0.152,0.254,0.242,0.375c0.477,0.652,1.191,1.18,2.027,1.48
		c0.52,0.184,1.043,0.281,1.563,0.281c0.195,0,0.379-0.016,0.559-0.043c0.145-0.02,0.285-0.047,0.422-0.082
		c0.133-0.039,0.266-0.078,0.391-0.133c0.637-0.258,1.113-0.703,1.32-1.273c0.176-0.492,0.145-1.039-0.086-1.586l-0.066-0.156
		l0.066-0.156C41.949,54.105,41.98,53.558,41.805,53.069L41.805,53.069z M41.805,53.069"/>
	<path fill="#D3B68C" d="M33.617,51.979c0.008,0.013,0.008,0.024,0.016,0.035l0.055,0.114c0.102,0.187,0.191,0.312,0.293,0.418
		l0.152,0.156c0.113,0.101,0.238,0.19,0.375,0.265l0.098,0.055c0.031,0.017,0.066,0.028,0.102,0.043
		c0.125,0.056,0.25,0.103,0.379,0.138c0.141,0.043,0.281,0.078,0.422,0.097c0.191,0.031,0.387,0.055,0.586,0.055
		c0.633,0,1.293-0.156,1.91-0.445c0.684-0.324,1.258-0.785,1.668-1.332c0.086-0.117,0.16-0.238,0.23-0.36
		c0.027-0.042,0.063-0.085,0.086-0.132c0.043-0.082,0.066-0.16,0.102-0.243c0.266-0.632,0.289-1.261,0.043-1.8
		c-0.004-0.008-0.004-0.021-0.008-0.028c-0.184-0.39-0.504-0.703-0.926-0.929c-0.082-0.043-0.164-0.09-0.254-0.125l-0.16-0.067
		l-0.063-0.156c-0.219-0.551-0.586-0.956-1.059-1.184c-0.258-0.121-0.547-0.183-0.844-0.183c-0.332,0-0.668,0.082-0.992,0.219
		c0.191,0.886,0.129,1.867-0.207,2.812C35.219,50.519,34.496,51.429,33.617,51.979L33.617,51.979z M33.617,51.979"/>
	<path fill="#D3B68C" d="M33.473,54.808c0,0.883-0.715,1.602-1.598,1.602s-1.602-0.719-1.602-1.602s0.719-1.597,1.602-1.597
		S33.473,53.925,33.473,54.808L33.473,54.808z M33.473,54.808"/>
	<path fill="#D3B68C" d="M29.496,50.297c0.254,0.343,0.547,0.64,0.863,0.871c0.125,0.09,0.25,0.172,0.375,0.238
		c0.121,0.065,0.246,0.125,0.371,0.168c0.012,0.004,0.023,0.012,0.035,0.016l0.121,0.043c0.129,0.039,0.203,0.054,0.281,0.066
		c0.074,0.012,0.148,0.019,0.219,0.022l0.066,0.387v0.004l0.004,0.009v-0.013l0.02-0.387h0.121c0.086-0.004,0.156-0.011,0.23-0.022
		c0.078-0.017,0.152-0.031,0.227-0.052l0.117-0.03c0.035-0.013,0.066-0.031,0.098-0.043c0.125-0.052,0.246-0.106,0.367-0.173
		c0.125-0.069,0.246-0.147,0.367-0.233c0.328-0.239,0.625-0.535,0.875-0.883c0.254-0.345,0.461-0.734,0.613-1.156
		c0.258-0.711,0.332-1.446,0.238-2.121c-0.023-0.146-0.055-0.278-0.09-0.415c-0.016-0.05-0.02-0.105-0.035-0.152
		c-0.027-0.086-0.066-0.155-0.098-0.237c-0.266-0.649-0.699-1.121-1.27-1.324c-0.391-0.142-0.82-0.146-1.254-0.024
		c-0.109,0.031-0.219,0.067-0.328,0.11l-0.156,0.07l-0.156-0.07c-0.113-0.047-0.223-0.075-0.336-0.106
		c-0.199-0.055-0.398-0.094-0.594-0.094c-0.227,0-0.445,0.039-0.656,0.114c-0.566,0.207-1.004,0.675-1.266,1.324
		c-0.035,0.082-0.074,0.151-0.102,0.237c-0.016,0.052-0.02,0.103-0.031,0.152c-0.035,0.137-0.07,0.274-0.09,0.415
		c-0.098,0.675-0.02,1.41,0.238,2.125C29.035,49.558,29.246,49.949,29.496,50.297L29.496,50.297z M29.496,50.297"/>
	<path fill="#D3B68C" d="M32.281,52.531c0-0.013-0.008-0.023-0.008-0.039c-0.023-0.203-0.188-0.367-0.398-0.367
		s-0.379,0.164-0.398,0.367c-0.004,0.016-0.008,0.026-0.008,0.039c0,0.227,0.18,0.405,0.406,0.405
		C32.098,52.937,32.281,52.758,32.281,52.531L32.281,52.531z M32.281,52.531"/>
	<path fill="#D3B68C" d="M29.977,53.488c0.16,0.156,0.418,0.156,0.574,0c0.16-0.16,0.16-0.418,0-0.574
		c-0.012-0.017-0.031-0.021-0.047-0.031c-0.156-0.122-0.383-0.114-0.527,0.031c-0.145,0.144-0.148,0.367-0.031,0.527
		C29.957,53.457,29.965,53.472,29.977,53.488L29.977,53.488z M29.977,53.488"/>
	<path fill="#D3B68C" d="M29.559,54.41c-0.203,0.02-0.367,0.188-0.367,0.398s0.164,0.379,0.367,0.398
		c0.016,0.004,0.027,0.008,0.039,0.008c0.227,0,0.406-0.18,0.406-0.406c0-0.223-0.18-0.406-0.406-0.406
		C29.586,54.402,29.574,54.41,29.559,54.41L29.559,54.41z M29.559,54.41"/>
	<path fill="#D3B68C" d="M30.508,56.738c0.012-0.012,0.031-0.02,0.043-0.031c0.16-0.16,0.16-0.418,0-0.574
		c-0.156-0.16-0.414-0.16-0.574,0c-0.012,0.012-0.02,0.031-0.031,0.047c-0.117,0.156-0.113,0.383,0.031,0.527
		S30.348,56.855,30.508,56.738L30.508,56.738z M30.508,56.738"/>
	<path fill="#D3B68C" d="M31.469,57.085c0,0.016,0.008,0.027,0.008,0.039c0.02,0.207,0.188,0.367,0.398,0.367
		s0.379-0.16,0.398-0.367c0-0.012,0.008-0.023,0.008-0.039c0-0.223-0.184-0.406-0.406-0.406
		C31.648,56.679,31.469,56.859,31.469,57.085L31.469,57.085z M31.469,57.085"/>
	<path fill="#D3B68C" d="M33.242,56.738c0.16,0.117,0.383,0.113,0.527-0.031s0.152-0.371,0.031-0.531
		c-0.012-0.012-0.016-0.031-0.031-0.043c-0.156-0.16-0.414-0.16-0.574,0c-0.156,0.156-0.156,0.414,0,0.574
		C33.211,56.722,33.227,56.726,33.242,56.738L33.242,56.738z M33.242,56.738"/>
	<path fill="#D3B68C" d="M34.191,55.207c0.203-0.02,0.363-0.188,0.363-0.398s-0.16-0.379-0.367-0.398
		c-0.012,0-0.023-0.008-0.039-0.008c-0.223,0-0.406,0.184-0.406,0.406c0,0.227,0.184,0.406,0.406,0.406
		C34.164,55.214,34.176,55.21,34.191,55.207L34.191,55.207z M34.191,55.207"/>
	<path fill="#D3B68C" d="M33.77,53.488c0.016-0.016,0.02-0.031,0.031-0.047c0.121-0.16,0.113-0.383-0.031-0.527
		c-0.145-0.149-0.367-0.153-0.527-0.031c-0.016,0.011-0.031,0.015-0.047,0.031c-0.156,0.155-0.156,0.414,0,0.574
		C33.355,53.644,33.613,53.644,33.77,53.488L33.77,53.488z M33.77,53.488"/>
	<path fill="#D3B68C" d="M38.441,30.527c0.613,0,1.23,0.113,1.832,0.328c1.117,0.403,2.031,1.125,2.578,2
		c0.012-0.004,0.023-0.008,0.035-0.012L43,32.789c0.188-0.106,0.313-0.196,0.422-0.293l0.152-0.156
		c0.105-0.114,0.191-0.239,0.27-0.372l0.051-0.101c0.02-0.031,0.027-0.066,0.043-0.102c-0.891-0.558-1.605-1.464-2-2.574
		c-0.352-0.969-0.391-1.945-0.207-2.808c-0.324-0.137-0.66-0.219-0.992-0.219c-0.301,0-0.586,0.062-0.848,0.183
		c-0.473,0.223-0.836,0.633-1.059,1.184l-0.063,0.16l-0.16,0.063c-0.551,0.218-0.957,0.586-1.18,1.054
		c-0.258,0.547-0.234,1.188,0.035,1.828C37.777,30.57,38.102,30.527,38.441,30.527L38.441,30.527z M38.441,30.527"/>
	<path fill="#D3B68C" d="M35.754,36.343c0.203,0.571,0.684,1.016,1.32,1.274c0.492-0.762,1.23-1.414,2.137-1.84
		c1.047-0.492,2.23-0.625,3.234-0.402c0.008-0.012,0.016-0.028,0.02-0.039l0.41,0.031l-0.371-0.152
		c0.035-0.125,0.055-0.204,0.066-0.282c0.012-0.07,0.02-0.144,0.023-0.218v-0.219c-0.004-0.078-0.012-0.153-0.023-0.227
		c-0.012-0.078-0.031-0.152-0.051-0.23l-0.031-0.106c-0.012-0.031-0.027-0.062-0.043-0.097c-0.047-0.125-0.105-0.25-0.172-0.371
		c-0.07-0.129-0.148-0.25-0.234-0.372c-0.48-0.652-1.195-1.183-2.035-1.484c-0.516-0.183-1.043-0.281-1.563-0.281
		c-0.191,0-0.379,0.019-0.559,0.043c-0.145,0.023-0.285,0.051-0.418,0.086c-0.137,0.035-0.27,0.078-0.391,0.129
		c-0.637,0.261-1.117,0.707-1.32,1.277c-0.176,0.488-0.148,1.035,0.086,1.582l0.066,0.156l-0.066,0.157
		C35.605,35.304,35.578,35.851,35.754,36.343L35.754,36.343z M35.754,36.343"/>
	<path fill="#D3B68C" d="M43.941,37.433c-0.008-0.011-0.012-0.027-0.016-0.035l-0.055-0.113c-0.105-0.188-0.195-0.313-0.293-0.422
		l-0.152-0.148c-0.113-0.11-0.238-0.2-0.375-0.274l-0.105-0.055c-0.031-0.019-0.066-0.023-0.102-0.035
		c-0.125-0.058-0.254-0.093-0.383-0.133c-0.137-0.042-0.277-0.078-0.422-0.101c-0.188-0.031-0.379-0.063-0.578-0.063
		c-0.633,0-1.293,0.157-1.91,0.446c-0.688,0.324-1.258,0.789-1.668,1.332c-0.086,0.117-0.16,0.238-0.23,0.359
		c-0.027,0.043-0.063,0.086-0.086,0.133c-0.043,0.078-0.066,0.16-0.102,0.242c-0.27,0.641-0.293,1.285-0.035,1.828
		c0.223,0.469,0.629,0.836,1.18,1.055l0.16,0.066l0.063,0.157c0.223,0.55,0.586,0.961,1.059,1.183
		c0.262,0.121,0.547,0.184,0.848,0.184c0.328,0,0.668-0.082,0.992-0.219c-0.184-0.863-0.145-1.84,0.207-2.812
		C42.34,38.894,43.063,37.98,43.941,37.433L43.941,37.433z M43.941,37.433"/>
	<path fill="#D3B68C" d="M46.855,41.074c-0.504-1.074-0.641-2.231-0.406-3.238c-0.012-0.004-0.023-0.008-0.035-0.012l-0.117-0.043
		c-0.129-0.035-0.207-0.055-0.281-0.066c-0.074-0.012-0.148-0.02-0.223-0.024h-0.219c-0.078,0.004-0.152,0.012-0.227,0.024
		c-0.074,0.011-0.148,0.031-0.227,0.05l-0.105,0.032c-0.035,0.011-0.066,0.027-0.098,0.039c-0.129,0.05-0.25,0.109-0.371,0.175
		c-0.125,0.071-0.25,0.149-0.367,0.235c-0.656,0.476-1.188,1.191-1.488,2.035c-0.242,0.672-0.316,1.352-0.258,1.969
		c0.008,0.051,0.016,0.101,0.02,0.156c0.02,0.141,0.051,0.281,0.086,0.414c0.035,0.137,0.082,0.266,0.137,0.391
		c0.094,0.234,0.211,0.449,0.355,0.636c0.242,0.313,0.543,0.551,0.91,0.684c0.488,0.176,1.039,0.148,1.586-0.086l0.156-0.066
		l0.156,0.066c0.313,0.132,0.621,0.199,0.926,0.199c0.227,0,0.449-0.039,0.656-0.113c0.566-0.203,1.004-0.676,1.266-1.32
		C47.941,42.722,47.285,41.988,46.855,41.074L46.855,41.074z M46.855,41.074"/>
	<path fill="#D3B68C" d="M52.926,38.672c-0.613,0-1.23-0.11-1.836-0.325c-1.117-0.402-2.027-1.125-2.574-2
		c-0.012,0.004-0.027,0.008-0.039,0.012l-0.121,0.059c-0.176,0.097-0.301,0.187-0.414,0.289l-0.152,0.156
		c-0.102,0.109-0.191,0.234-0.266,0.371l-0.055,0.102c-0.016,0.031-0.027,0.066-0.043,0.097c-0.051,0.125-0.098,0.25-0.137,0.383
		c-0.039,0.137-0.07,0.281-0.094,0.426c-0.125,0.797,0.004,1.68,0.387,2.492c0.324,0.692,0.797,1.266,1.332,1.672
		c0.113,0.086,0.234,0.164,0.355,0.234c0.121,0.071,0.246,0.129,0.367,0.184c0.324,0.137,0.66,0.215,0.992,0.215
		c0.301,0,0.582-0.059,0.848-0.184c0.469-0.222,0.836-0.633,1.055-1.183l0.063-0.157l0.16-0.062c0.551-0.223,0.957-0.59,1.18-1.059
		c0.266-0.566,0.227-1.211-0.035-1.828C53.59,38.633,53.266,38.672,52.926,38.672L52.926,38.672z M52.926,38.672"/>
	<path fill="#D3B68C" d="M55.457,34.601l0.066-0.152c0.234-0.551,0.266-1.098,0.09-1.586c-0.207-0.574-0.688-1.02-1.324-1.281
		c-0.48,0.742-1.203,1.406-2.133,1.844c-0.723,0.339-1.504,0.523-2.254,0.523c-0.34,0-0.672-0.043-0.984-0.113
		c-0.004,0.011-0.012,0.023-0.016,0.031l-0.043,0.121c-0.035,0.129-0.051,0.203-0.066,0.281c-0.012,0.078-0.02,0.153-0.023,0.227
		v0.215c0.004,0.074,0.016,0.148,0.023,0.222c0.016,0.075,0.031,0.153,0.051,0.227l0.031,0.109c0.012,0.035,0.031,0.071,0.047,0.106
		c0.047,0.125,0.105,0.246,0.168,0.363c0.07,0.129,0.152,0.254,0.242,0.379c0.477,0.648,1.191,1.176,2.027,1.476
		c0.52,0.188,1.043,0.282,1.566,0.282c0.191,0,0.375-0.016,0.555-0.043c0.145-0.02,0.285-0.047,0.418-0.082
		c0.137-0.035,0.266-0.078,0.387-0.129c0.641-0.258,1.121-0.707,1.328-1.278c0.176-0.488,0.145-1.035-0.09-1.582L55.457,34.601z
		 M55.457,34.601"/>
	<path fill="#D3B68C" d="M47.426,31.769c0.004,0.012,0.008,0.024,0.016,0.035l-0.32,0.266l0.379-0.144
		c0.098,0.175,0.188,0.3,0.289,0.414l0.152,0.156c0.109,0.097,0.234,0.187,0.375,0.265l0.098,0.055
		c0.035,0.016,0.066,0.027,0.102,0.039c0.125,0.059,0.25,0.106,0.379,0.141c0.141,0.043,0.281,0.074,0.422,0.097
		c0.816,0.137,1.684-0.007,2.5-0.39c0.699-0.332,1.266-0.805,1.664-1.332c0.086-0.117,0.168-0.235,0.238-0.356
		c0.07-0.125,0.129-0.25,0.18-0.379c0.262-0.617,0.301-1.265,0.035-1.828c-0.219-0.468-0.629-0.836-1.18-1.054l-0.16-0.067
		l-0.063-0.156c-0.219-0.551-0.586-0.961-1.059-1.184c-0.262-0.121-0.547-0.183-0.848-0.183c-0.328,0-0.664,0.078-0.988,0.219
		c0.191,0.886,0.129,1.867-0.211,2.808C49.023,30.308,48.305,31.222,47.426,31.769L47.426,31.769z M47.426,31.769"/>
	<path fill="#D3B68C" d="M47.281,34.601c0,0.883-0.715,1.598-1.598,1.598c-0.887,0-1.602-0.715-1.602-1.598
		c0-0.883,0.715-1.597,1.602-1.597C46.566,33.004,47.281,33.718,47.281,34.601L47.281,34.601z M47.281,34.601"/>
	<path fill="#D3B68C" d="M43.309,30.086c0.25,0.347,0.543,0.644,0.863,0.875c0.121,0.09,0.246,0.172,0.371,0.238
		c0.121,0.066,0.246,0.121,0.371,0.168c0.012,0.004,0.023,0.012,0.035,0.016l0.125,0.043c0.121,0.035,0.199,0.054,0.273,0.066
		c0.074,0.012,0.148,0.019,0.227,0.023h0.148c0.145-0.004,0.219-0.015,0.293-0.023c0.078-0.012,0.152-0.031,0.227-0.051l0.105-0.031
		c0.035-0.012,0.07-0.031,0.105-0.047c0.125-0.047,0.246-0.105,0.367-0.168c0.125-0.07,0.246-0.148,0.367-0.234
		c0.328-0.243,0.625-0.539,0.875-0.883c0.25-0.344,0.461-0.735,0.613-1.152c0.254-0.715,0.332-1.45,0.234-2.129
		c-0.02-0.141-0.051-0.274-0.086-0.411c-0.016-0.05-0.02-0.105-0.035-0.156c-0.027-0.082-0.066-0.156-0.098-0.234
		c-0.266-0.649-0.699-1.121-1.27-1.324c-0.391-0.141-0.816-0.145-1.254-0.024c-0.109,0.031-0.219,0.067-0.328,0.113l-0.156,0.067
		l-0.16-0.07c-0.109-0.047-0.219-0.075-0.332-0.106c-0.199-0.055-0.398-0.094-0.594-0.094c-0.227,0-0.449,0.039-0.656,0.114
		c-0.586,0.211-1.016,0.695-1.266,1.32c-0.055,0.129-0.102,0.254-0.137,0.391c-0.035,0.136-0.066,0.273-0.086,0.414
		c-0.09,0.66-0.023,1.394,0.238,2.129C42.844,29.347,43.055,29.742,43.309,30.086L43.309,30.086z M43.309,30.086"/>
	<path fill="#D3B68C" d="M46.09,32.324c0-0.012-0.008-0.023-0.012-0.039c-0.02-0.203-0.188-0.363-0.398-0.363
		c-0.207,0-0.375,0.16-0.398,0.367c0,0.012-0.008,0.023-0.008,0.039c0,0.223,0.184,0.406,0.406,0.406
		C45.906,32.734,46.09,32.551,46.09,32.324L46.09,32.324z M46.09,32.324"/>
	<path fill="#D3B68C" d="M43.785,33.281c0.16,0.156,0.418,0.156,0.574,0c0.16-0.16,0.16-0.418,0-0.574
		c-0.012-0.016-0.031-0.021-0.047-0.031c-0.156-0.122-0.383-0.114-0.527,0.031c-0.145,0.144-0.152,0.367-0.031,0.527
		C43.766,33.25,43.773,33.265,43.785,33.281L43.785,33.281z M43.785,33.281"/>
	<path fill="#D3B68C" d="M43.367,34.203C43.16,34.226,43,34.39,43,34.601c0,0.211,0.16,0.379,0.367,0.399
		c0.012,0,0.023,0.008,0.039,0.008c0.223,0,0.406-0.18,0.406-0.407c0-0.222-0.184-0.406-0.406-0.406
		C43.391,34.195,43.379,34.203,43.367,34.203L43.367,34.203z M43.367,34.203"/>
	<path fill="#D3B68C" d="M44.313,36.527c0.016-0.008,0.035-0.016,0.047-0.027c0.16-0.16,0.16-0.418,0-0.574
		c-0.156-0.161-0.414-0.161-0.574,0c-0.012,0.011-0.02,0.031-0.031,0.042c-0.117,0.161-0.113,0.387,0.031,0.532
		C43.93,36.644,44.156,36.648,44.313,36.527L44.313,36.527z M44.313,36.527"/>
	<path fill="#D3B68C" d="M45.277,36.879c0,0.015,0.008,0.023,0.008,0.039c0.02,0.203,0.188,0.367,0.398,0.367
		s0.379-0.164,0.398-0.367c0-0.016,0.008-0.028,0.008-0.039c0-0.227-0.18-0.407-0.406-0.407S45.277,36.652,45.277,36.879
		L45.277,36.879z M45.277,36.879"/>
	<path fill="#D3B68C" d="M47.051,36.527c0.16,0.121,0.383,0.117,0.527-0.027c0.145-0.145,0.152-0.371,0.031-0.532
		c-0.012-0.011-0.016-0.031-0.031-0.042c-0.156-0.161-0.418-0.161-0.574,0c-0.16,0.156-0.16,0.414,0,0.574
		C47.016,36.511,47.035,36.519,47.051,36.527L47.051,36.527z M47.051,36.527"/>
	<path fill="#D3B68C" d="M48,35c0.203-0.02,0.363-0.188,0.363-0.399c0-0.211-0.16-0.379-0.367-0.398
		c-0.012,0-0.023-0.008-0.039-0.008c-0.223,0-0.406,0.184-0.406,0.406c0,0.227,0.184,0.407,0.406,0.407
		C47.973,35.008,47.984,35,48,35L48,35z M48,35"/>
	<path fill="#D3B68C" d="M47.578,33.281c0.016-0.016,0.02-0.031,0.031-0.047c0.121-0.16,0.113-0.383-0.031-0.527
		c-0.145-0.145-0.367-0.153-0.527-0.031c-0.016,0.011-0.035,0.015-0.047,0.031c-0.16,0.156-0.16,0.414,0,0.574
		C47.164,33.437,47.422,33.437,47.578,33.281L47.578,33.281z M47.578,33.281"/>
</g>
</svg>
