<?xml version="1.0" encoding="utf-8"?>
<!-- Generator: Adobe Illustrator 16.0.0, SVG Export Plug-In . SVG Version: 6.00 Build 0)  -->
<!DOCTYPE svg PUBLIC "-//W3C//DTD SVG 1.1//EN" "http://www.w3.org/Graphics/SVG/1.1/DTD/svg11.dtd">
<svg version="1.1" id="圖層_1" xmlns="http://www.w3.org/2000/svg" xmlns:xlink="http://www.w3.org/1999/xlink" x="0px" y="0px"
	 width="141px" height="129.581px" viewBox="0 0 141 129.581" enable-background="new 0 0 141 129.581" xml:space="preserve">
<path fill="#222222" d="M133,28.001c0,4.418-3.582,8-8,8H15c-4.418,0-8-3.582-8-8l0,0c0-4.418,3.582-8,8-8h110
	C129.418,20.001,133,23.583,133,28.001L133,28.001z"/>
<path fill="#222222" d="M133,65.501c0,4.418-3.582,8-8,8H15c-4.418,0-8-3.582-8-8l0,0c0-4.418,3.582-8,8-8h110
	C129.418,57.501,133,61.083,133,65.501L133,65.501z"/>
<path fill="#222222" d="M133,103.001c0,4.418-3.582,8-8,8H15c-4.418,0-8-3.582-8-8l0,0c0-4.418,3.582-8,8-8h110
	C129.418,95.001,133,98.583,133,103.001L133,103.001z"/>
</svg>
