<?xml version="1.0" encoding="utf-8"?>
<!-- Generator: Adobe Illustrator 16.0.0, SVG Export Plug-In . SVG Version: 6.00 Build 0)  -->
<!DOCTYPE svg PUBLIC "-//W3C//DTD SVG 1.1//EN" "http://www.w3.org/Graphics/SVG/1.1/DTD/svg11.dtd">
<svg version="1.1" id="圖層_1" xmlns="http://www.w3.org/2000/svg" xmlns:xlink="http://www.w3.org/1999/xlink" x="0px" y="0px"
	 width="198.425px" height="198.425px" viewBox="0 0 198.425 198.425" enable-background="new 0 0 198.425 198.425"
	 xml:space="preserve">
<g>
	<path fill="#CB1B45" d="M99.804,0.938c-54.381,0-98.621,44.243-98.621,98.621c0,54.381,44.24,98.632,98.621,98.632
		s98.621-44.251,98.621-98.632C198.425,45.181,154.185,0.938,99.804,0.938L99.804,0.938z M187.795,118.033
		c-0.425,1.935-0.956,3.848-1.487,5.74c-0.851-0.255-1.723-0.489-2.594-0.648c-2.211-0.478-4.486-0.733-6.846-0.733
		c-3.125,0-6.144,0.468-9.014,1.276c-2.232,0.638-4.38,1.499-6.378,2.551c-2.615,1.382-4.996,3.104-7.144,5.102
		c-5.612,5.272-9.417,12.447-10.311,20.472c-0.127,1.212-0.212,2.424-0.212,3.657c0,1.743,0.17,3.443,0.447,5.112
		c0.34,2.254,0.914,4.39,1.7,6.474c0.957,2.583,2.232,5.017,3.784,7.249c-1.658,1.105-3.38,2.105-5.102,3.104
		c-1.722,0.978-3.465,1.914-5.251,2.785c-1.19-1.807-2.232-3.72-3.167-5.697c-0.851-1.807-1.616-3.635-2.211-5.569
		c-0.638-2.009-1.084-4.125-1.446-6.25c-0.382-2.36-0.617-4.741-0.617-7.207c0-2.764,0.276-5.442,0.766-8.079
		c1.573-8.631,5.612-16.369,11.374-22.534c3.487-3.731,7.589-6.888,12.181-9.27c1.85-0.956,3.806-1.785,5.804-2.487
		c1.914-0.659,3.848-1.254,5.847-1.658c2.891-0.595,5.889-0.893,8.95-0.893c2.338,0,4.635,0.234,6.866,0.585
		c1.701,0.244,3.359,0.605,4.996,1.052C188.455,114.122,188.2,116.109,187.795,118.033L187.795,118.033z M181.503,136.869
		c-5.294,11.544-12.947,21.77-22.386,30.082c-2.062-3.189-3.295-6.952-3.38-11.013c0-0.159-0.042-0.318-0.042-0.488
		c0-7.154,3.572-13.479,9.014-17.305c3.444-2.423,7.632-3.891,12.16-3.891c1.786,0,3.486,0.276,5.145,0.702
		c0.106,0.021,0.234,0.085,0.361,0.106C182.098,135.678,181.779,136.252,181.503,136.869L181.503,136.869z M182.205,99.309
		c-1.765-0.175-3.529-0.281-5.336-0.281c-3.699,0-7.313,0.383-10.8,1.084c-1.956,0.361-3.891,0.829-5.761,1.403
		c-1.914,0.595-3.784,1.297-5.612,2.062c-3.72,1.616-7.228,3.635-10.481,5.963c-1.913,1.36-3.72,2.838-5.442,4.433
		c-2.168,1.977-4.188,4.124-6.016,6.431c-4.741,5.942-8.291,12.894-10.311,20.462c-0.765,2.849-1.382,5.782-1.679,8.812
		c-0.212,1.882-0.297,3.816-0.297,5.772c0,0.382,0.042,0.797,0.063,1.169c0.085,4.124,0.617,8.121,1.552,11.969
		c0.468,1.956,1.042,3.869,1.701,5.74c0.68,1.881,1.424,3.699,2.274,5.463c0.808,1.658,1.68,3.274,2.636,4.826
		c-1.935,0.659-3.912,1.233-5.91,1.775c-1.977,0.521-3.975,1.031-6.016,1.414c-0.787-1.414-1.467-2.934-2.147-4.422
		c-0.808-1.808-1.53-3.678-2.189-5.549c-0.659-1.893-1.212-3.806-1.701-5.762c-0.765-2.976-1.382-6.037-1.722-9.162
		c-0.063-0.702-0.106-1.425-0.148-2.137c-0.128-1.775-0.276-3.54-0.276-5.325c0-0.255,0.042-0.489,0.042-0.723
		c0.021-2.105,0.106-4.156,0.319-6.197c0-0.202,0.042-0.372,0.063-0.542c0.531-4.826,1.573-9.481,3.062-13.946
		c2.126-6.399,5.166-12.373,8.971-17.794c2.849-4.039,6.144-7.738,9.8-11.076c1.531-1.424,3.125-2.764,4.805-4.034
		c1.595-1.196,3.231-2.341,4.911-3.423c3.231-2.02,6.611-3.848,10.162-5.317c1.829-0.768,3.699-1.464,5.613-2.062
		c1.892-0.596,3.848-1.084,5.825-1.531c4.741-1.039,9.652-1.637,14.711-1.637c0.595,0,1.169,0.064,1.743,0.088
		c3.508,0.08,6.952,0.423,10.311,1.039c0.255,1.998,0.404,4.039,0.531,6.08c0.106,1.725,0.255,3.444,0.255,5.185
		c0,0.34-0.042,0.664-0.042,0.999C187.222,99.99,184.755,99.543,182.205,99.309L182.205,99.309z M17.552,135.763
		c0.149-0.063,0.295-0.085,0.447-0.148c2.275-0.829,4.698-1.361,7.271-1.361c3.358,0,6.483,0.851,9.29,2.243
		c7.016,3.455,11.902,10.598,11.902,18.953c0,1.105-0.167,2.168-0.338,3.231c-0.555,3.593-1.995,6.867-4.146,9.652
		c-9.84-8.313-17.833-18.708-23.409-30.486C18.233,137.145,17.869,136.465,17.552,135.763L17.552,135.763z M55.585,168.587
		c0.869-1.956,1.528-4.018,1.995-6.165c0.492-2.253,0.747-4.581,0.747-6.973c0-0.255-0.021-0.511-0.021-0.766
		c-0.258-10.587-5.487-19.941-13.459-25.83c-2.057-1.509-4.294-2.827-6.673-3.848c-1.974-0.851-4.06-1.488-6.231-1.935
		c-2.145-0.446-4.395-0.681-6.672-0.681c-3.165,0-6.232,0.468-9.121,1.297c-0.893,0.255-1.786,0.585-2.633,0.893
		c-0.556-1.892-1.068-3.827-1.491-5.783c-0.446-1.935-0.746-3.933-1.041-5.931c1.655-0.553,3.337-1.042,5.078-1.403
		c2.976-0.617,6.043-0.957,9.208-0.957c2.253,0,4.464,0.213,6.635,0.553c2.02,0.298,3.973,0.702,5.889,1.255
		c1.999,0.574,3.952,1.307,5.822,2.146c4.316,1.935,8.246,4.55,11.714,7.675c7.847,7.079,13.202,16.88,14.52,27.913
		c0.21,1.765,0.364,3.572,0.364,5.4c0,2.955-0.301,5.825-0.856,8.631c-0.401,2.062-0.973,4.039-1.631,5.984
		c-0.665,1.882-1.427,3.71-2.32,5.496c-0.978,1.914-2.062,3.763-3.276,5.527c-1.828-0.85-3.656-1.679-5.418-2.657
		c-1.743-0.956-3.422-2.009-5.1-3.104C53.186,173.264,54.546,171.011,55.585,168.587L55.585,168.587z M75.739,180.514
		c0.869-1.765,1.658-3.572,2.339-5.421c0.701-1.839,1.296-3.763,1.785-5.687c0.957-3.773,1.528-7.664,1.704-11.682
		c0.016-0.766,0.104-1.51,0.104-2.274c0-1.467-0.104-2.913-0.213-4.358c-0.213-2.636-0.571-5.229-1.127-7.771
		c-2.166-9.811-6.912-18.654-13.459-25.84c-1.762-1.935-3.635-3.784-5.655-5.453c-1.695-1.436-3.526-2.722-5.397-3.944
		c-3.271-2.126-6.803-3.89-10.504-5.315c-1.844-0.701-3.739-1.297-5.676-1.807c-1.887-0.505-3.827-0.914-5.801-1.207
		c-2.809-0.425-5.655-0.728-8.567-0.728c-2.639,0-5.206,0.233-7.739,0.595c-2.575,0.367-5.105,0.872-7.571,1.573
		c0-0.547-0.08-1.084-0.08-1.637c0-1.528,0.146-3.016,0.234-4.528c0.104-2.099,0.233-4.186,0.483-6.247
		c3.423-0.769,6.954-1.212,10.568-1.425c1.361-0.082,2.721-0.212,4.104-0.212c4.318,0,8.501,0.446,12.606,1.211
		c1.996,0.383,3.957,0.851,5.886,1.406c1.94,0.55,3.827,1.185,5.679,1.889c3.611,1.382,7.058,3.019,10.334,4.956
		c1.719,1.018,3.401,2.081,5.017,3.248c1.656,1.169,3.25,2.413,4.799,3.72c3.468,2.976,6.636,6.314,9.466,9.907
		c5.1,6.569,9.094,14.052,11.564,22.194c1.186,3.954,2.041,8.058,2.509,12.288c-0.021,0.361-0.021,0.744-0.066,1.105
		c-0.151,1.977-0.276,3.954-0.298,5.974c0,0.128-0.023,0.255-0.023,0.383c0,1.913,0.17,3.773,0.279,5.655
		c0.042,0.606,0.042,1.211,0.109,1.807c-0.364,3.252-1.002,6.42-1.813,9.524c-0.483,1.935-1.06,3.869-1.74,5.74
		c-0.681,1.914-1.427,3.806-2.275,5.634c-0.683,1.488-1.363,2.955-2.124,4.38c-2.086-0.341-4.148-0.744-6.167-1.233
		c-2.017-0.468-4.058-0.936-6.019-1.552C73.974,183.809,74.888,182.193,75.739,180.514L75.739,180.514z M185.266,71.755
		c-2.764-0.276-5.549-0.425-8.397-0.425c-2.041,0-4.039,0.17-6.038,0.3c-14.924-23.43-41.072-39.01-70.917-39.01
		c-29.808,0-55.914,15.538-70.859,38.901c-1.251-0.066-2.508-0.191-3.784-0.191c-3.766,0-7.438,0.338-11.074,0.805
		C25.82,35.933,59.797,9.657,99.804,9.657C139.665,9.657,173.509,35.763,185.266,71.755L185.266,71.755z M147.637,76.647
		c-1.998,0.741-3.933,1.552-5.867,2.421c-10.332-11.482-25.235-18.732-41.857-18.732c-16.248,0-30.871,6.933-41.161,17.946
		c-1.956-0.829-3.973-1.573-5.992-2.254c-2.025-0.701-4.065-1.318-6.144-1.868c12.516-15.646,31.74-25.705,53.296-25.705
		c21.767,0,41.155,10.287,53.677,26.213C151.57,75.244,149.593,75.924,147.637,76.647L147.637,76.647z M126.463,88.228
		c-1.616,1.214-3.189,2.45-4.698,3.766c-5.825-5.163-13.479-8.31-21.852-8.31c-7.826,0-14.988,2.737-20.667,7.289
		c-1.549-1.318-3.189-2.511-4.826-3.696c-1.639-1.193-3.337-2.32-5.083-3.38c8.038-7.483,18.777-12.099,30.576-12.099
		c12.264,0,23.382,4.953,31.503,12.947C129.716,85.829,128.079,87.019,126.463,88.228L126.463,88.228z M101.077,119.16
		c-3.462-7.249-7.93-13.903-13.242-19.792c3.446-2.399,7.587-3.803,12.078-3.803c5.1,0,9.734,1.871,13.391,4.893
		C108.435,106.085,104.33,112.357,101.077,119.16L101.077,119.16z M101.077,119.16"/>
</g>
</svg>
