<?xml version="1.0" encoding="utf-8"?>
<!-- Generator: Adobe Illustrator 21.0.0, SVG Export Plug-In . SVG Version: 6.00 Build 0)  -->
<svg version="1.1" id="圖層_1" xmlns="http://www.w3.org/2000/svg" xmlns:xlink="http://www.w3.org/1999/xlink" x="0px" y="0px"
	 viewBox="0 0 387.9 388" style="enable-background:new 0 0 387.9 388;" xml:space="preserve">
<style type="text/css">
	.st0{fill:#E2E2E2;}
</style>
<path class="st0" d="M254.4,139.2c7-37.8,19.4-73.8,37.1-107.9c-21.6-16.3-46-24.7-73.1-25.1C211.4,44,199,80,181.3,114.1
	C202.9,130.4,227.3,138.8,254.4,139.2L254.4,139.2z M254.4,139.2"/>
<path class="st0" d="M356.5,187.2c22.2-13.4,31.4-38.7,31.4-38.7s-26.7-3.5-48.9,9.9c-9.3,5.6-16.1,13.2-21.2,20.2
	c-11.3-1.2-22.7,0.6-33.7,4.2c4.2-4.4,8.5-9.9,11.3-16.6c7.9-18.6,2.3-38.7,2.3-38.7s-18.5,9.9-26.4,28.4
	c-5.5,12.8-4.5,26.3-3.3,33.4c-17.6,8.7-33.7,21.2-46.8,33.3c6.3-18.5,13.9-36.5,23-54c-21.6-16.3-46-24.6-73-25.1
	c-7,37.8-19.4,73.8-37.1,107.9c21.6,16.3,46,24.6,73.1,25.1c1.7-9.3,3.8-18.5,6.1-27.5c17.7-18.9,49.3-48.1,81.8-55.8
	c4.9,7.1,16.7,22,34.6,29.3c24,9.7,49.8,2,49.8,2s-12.3-21.6-34.6-32C348.8,191.1,352.7,189.5,356.5,187.2L356.5,187.2z
	 M356.5,187.2"/>
<path class="st0" d="M107.5,341.4c-5.7,15.9-12.3,31.5-20.2,46.6h78.4c7.3-28.4,17.7-55.8,31.4-82c-21.6-16.3-46-24.6-73-25.1
	c-1.9,10.5-4.4,20.8-7.2,31c-3-16.8-7.9-35.4-16-52.2c5.3-4.9,14.4-14.9,17.9-28.4c5.2-19.5-3.3-38.7-3.3-38.7s-16.9,12.5-22,32
	c-1.8,7-1.9,14-1.2,20.1c-6.5-9.7-14.4-18-24-24.1c0.4-8.6-0.4-18.9-4.2-29c-9.3-24.2-32.5-37.8-32.5-37.8s-8.2,25.6,1,49.8
	c4.1,10.8,11,19.4,17.4,25.7c-4.6-0.3-9.5-0.1-14.5,1.1c-18.9,4.4-31.4,20.2-31.4,20.2s18.1,8.7,37,4.4c13.6-3.2,23.8-12.2,28.5-17
	C96.8,262.6,105,312.8,107.5,341.4z"/>
</svg>
